<svg width="24" height="25" viewBox="0 0 24 25" fill="none" xmlns="http://www.w3.org/2000/svg">
<path d="M2.5 12.5C2.5 8.02166 2.5 5.78249 3.89124 4.39124C5.28249 3 7.52166 3 12 3C16.4783 3 18.7175 3 20.1088 4.39124C21.5 5.78249 21.5 8.02166 21.5 12.5C21.5 16.9783 21.5 19.2175 20.1088 20.6088C18.7175 22 16.4783 22 12 22C7.52166 22 5.28249 22 3.89124 20.6088C2.5 19.2175 2.5 16.9783 2.5 12.5Z" fill="#F08538"/>
<path d="M11.3673 8.24H13.3233L13.1313 14.684H11.5593L11.3673 8.24ZM11.6073 15.452C11.8073 15.252 12.0553 15.152 12.3513 15.152C12.6393 15.152 12.8833 15.256 13.0833 15.464C13.2913 15.664 13.3953 15.912 13.3953 16.208C13.3953 16.504 13.2913 16.756 13.0833 16.964C12.8833 17.164 12.6393 17.264 12.3513 17.264C12.0553 17.264 11.8033 17.164 11.5953 16.964C11.3953 16.756 11.2953 16.504 11.2953 16.208C11.2953 15.912 11.3993 15.66 11.6073 15.452Z" fill="white"/>
</svg>
