<svg width="16" height="16" viewBox="0 0 16 16" fill="none" xmlns="http://www.w3.org/2000/svg">
<path d="M8 5.33402L12 3.33401L8 1.33401V8.00068" stroke="#202403" stroke-opacity="0.6" stroke-linecap="round" stroke-linejoin="round"/>
<path d="M5.33325 7.99402L1.66658 10.0874C1.56398 10.1455 1.47864 10.2298 1.41927 10.3317C1.3599 10.4336 1.32861 10.5494 1.32861 10.6674C1.32861 10.7853 1.3599 10.9011 1.41927 11.003C1.47864 11.1049 1.56398 11.1892 1.66658 11.2474L7.33325 14.4874C7.53594 14.6044 7.76586 14.666 7.99991 14.666C8.23396 14.666 8.46389 14.6044 8.66658 14.4874L14.3332 11.2474C14.4358 11.1892 14.5212 11.1049 14.5806 11.003C14.6399 10.9011 14.6712 10.7853 14.6712 10.6674C14.6712 10.5494 14.6399 10.4336 14.5806 10.3317C14.5212 10.2298 14.4358 10.1455 14.3332 10.0874L10.6666 8.00069" stroke="#202403" stroke-opacity="0.6" stroke-linecap="round" stroke-linejoin="round"/>
<path d="M4.32666 8.56735L11.6733 12.7674" stroke="#202403" stroke-opacity="0.6" stroke-linecap="round" stroke-linejoin="round"/>
<path d="M11.673 8.56735L4.33301 12.7674" stroke="#202403" stroke-opacity="0.6" stroke-linecap="round" stroke-linejoin="round"/>
</svg>
