<svg width="16" height="16" viewBox="0 0 16 16" fill="none" xmlns="http://www.w3.org/2000/svg">
<path d="M11.6001 13.4006C11.6001 12.1274 11.0943 10.9064 10.194 10.0061C9.29375 9.10587 8.07272 8.6001 6.79954 8.6001C5.52637 8.6001 4.30534 9.10587 3.40506 10.0061C2.50479 10.9064 1.99902 12.1274 1.99902 13.4006" stroke="#202403" stroke-opacity="0.6" stroke-linecap="round" stroke-linejoin="round"/>
<path d="M6.79964 8.60003C8.45668 8.60003 9.79997 7.25674 9.79997 5.59971C9.79997 3.94267 8.45668 2.59938 6.79964 2.59938C5.14261 2.59938 3.79932 3.94267 3.79932 5.59971C3.79932 7.25674 5.14261 8.60003 6.79964 8.60003Z" stroke="#202403" stroke-opacity="0.6" stroke-linecap="round" stroke-linejoin="round"/>
<path d="M14.0009 12.8004C14.0009 10.7782 12.8007 8.89996 11.6006 7.99986C11.9951 7.70389 12.3105 7.31524 12.519 6.8683C12.7275 6.42136 12.8226 5.92991 12.7959 5.43746C12.7692 4.94501 12.6216 4.46673 12.366 4.04495C12.1104 3.62317 11.7547 3.2709 11.3306 3.01932" stroke="#202403" stroke-opacity="0.6" stroke-linecap="round" stroke-linejoin="round"/>
</svg>
