<svg width="56" height="56" viewBox="0 0 56 56" fill="none" xmlns="http://www.w3.org/2000/svg">
<path opacity="0.4" d="M49.2104 50.1666C49.2104 50.82 48.6971 51.3333 48.0437 51.3333H7.95707C7.30374 51.3333 6.79041 50.82 6.79041 50.1666C6.79041 40.5066 16.3104 32.6666 28.0004 32.6666C30.4037 32.6666 32.7371 32.9932 34.8838 33.6232C33.5071 35.2566 32.6671 37.38 32.6671 39.6666C32.6671 41.4166 33.157 43.0733 34.0204 44.4733C34.487 45.2666 35.0937 45.9899 35.7937 46.5966C37.4271 48.0899 39.5971 49 42.0004 49C44.6137 49 46.9704 47.9266 48.6504 46.1999C49.0237 47.4599 49.2104 48.79 49.2104 50.1666Z" fill="#34C759"/>
<path d="M39.5 38C39.5 38 40.75 38 42 41C42 41 45.9706 33.5 49.5 32" stroke="#34C759" stroke-width="2" stroke-linecap="round" stroke-linejoin="round"/>
<path d="M28 28C34.4434 28 39.6667 22.7766 39.6667 16.3333C39.6667 9.88997 34.4434 4.66663 28 4.66663C21.5567 4.66663 16.3334 9.88997 16.3334 16.3333C16.3334 22.7766 21.5567 28 28 28Z" fill="#34C759"/>
</svg>
