<svg width="24" height="24" viewBox="0 0 24 24" fill="none" xmlns="http://www.w3.org/2000/svg">
<path d="M13.8 11.144C13.8 11.6214 13.6104 12.0792 13.2728 12.4168C12.9352 12.7544 12.4774 12.944 12 12.944C11.5226 12.944 11.0648 12.7544 10.7272 12.4168C10.3896 12.0792 10.2 11.6214 10.2 11.144C10.2 10.1892 10.5793 9.27357 11.2544 8.59844C11.9296 7.92331 12.8452 7.54402 13.8 7.54402C14.7548 7.54402 15.6705 7.92331 16.3456 8.59844C17.0207 9.27357 17.4 10.1892 17.4 11.144C17.4 12.5762 16.8311 13.9497 15.8184 14.9624C14.8057 15.9751 13.4322 16.544 12 16.544C10.5678 16.544 9.19433 15.9751 8.18163 14.9624C7.16894 13.9497 6.60001 12.5762 6.60001 11.144C6.60001 9.23447 7.35858 7.40312 8.70884 6.05286C10.0591 4.7026 11.8904 3.94403 13.8 3.94403C15.7096 3.94403 17.5409 4.7026 18.8912 6.05286C20.2414 7.40312 21 9.23447 21 11.144C21 13.531 20.0518 15.8202 18.364 17.508C16.6761 19.1958 14.387 20.144 12 20.144C9.61306 20.144 7.32387 19.1958 5.63605 17.508C3.94822 15.8202 3.00001 13.531 3.00001 11.144C2.99669 8.79826 3.76168 6.51595 5.17801 4.64603C5.31591 4.44265 5.494 4.26965 5.70129 4.13771C5.90859 4.00576 6.1407 3.91766 6.38334 3.87882C6.62598 3.83999 6.874 3.85124 7.11212 3.9119C7.35024 3.97255 7.57342 4.08131 7.76791 4.23149C7.96241 4.38167 8.12409 4.57008 8.24301 4.78511C8.36192 5.00015 8.43555 5.23725 8.45936 5.48182C8.48316 5.72639 8.45664 5.97325 8.38142 6.20718C8.30621 6.44111 8.18389 6.65716 8.02201 6.84202" stroke="#C0D330" stroke-width="1.5" stroke-linecap="round" stroke-linejoin="round"/>
</svg>
