<svg width="57" height="56" viewBox="0 0 57 56" fill="none" xmlns="http://www.w3.org/2000/svg">
<path d="M11.7467 7H45.2532C46.5056 7 47.1319 7 47.5954 7.21631C48.2135 7.50472 48.6742 8.05232 48.8551 8.71357C48.9908 9.20951 48.8879 9.83147 48.682 11.0754C48.5293 11.9977 48.453 12.4589 48.2498 12.8191C47.9788 13.2994 47.5475 13.6673 47.0324 13.8574C46.6462 14 46.1818 14 45.2532 14H11.7467C10.818 14 10.3537 14 9.96739 13.8574C9.45235 13.6673 9.02099 13.2994 8.75006 12.8191C8.54686 12.4589 8.47052 11.9977 8.31785 11.0754C8.11195 9.83147 8.00899 9.20951 8.1447 8.71357C8.32563 8.05232 8.78636 7.50472 9.40441 7.21631C9.86796 7 10.4942 7 11.7467 7Z" stroke="#30B0C7" stroke-width="3" stroke-linecap="round"/>
<path d="M9.83329 14C7.03523 19.4874 5.16663 23.4871 5.16663 29.6335V41.456C5.16663 44.6917 5.16663 46.3096 6.19175 47.3148C8.33537 49.4168 20.3735 49.7022 22.8082 47.3148C25.3365 44.8356 22.9119 40.0463 24.1885 37.0243C24.9719 35.1698 27.0708 33.7054 28.5 32.304M28.5 32.304L25 28.872M28.5 32.304C29.9291 33.7054 32.028 35.1698 32.8114 37.0243C34.088 40.0463 31.6635 44.8356 34.1918 47.3148C36.3354 49.4168 48.3735 49.7022 50.8082 47.3148C51.8333 46.3096 51.8333 44.6917 51.8333 41.456V29.6335C51.8333 23.4871 49.9647 19.4874 47.1666 14" stroke="#30B0C7" stroke-width="3" stroke-linecap="round" stroke-linejoin="round"/>
<path d="M23.8333 20.4815L28.4999 14L35.4999 25.6667" stroke="#30B0C7" stroke-width="3" stroke-linecap="round" stroke-linejoin="round"/>
</svg>
