<svg width="33" height="33" viewBox="0 0 33 33" fill="none" xmlns="http://www.w3.org/2000/svg">
<path d="M22.8304 5.56925V3.48926C22.8304 2.94259 22.377 2.48926 21.8304 2.48926C21.2837 2.48926 20.8304 2.94259 20.8304 3.48926V5.48926H12.1637V3.48926C12.1637 2.94259 11.7104 2.48926 11.1637 2.48926C10.617 2.48926 10.1637 2.94259 10.1637 3.48926V5.56925C6.56372 5.90259 4.81705 8.04925 4.55038 11.2359C4.52372 11.6226 4.84372 11.9426 5.21705 11.9426H27.777C28.1637 11.9426 28.4837 11.6093 28.4437 11.2359C28.177 8.04925 26.4304 5.90259 22.8304 5.56925Z" fill="white"/>
<path opacity="0.4" d="M27.1628 13.9424C27.8961 13.9424 28.4961 14.5424 28.4961 15.2757V23.4891C28.4961 27.4891 26.4961 30.1557 21.8294 30.1557H11.1628C6.49609 30.1557 4.49609 27.4891 4.49609 23.4891V15.2757C4.49609 14.5424 5.09609 13.9424 5.82943 13.9424H27.1628Z" fill="white"/>
<path d="M11.8294 20.8224C11.4828 20.8224 11.1361 20.6757 10.8828 20.4357C10.6428 20.1824 10.4961 19.8358 10.4961 19.4891C10.4961 19.1424 10.6428 18.7958 10.8828 18.5424C11.2561 18.1691 11.8428 18.0491 12.3361 18.2624C12.5094 18.3291 12.6561 18.4224 12.7761 18.5424C13.0161 18.7958 13.1628 19.1424 13.1628 19.4891C13.1628 19.8358 13.0161 20.1824 12.7761 20.4357C12.5228 20.6757 12.1761 20.8224 11.8294 20.8224Z" fill="white"/>
<path d="M16.4954 20.8224C16.1488 20.8224 15.8021 20.6757 15.5488 20.4357C15.3088 20.1824 15.1621 19.8358 15.1621 19.4891C15.1621 19.1424 15.3088 18.7958 15.5488 18.5424C15.6688 18.4224 15.8154 18.3291 15.9888 18.2624C16.4821 18.0491 17.0688 18.1691 17.4421 18.5424C17.6821 18.7958 17.8288 19.1424 17.8288 19.4891C17.8288 19.8358 17.6821 20.1824 17.4421 20.4357C17.3754 20.4891 17.3088 20.5424 17.2421 20.5957C17.1621 20.6491 17.0821 20.6891 17.0021 20.7158C16.9221 20.7558 16.8421 20.7824 16.7621 20.7958C16.6688 20.8091 16.5888 20.8224 16.4954 20.8224Z" fill="white"/>
<path d="M21.1634 20.822C20.8167 20.822 20.4701 20.6753 20.2167 20.4353C19.9767 20.1819 19.8301 19.8353 19.8301 19.4886C19.8301 19.142 19.9767 18.7953 20.2167 18.542C20.3501 18.422 20.4834 18.3286 20.6567 18.2619C20.8967 18.1553 21.1634 18.1286 21.4301 18.1819C21.5101 18.1953 21.5901 18.2219 21.6701 18.2619C21.7501 18.2886 21.8301 18.3286 21.9101 18.382C21.9767 18.4353 22.0434 18.4886 22.1101 18.542C22.3501 18.7953 22.4967 19.142 22.4967 19.4886C22.4967 19.8353 22.3501 20.1819 22.1101 20.4353C22.0434 20.4886 21.9767 20.5419 21.9101 20.5953C21.8301 20.6486 21.7501 20.6886 21.6701 20.7153C21.5901 20.7553 21.5101 20.782 21.4301 20.7953C21.3367 20.8086 21.2434 20.822 21.1634 20.822Z" fill="white"/>
<path d="M11.8294 25.4889C11.6561 25.4889 11.4828 25.449 11.3228 25.3823C11.1494 25.3156 11.0161 25.2223 10.8828 25.1023C10.6428 24.8489 10.4961 24.5023 10.4961 24.1556C10.4961 23.8089 10.6428 23.4623 10.8828 23.209C11.0161 23.089 11.1494 22.9956 11.3228 22.9289C11.5628 22.8223 11.8294 22.7956 12.0961 22.8489C12.1761 22.8623 12.2561 22.8889 12.3361 22.9289C12.4161 22.9556 12.4961 22.9956 12.5761 23.049C12.6428 23.1023 12.7094 23.1556 12.7761 23.209C13.0161 23.4623 13.1628 23.8089 13.1628 24.1556C13.1628 24.5023 13.0161 24.8489 12.7761 25.1023C12.7094 25.1556 12.6428 25.2223 12.5761 25.2623C12.4961 25.3156 12.4161 25.3556 12.3361 25.3823C12.2561 25.4223 12.1761 25.449 12.0961 25.4623C12.0028 25.4756 11.9228 25.4889 11.8294 25.4889Z" fill="white"/>
<path d="M16.4954 25.4889C16.1488 25.4889 15.8021 25.3422 15.5488 25.1022C15.3088 24.8488 15.1621 24.5022 15.1621 24.1555C15.1621 23.8089 15.3088 23.4622 15.5488 23.2089C16.0421 22.7155 16.9488 22.7155 17.4421 23.2089C17.6821 23.4622 17.8288 23.8089 17.8288 24.1555C17.8288 24.5022 17.6821 24.8488 17.4421 25.1022C17.1888 25.3422 16.8421 25.4889 16.4954 25.4889Z" fill="white"/>
<path d="M21.1634 25.4889C20.8167 25.4889 20.4701 25.3422 20.2167 25.1022C19.9767 24.8488 19.8301 24.5022 19.8301 24.1555C19.8301 23.8089 19.9767 23.4622 20.2167 23.2089C20.7101 22.7155 21.6167 22.7155 22.1101 23.2089C22.3501 23.4622 22.4967 23.8089 22.4967 24.1555C22.4967 24.5022 22.3501 24.8488 22.1101 25.1022C21.8567 25.3422 21.5101 25.4889 21.1634 25.4889Z" fill="white"/>
</svg>
