<svg width="16" height="16" viewBox="0 0 16 16" fill="none" xmlns="http://www.w3.org/2000/svg">
<path d="M10 1.33301H6.00004C5.63185 1.33301 5.33337 1.63148 5.33337 1.99967V3.33301C5.33337 3.7012 5.63185 3.99967 6.00004 3.99967H10C10.3682 3.99967 10.6667 3.7012 10.6667 3.33301V1.99967C10.6667 1.63148 10.3682 1.33301 10 1.33301Z" stroke="white" stroke-linecap="round" stroke-linejoin="round"/>
<path d="M10.6667 2.66602H12C12.3536 2.66602 12.6928 2.80649 12.9428 3.05654C13.1929 3.30659 13.3334 3.64573 13.3334 3.99935V13.3327C13.3334 13.6863 13.1929 14.0254 12.9428 14.2755C12.6928 14.5255 12.3536 14.666 12 14.666H4.00002C3.6464 14.666 3.30726 14.5255 3.05721 14.2755C2.80716 14.0254 2.66669 13.6863 2.66669 13.3327V3.99935C2.66669 3.64573 2.80716 3.30659 3.05721 3.05654C3.30726 2.80649 3.6464 2.66602 4.00002 2.66602H5.33335" stroke="white" stroke-linecap="round" stroke-linejoin="round"/>
<path d="M10 7.33301L6 11.333" stroke="white" stroke-linecap="round" stroke-linejoin="round"/>
<path d="M6 7.33301L10 11.333" stroke="white" stroke-linecap="round" stroke-linejoin="round"/>
</svg>
