<svg width="16" height="16" viewBox="0 0 16 16" fill="none" xmlns="http://www.w3.org/2000/svg">
<path d="M9.99998 1.33334H5.99998C5.63179 1.33334 5.33331 1.63182 5.33331 2.00001V3.33334C5.33331 3.70153 5.63179 4.00001 5.99998 4.00001H9.99998C10.3682 4.00001 10.6666 3.70153 10.6666 3.33334V2.00001C10.6666 1.63182 10.3682 1.33334 9.99998 1.33334Z" stroke="#202020" stroke-opacity="0.85" stroke-linecap="round" stroke-linejoin="round"/>
<path d="M10.6667 2.66669H12C12.3536 2.66669 12.6928 2.80716 12.9428 3.05721C13.1928 3.30726 13.3333 3.6464 13.3333 4.00002V13.3334C13.3333 13.687 13.1928 14.0261 12.9428 14.2762C12.6928 14.5262 12.3536 14.6667 12 14.6667H3.99999C3.64637 14.6667 3.30723 14.5262 3.05718 14.2762C2.80713 14.0261 2.66666 13.687 2.66666 13.3334V4.00002C2.66666 3.6464 2.80713 3.30726 3.05718 3.05721C3.30723 2.80716 3.64637 2.66669 3.99999 2.66669H5.33332" stroke="#202020" stroke-opacity="0.85" stroke-linecap="round" stroke-linejoin="round"/>
<path d="M10 7.33334L6 11.3333" stroke="#202020" stroke-opacity="0.85" stroke-linecap="round" stroke-linejoin="round"/>
<path d="M6 7.33334L10 11.3333" stroke="#202020" stroke-opacity="0.85" stroke-linecap="round" stroke-linejoin="round"/>
</svg>
