<svg width="24" height="24" viewBox="0 0 24 24" fill="none" xmlns="http://www.w3.org/2000/svg">
<g clip-path="url(#clip0_6001_37444)">
<path d="M9.30039 3.8999H4.80039C4.30333 3.8999 3.90039 4.30285 3.90039 4.7999V11.0999C3.90039 11.597 4.30333 11.9999 4.80039 11.9999H9.30039C9.79745 11.9999 10.2004 11.597 10.2004 11.0999V4.7999C10.2004 4.30285 9.79745 3.8999 9.30039 3.8999Z" stroke="#202020" stroke-opacity="0.6" stroke-width="1.5" stroke-linecap="round" stroke-linejoin="round"/>
<path d="M19.1998 3.8999H14.6998C14.2027 3.8999 13.7998 4.30285 13.7998 4.7999V7.4999C13.7998 7.99696 14.2027 8.3999 14.6998 8.3999H19.1998C19.6969 8.3999 20.0998 7.99696 20.0998 7.4999V4.7999C20.0998 4.30285 19.6969 3.8999 19.1998 3.8999Z" stroke="#202020" stroke-opacity="0.6" stroke-width="1.5" stroke-linecap="round" stroke-linejoin="round"/>
<path d="M19.1998 12H14.6998C14.2027 12 13.7998 12.4029 13.7998 12.9V19.2C13.7998 19.6971 14.2027 20.1 14.6998 20.1H19.1998C19.6969 20.1 20.0998 19.6971 20.0998 19.2V12.9C20.0998 12.4029 19.6969 12 19.1998 12Z" stroke="#202020" stroke-opacity="0.6" stroke-width="1.5" stroke-linecap="round" stroke-linejoin="round"/>
<path d="M9.30039 15.6001H4.80039C4.30333 15.6001 3.90039 16.003 3.90039 16.5001V19.2001C3.90039 19.6972 4.30333 20.1001 4.80039 20.1001H9.30039C9.79745 20.1001 10.2004 19.6972 10.2004 19.2001V16.5001C10.2004 16.003 9.79745 15.6001 9.30039 15.6001Z" stroke="#202020" stroke-opacity="0.6" stroke-width="1.5" stroke-linecap="round" stroke-linejoin="round"/>
</g>
<defs>
<clipPath id="clip0_6001_37444">
<rect width="18" height="18" fill="white" transform="translate(3 3)"/>
</clipPath>
</defs>
</svg>
