<svg width="18" height="20" viewBox="0 0 18 20" fill="none" xmlns="http://www.w3.org/2000/svg">
<path d="M15.6338 4.03003L15.0834 12.935C14.9427 15.2102 14.8724 16.3478 14.3021 17.1656C14.0201 17.57 13.6571 17.9113 13.2361 18.1677C12.3847 18.6865 11.2449 18.6865 8.96538 18.6865C6.68286 18.6865 5.5416 18.6865 4.68953 18.1668C4.26827 17.9098 3.90514 17.5679 3.62328 17.1629C3.05318 16.3437 2.98441 15.2045 2.84687 12.9262L2.30981 4.03003" stroke="#F61B0D" stroke-width="1.3324" stroke-linecap="round"/>
<path d="M0.977295 4.03008H16.9661M12.5743 4.03008L11.9679 2.77916C11.5651 1.94821 11.3637 1.53273 11.0162 1.27361C10.9392 1.21614 10.8576 1.16501 10.7722 1.12074C10.3875 0.921143 9.92581 0.921143 9.00238 0.921143C8.05575 0.921143 7.58244 0.921143 7.19134 1.1291C7.10466 1.17519 7.02195 1.22839 6.94405 1.28815C6.59261 1.55776 6.39629 1.98844 6.00365 2.8498L5.46565 4.03008" stroke="#F61B0D" stroke-width="1.3324" stroke-linecap="round"/>
<path d="M6.75098 13.801L6.75098 8.47142" stroke="#F61B0D" stroke-width="1.3324" stroke-linecap="round"/>
<path d="M11.1924 13.801L11.1924 8.47144" stroke="#F61B0D" stroke-width="1.3324" stroke-linecap="round"/>
</svg>
