<svg width="22" height="22" viewBox="0 0 22 22" fill="none" xmlns="http://www.w3.org/2000/svg">
<path d="M8.039 15.9113C7.95018 15.9113 7.87023 15.8935 7.78141 15.858C7.53269 15.7603 7.3728 15.5116 7.3728 15.2451L7.3728 9.91547C7.3728 9.55128 7.67481 9.24927 8.039 9.24927C8.40319 9.24927 8.7052 9.55128 8.7052 9.91547V13.6373L9.34476 12.9978C9.60236 12.7402 10.0287 12.7402 10.2863 12.9978C10.5439 13.2554 10.5439 13.6817 10.2863 13.9393L8.50979 15.7159C8.38543 15.8402 8.20777 15.9113 8.039 15.9113Z" fill="#292D32"/>
<path d="M8.03915 15.9112C7.87038 15.9112 7.70161 15.849 7.56837 15.7157L5.79183 13.9392C5.53423 13.6816 5.53423 13.2552 5.79183 12.9976C6.04943 12.74 6.4758 12.74 6.7334 12.9976L8.50993 14.7742C8.76753 15.0318 8.76753 15.4581 8.50993 15.7157C8.37669 15.849 8.20792 15.9112 8.03915 15.9112Z" fill="#292D32"/>
<path d="M13.3687 20.3526L8.03911 20.3526C3.21581 20.3526 1.15503 18.2919 1.15503 13.4686L1.15503 8.13896C1.15503 3.31566 3.21581 1.25488 8.03911 1.25488L12.4804 1.25488C12.8446 1.25488 13.1466 1.55689 13.1466 1.92108C13.1466 2.28527 12.8446 2.58728 12.4804 2.58728L8.03911 2.58728C3.94419 2.58728 2.48743 4.04404 2.48743 8.13896L2.48743 13.4686C2.48743 17.5635 3.94419 19.0202 8.03911 19.0202L13.3687 19.0202C17.4636 19.0202 18.9204 17.5635 18.9204 13.4686L18.9204 9.02723C18.9204 8.66304 19.2224 8.36103 19.5866 8.36103C19.9508 8.36103 20.2528 8.66304 20.2528 9.02723L20.2528 13.4686C20.2528 18.2919 18.192 20.3526 13.3687 20.3526Z" fill="#292D32"/>
<path d="M19.5866 9.69334L16.0335 9.69334C12.9956 9.69334 11.8142 8.51194 11.8142 5.47407V1.92099C11.8142 1.65451 11.9741 1.4058 12.2228 1.30809C12.4715 1.2015 12.7558 1.26368 12.9512 1.45021L20.0573 8.55636C20.2439 8.74289 20.3061 9.03602 20.1995 9.28474C20.0929 9.53345 19.853 9.69334 19.5866 9.69334ZM13.1466 3.52876V5.47407C13.1466 7.7658 13.7418 8.36094 16.0335 8.36094H17.9788L13.1466 3.52876Z" fill="#292D32"/>
</svg>
