<svg width="16" height="17" viewBox="0 0 16 17" fill="none" xmlns="http://www.w3.org/2000/svg">
<path d="M10.0001 1.83325H4.00008C3.64646 1.83325 3.30732 1.97373 3.05727 2.22378C2.80722 2.47382 2.66675 2.81296 2.66675 3.16659V13.8333C2.66675 14.1869 2.80722 14.526 3.05727 14.7761C3.30732 15.0261 3.64646 15.1666 4.00008 15.1666H12.0001C12.3537 15.1666 12.6928 15.0261 12.9429 14.7761C13.1929 14.526 13.3334 14.1869 13.3334 13.8333V5.16659L10.0001 1.83325Z" stroke="#202403" stroke-opacity="0.85" stroke-linecap="round" stroke-linejoin="round"/>
<path d="M9.3335 1.83325V4.49992C9.3335 4.85354 9.47397 5.19268 9.72402 5.44273C9.97407 5.69278 10.3132 5.83325 10.6668 5.83325H13.3335" stroke="#202403" stroke-opacity="0.85" stroke-linecap="round" stroke-linejoin="round"/>
<path d="M6.66683 6.5H5.3335" stroke="#202403" stroke-opacity="0.85" stroke-linecap="round" stroke-linejoin="round"/>
<path d="M10.6668 9.1665H5.3335" stroke="#202403" stroke-opacity="0.85" stroke-linecap="round" stroke-linejoin="round"/>
<path d="M10.6668 11.8333H5.3335" stroke="#202403" stroke-opacity="0.85" stroke-linecap="round" stroke-linejoin="round"/>
</svg>
