<svg width="16" height="15" viewBox="0 0 16 15" fill="none" xmlns="http://www.w3.org/2000/svg">
<path d="M8 4.83398L12 2.83398L8 0.833984V7.50065" stroke="#202403" stroke-opacity="0.6" stroke-linecap="round" stroke-linejoin="round"/>
<path d="M5.33325 7.49396L1.66658 9.58729C1.56398 9.64544 1.47864 9.72976 1.41927 9.83165C1.3599 9.93354 1.32861 10.0494 1.32861 10.1673C1.32861 10.2852 1.3599 10.401 1.41927 10.5029C1.47864 10.6048 1.56398 10.6891 1.66658 10.7473L7.33325 13.9873C7.53594 14.1043 7.76586 14.1659 7.99991 14.1659C8.23396 14.1659 8.46389 14.1043 8.66658 13.9873L14.3332 10.7473C14.4358 10.6891 14.5212 10.6048 14.5806 10.5029C14.6399 10.401 14.6712 10.2852 14.6712 10.1673C14.6712 10.0494 14.6399 9.93354 14.5806 9.83165C14.5212 9.72976 14.4358 9.64544 14.3332 9.58729L10.6666 7.50062" stroke="#202403" stroke-opacity="0.6" stroke-linecap="round" stroke-linejoin="round"/>
<path d="M4.32666 8.06732L11.6733 12.2673" stroke="#202403" stroke-opacity="0.6" stroke-linecap="round" stroke-linejoin="round"/>
<path d="M11.673 8.06732L4.33301 12.2673" stroke="#202403" stroke-opacity="0.6" stroke-linecap="round" stroke-linejoin="round"/>
</svg>
