<svg width="39" height="38" viewBox="0 0 39 38" fill="none" xmlns="http://www.w3.org/2000/svg">
    <path
        d="M1.70899 13.1049C-0.441364 20.3208 1.94805 28.1119 7.76639 32.8883C9.10043 33.9783 9.94316 34.5023 11.7641 35.3406C13.6093 36.1901 14.3472 36.4328 16.1314 36.7783C20.5575 37.6216 25.1722 36.8037 29.1516 34.46C30.9469 33.4026 32.6099 31.9541 34.0405 30.2043C35.0788 28.9247 35.4988 28.2246 36.3657 26.3416C37.2142 24.4986 37.4915 23.6843 37.7728 22.1823C38.0602 20.6249 38.1163 19.9515 38.0951 18.3006C38.0644 16.1403 37.7014 14.2349 36.937 12.1834C34.6617 6.09581 29.3648 1.60805 23.0152 0.403609C21.9017 0.192015 21.7859 0.167827 21.3327 0.133996C21.0981 0.113371 20.7402 0.0845845 20.5335 0.0670737C20.0004 0.0158821 18.4278 0.0590628 17.5702 0.140078C14.828 0.411919 11.9319 1.39956 9.54495 2.8935C8.92413 3.28746 7.44397 4.40257 6.93294 4.87621C5.86827 5.85244 4.50111 7.48571 3.72621 8.70216C3.25625 9.4472 1.95101 12.3035 1.70899 13.1049ZM3.53378 11.7503C4.24178 11.1245 4.98404 10.5729 5.66796 10.1691C6.3945 9.73641 7.45198 9.24244 7.54867 9.28695C7.5809 9.30179 7.46887 9.5027 7.29005 9.72142C7.1156 9.95186 6.74388 10.4411 6.45905 10.8052C6.12189 11.2618 5.73872 11.6486 5.29778 11.97C4.9384 12.2416 4.25856 12.7638 3.77569 13.1338C2.81363 13.866 2.71665 13.9281 2.6686 13.7992C2.63433 13.7251 2.9182 12.6419 3.06372 12.2622C3.08887 12.1864 3.30293 11.9548 3.53378 11.7503ZM4.65185 9.21573C5.46499 7.95861 6.13766 7.11267 7.11874 6.1271C7.68209 5.56101 7.79519 5.50626 7.73489 5.8281C7.67393 6.13021 7.70159 7.27916 7.77633 7.83797L7.83457 8.26295L7.15463 8.552C6.27131 8.92222 5.2085 9.49142 4.5538 9.93776C4.26722 10.136 4.02258 10.2856 3.99841 10.2744C3.98229 10.267 4.03763 10.1468 4.12821 10.0137C4.21509 9.88865 4.45226 9.52199 4.65185 9.21573ZM9.18002 4.3861C9.97296 3.80918 10.5283 3.4725 10.6089 3.50959C10.6492 3.52814 10.6445 3.62311 10.5966 3.72727C10.5007 3.93561 10.4019 4.63791 10.3998 5.15162C10.3982 5.45195 10.3459 5.54439 9.80848 6.2875C8.65042 7.8908 8.6011 7.95549 8.55975 7.79079C8.45889 7.39475 8.48483 5.15369 8.59483 4.89358C8.62803 4.82146 8.88975 4.59236 9.18002 4.3861ZM7.58817 9.85868C7.78408 9.56042 7.97766 9.30965 8.02464 9.29244C8.06357 9.27152 8.22384 9.66578 8.36402 10.1673C8.95094 12.2438 10.1418 15.2781 11.0756 17.0677C11.25 17.4101 11.3592 17.7032 11.3122 17.7204C11.2374 17.7345 10.6801 17.6722 9.30183 17.4843C9.15446 17.465 8.96244 17.4155 8.87381 17.3747C8.63208 17.2634 8.02633 15.9065 7.25914 13.7762L6.56621 11.8451L6.90191 11.1159C7.08637 10.7153 7.39596 10.1489 7.58817 9.85868ZM9.33201 7.53453C9.60209 7.20244 10.1926 6.61974 10.605 6.27548L10.9828 5.96388L13.0659 5.89354C14.2065 5.85541 15.6375 5.84413 16.2329 5.8658L17.3168 5.90839L17.5338 6.22192C17.7843 6.58977 18.4807 7.8135 18.4585 7.86157C18.4512 7.8776 18.1447 7.84332 17.7818 7.78308C16.4908 7.59656 15.0366 7.50975 13.5748 7.54566C11.8475 7.58557 11.3494 7.62816 10.1072 7.82343C8.83341 8.0236 8.86496 8.01871 9.02233 7.8678C9.09951 7.80622 9.24076 7.6479 9.33201 7.53453ZM2.91461 22.7885C3.12614 22.9441 3.88626 23.3718 4.61211 23.7254L5.91509 24.3738L6.26272 24.9126C6.45115 25.2033 6.83606 25.7884 7.11952 26.1908C7.44531 26.671 7.58539 26.9394 7.50249 26.9498C7.26115 26.9649 6.13048 26.5997 5.42949 26.277C5.04273 26.0989 4.39172 25.7312 3.97371 25.4514C3.30824 25.0091 3.20145 24.9016 3.05933 24.574C2.83858 24.0354 2.41437 22.5387 2.47679 22.5092C2.50834 22.5043 2.70677 22.6248 2.91461 22.7885ZM9.33754 8.73155C10.8227 8.45392 13.0565 8.26844 14.6435 8.2999C15.7069 8.32335 17.6881 8.51684 17.9218 8.62442C17.954 8.63926 17.6339 9.0163 17.2249 9.45923C15.494 11.3523 13.8207 13.6507 12.4558 16.0425C12.1942 16.5047 11.9496 16.8874 11.9144 16.9003C11.758 16.9642 10.329 13.5775 9.58768 11.391C9.11114 9.98688 8.79283 8.91777 8.82234 8.85367C8.82972 8.83764 9.05795 8.78734 9.33754 8.73155ZM4.57238 26.7176C5.11795 27.0173 5.67256 27.2338 6.49035 27.4938C7.12349 27.6881 7.66062 27.8577 7.67305 27.8732C7.68547 27.8886 7.64974 28.348 7.6013 28.8987C7.54479 29.4456 7.50683 30.1856 7.51469 30.5291C7.52692 30.8844 7.52905 31.1767 7.52167 31.1927C7.4442 31.361 5.95688 29.7342 5.14813 28.585C4.81865 28.1128 3.78343 26.3737 3.80556 26.3257C3.80925 26.3177 4.1564 26.4969 4.57238 26.7176ZM8.82711 18.0912C9.01505 18.0224 11.2096 17.9645 11.3466 18.0276C11.3869 18.0461 11.3306 18.2532 11.2273 18.4776C10.6377 19.7794 8.74453 24.6762 8.19806 26.3086C8.06865 26.6957 7.97944 26.8683 7.92303 26.8424C7.78606 26.7793 7.13234 25.5266 6.79063 24.6992C6.50436 23.9848 6.49863 23.9336 6.64513 23.4669C6.73094 23.1956 6.92171 22.6328 7.05413 22.2179C7.19024 21.795 7.59797 20.7397 7.96047 19.8675C8.32297 18.9953 8.62644 18.2513 8.63314 18.2156C8.63984 18.1798 8.72508 18.1219 8.82711 18.0912ZM11.9552 18.8904C11.9793 18.9015 12.2786 19.4181 12.629 20.0358C13.8624 22.2352 15.6476 24.9119 17.1028 26.7569C17.3718 27.0847 17.5689 27.3988 17.5468 27.4469C17.4951 27.5591 14.3067 27.6546 12.7344 27.5911C11.4797 27.5378 8.75431 27.2639 8.7281 27.1936C8.70189 27.1232 9.63367 24.5903 10.9048 21.3202C11.3739 20.0892 11.9068 18.8682 11.9552 18.8904ZM13.5634 15.7366C14.8991 13.5354 15.5721 12.5827 17.012 10.8762C17.5301 10.2601 18.754 8.95903 18.848 8.9246C18.9339 8.88647 19.4373 10.3807 19.6075 11.1777L19.6893 11.594L19.2431 12.2238C18.9935 12.575 18.6533 13.0593 18.4832 13.3015C18.3132 13.5437 18.0106 13.9676 17.8103 14.2541C17.6056 14.5289 17.292 14.9769 17.1108 15.2431C16.7478 15.7558 16.1618 16.5833 15.7112 17.2014C15.4499 17.5569 15.3838 17.5944 14.8944 17.6605C14.3815 17.7351 12.5683 17.8131 12.4797 17.7723C12.3991 17.7352 12.764 17.0487 13.5634 15.7366ZM18.6833 5.06141C19.4514 4.45362 20.8188 3.51969 21.6004 3.0735C22.1293 2.77317 22.2276 2.75046 22.757 2.80967C23.4975 2.89811 24.0128 3.0091 24.6423 3.21149L25.1354 3.37057L24.8834 3.53616C24.7438 3.62727 24.4367 3.80637 24.2075 3.94363C23.1152 4.57693 21.3464 5.83108 19.8646 7.01341C19.2972 7.46109 18.8106 7.83917 18.7871 7.84777C18.7093 7.88962 17.9508 5.7827 18.0025 5.67052C18.0283 5.61444 18.3363 5.34838 18.6833 5.06141ZM13.3955 18.1163C13.8128 18.1433 14.4411 18.1995 14.807 18.232L15.4596 18.2994L16.3396 19.6757C16.8253 20.4237 17.7566 21.7945 18.4105 22.7073C19.0644 23.6202 19.6022 24.3824 19.6065 24.3942C19.6284 24.4528 18.6101 27.2372 18.5631 27.2544C18.5044 27.2759 16.754 25.0328 16.0161 23.9842C14.6068 21.9758 12.362 18.1552 12.558 18.09C12.605 18.0728 12.982 18.0813 13.3955 18.1163ZM8.598 28.367C8.66751 28.4281 9.02116 28.9114 9.38792 29.4299C9.86282 30.0952 10.0577 30.4569 10.0477 30.6271C10.0164 31.3313 10.0738 32.3094 10.1862 32.8079C10.2601 33.1138 10.2968 33.3735 10.2653 33.3784C10.2065 33.3999 9.25266 32.7568 8.74698 32.3492L8.36353 32.0367L8.31781 31.0543C8.28704 30.506 8.27676 29.9768 8.29316 29.8776C8.30957 29.7783 8.33996 29.3941 8.3754 29.0414C8.44355 28.2571 8.45394 28.2133 8.598 28.367ZM10.1497 28.1783C12.2789 28.4108 16.1505 28.4646 17.6384 28.266C18.1791 28.1944 18.198 28.2808 17.7596 29.0209C17.1038 30.1271 17.189 30.0693 16.2412 30.1767C14.3813 30.3984 11.4415 30.2297 10.668 29.8736C10.1157 29.6096 8.60393 28.0784 8.88856 28.0541C8.95972 28.048 9.5287 28.106 10.1497 28.1783ZM21.9934 1.24421C22.8504 1.37657 23.4605 1.70599 24.3735 2.54392L24.7173 2.8576L23.9479 2.61989C22.8457 2.27756 22.229 1.98391 21.7834 1.59425C21.5749 1.41085 21.414 1.22997 21.4251 1.20593C21.4362 1.18189 21.6906 1.20192 21.9934 1.24421ZM20.2632 9.03233C22.0692 9.43653 23.5276 9.87486 25.3599 10.5825C27.152 11.2716 29.2862 12.3416 29.2124 12.5019C29.1682 12.598 27.9292 13.4649 27.548 13.6778C27.4158 13.7529 27.2362 13.7188 26.8061 13.5499C24.809 12.7761 22.5258 11.9871 21.3935 11.6892C20.4569 11.4328 20.3185 11.3302 19.9809 10.6212C19.4538 9.47541 19.236 8.90902 19.33 8.8746C19.385 8.86109 19.7999 8.93558 20.2632 9.03233ZM22.1851 6.23661C23.5166 5.29586 23.6797 5.19614 24.6811 4.56952C25.1939 4.26176 25.6294 4.0156 25.6536 4.02673C25.7906 4.08979 26.6572 5.53758 27.1678 6.54956C27.7645 7.75652 28.5668 9.64086 28.8437 10.5453L29.1419 11.4885L28.1971 10.9953C26.7155 10.2258 23.2969 8.93351 21.9585 8.63778C21.7628 8.59623 21.271 8.47663 20.8591 8.37439C20.4472 8.27216 20.0272 8.16621 19.9077 8.15004C19.7201 8.1122 19.762 8.06353 20.4992 7.48038C20.9314 7.13553 21.6891 6.57152 22.1851 6.23661ZM26.1736 2.4307L26.8944 2.75284L26.451 2.88861C26.2117 2.96295 25.9587 2.98239 25.9053 2.92868C25.8482 2.88297 25.6104 2.65699 25.3764 2.42298C24.9865 2.03956 24.9697 2.0124 25.2014 2.06077C25.337 2.08437 25.7751 2.25694 26.1736 2.4307ZM27.4835 3.50961C28.0249 3.45782 28.2756 3.48586 28.5576 3.6157C28.896 3.7715 29.956 4.5023 29.9917 4.61581C30.0004 4.63926 29.8309 4.66804 29.613 4.67457C29.2844 4.68837 28.984 4.5986 27.9745 4.18238C27.2909 3.90653 26.743 3.65428 26.7541 3.63024C26.7652 3.6062 27.0924 3.55293 27.4835 3.50961ZM28.063 4.7961C28.6882 5.21989 28.8074 5.34275 29.1315 5.89014C29.6673 6.8263 30.3308 8.24857 30.818 9.50227L31.2535 10.635L30.8975 11.0053C30.6982 11.2048 30.4415 11.4654 30.3187 11.5837L30.104 11.7956L29.3207 9.65778C28.5556 7.58662 27.8272 6.00826 27.016 4.67339L26.6254 4.03711L26.991 4.1763C27.1917 4.2493 27.6772 4.53109 28.063 4.7961ZM18.9162 28.7571C20.3053 30.0668 22.2968 31.5954 24.177 32.7718C24.5702 33.0208 24.9157 33.2673 24.9331 33.3142C24.9886 33.4271 23.7433 33.6501 22.8015 33.702C22.0019 33.7418 22.0745 33.7752 20.7334 32.8276C19.888 32.2247 18.9616 31.4583 18.2111 30.734L17.7231 30.2666L17.8747 29.8314C17.9538 29.5959 18.05 29.2809 18.101 29.149C18.1476 29.0054 18.2341 28.7538 18.2998 28.5899L18.4282 28.2897L18.9162 28.7571ZM20.6263 24.5335C20.8656 24.4592 21.5167 24.2539 22.0819 24.0869C22.6391 23.9161 24.0339 23.4317 25.1887 23.002L27.2833 22.228L27.6983 22.5356C28.3292 23.0106 29.448 23.953 29.4867 24.0388C29.5552 24.1869 27.1647 25.349 25.6223 25.9207C23.5394 26.6904 21.5528 27.1451 19.462 27.3381L18.8099 27.3972L19.4964 26.0332L20.183 24.6693L20.6263 24.5335ZM21.1423 27.8883C21.8679 27.7757 22.9665 27.5531 23.5756 27.3966C24.943 27.0356 27.3775 26.1171 28.48 25.5467C29.2475 25.1523 29.3062 25.1307 29.2895 25.3367C29.2818 25.4594 29.0126 26.2775 28.6941 27.1602C28.1583 28.6421 28.047 28.8628 27.2658 30.2414C26.3004 31.914 25.8304 32.659 25.6777 32.715C25.4076 32.814 22.1289 30.5178 20.3882 29.0172C19.4114 28.1694 19.3785 28.1348 19.6315 28.1154C19.7342 28.1044 20.4166 28.0009 21.1423 27.8883ZM28.3355 13.749C28.6231 13.4638 28.9952 13.101 29.1723 12.9495L29.476 12.6718L29.6545 13.3658C30.2691 15.7852 30.444 18.3324 30.194 20.9752C30.1041 21.9341 29.7678 23.6827 29.6701 23.7251C29.5997 23.7509 28.8448 23.0149 28.2182 22.3186L27.6778 21.7105L27.7583 19.9024C27.8439 18.1258 27.8627 14.9881 27.7971 14.5791C27.7524 14.3157 27.7222 14.3601 28.3355 13.749ZM30.8548 11.6071C31.6337 11.082 31.5581 11.0763 32.3596 11.6687C33.8447 12.77 35.4835 14.5344 35.757 15.3402C35.9026 15.7665 36.2141 17.4443 36.1698 17.5404C36.1587 17.5645 35.7463 17.1027 35.25 16.5051C33.9883 14.9823 32.122 13.2879 30.7931 12.4624C30.1568 12.0627 30.1494 12.0787 30.8548 11.6071ZM21.4862 34.8833C21.9932 34.5244 22.4469 34.3448 23.4105 34.1184C23.7093 34.0423 24.11 33.9354 24.3023 33.8783C24.4866 33.8175 24.648 33.785 24.6567 33.8084C24.6749 33.8751 23.2834 35.031 22.6176 35.5014C22.0216 35.9262 21.9746 35.9434 20.7247 36.0283C19.4314 36.1223 19.4233 36.1186 20.2519 35.6552C20.6603 35.4257 21.2113 35.0773 21.4862 34.8833ZM31.2172 13.7259C32.7338 14.8223 34.6251 16.7807 35.7727 18.4453C35.8685 18.5767 35.8309 18.6371 35.3105 19.3007C34.1138 20.8182 33.1381 21.7286 31.3884 22.9624C30.6294 23.4869 30.4693 23.5589 30.5984 23.2785C30.7158 23.0023 30.9655 21.2722 31.0627 20.0642C31.1869 18.3733 30.9278 15.2241 30.5368 13.6554C30.4779 13.4438 30.4799 13.2699 30.5239 13.2804C30.5715 13.283 30.8797 13.4831 31.2172 13.7259ZM24.5273 35.0016C24.8008 34.7682 25.1927 34.4048 25.392 34.2052C25.5913 34.0056 25.7913 33.8258 25.8383 33.8086C25.8735 33.7957 26.2804 33.8664 26.7238 33.9638L27.547 34.1485L27.2943 34.2944C26.6486 34.6575 23.9308 35.6398 24.0046 35.4795C24.0156 35.4555 24.2502 35.243 24.5273 35.0016ZM27.2355 31.8978C27.569 31.4493 29.5732 27.2445 29.7532 26.599C30.1243 25.284 30.2604 24.8611 30.3191 24.8396C30.3543 24.8267 30.5555 25.0261 30.7624 25.2768C31.0146 25.5774 31.1459 25.8224 31.1433 25.9765C31.1363 26.119 30.6424 27.3191 29.9324 28.9248L28.7214 31.6399L28.116 32.0216C27.7744 32.2333 27.2999 32.5004 27.0502 32.6185L26.6052 32.8215L26.782 32.5436C26.8836 32.3865 27.0876 32.0919 27.2355 31.8978ZM32.7432 22.9258C33.8713 22.0662 34.681 21.2833 35.8663 19.8965L36.1371 19.5841L36.0537 20.041C36.0068 20.2913 35.8828 20.8363 35.7782 21.2543L35.5862 22.0108L35.1111 22.4913C34.2676 23.3265 33.9559 23.6006 32.9599 24.3851C31.6237 25.4208 31.6862 25.3913 31.2322 25.1046C31.0294 24.9724 30.7652 24.7828 30.6584 24.6754L30.4455 24.4802L31.1831 24.0235C31.5828 23.7705 32.2875 23.2792 32.7432 22.9258ZM28.0807 32.6074C28.9493 32.2692 29.1423 32.2318 29.6636 32.2873C29.9862 32.329 30.2574 32.3762 30.2742 32.4034C30.3054 32.5052 28.8316 33.4581 28.6137 33.4646C28.4003 33.4829 26.9414 33.2579 26.7765 33.1917C26.696 33.1546 26.6805 33.167 28.0807 32.6074ZM36.5697 14.5296C36.5952 14.5802 36.6779 14.9096 36.7422 15.279C36.8428 15.7818 36.8331 16.0784 36.7219 16.5322C36.6418 16.8546 36.5523 17.1339 36.517 17.1468C36.4664 17.172 36.3823 15.191 36.4208 14.8106C36.4405 14.5769 36.5112 14.4444 36.5697 14.5296ZM37.0069 18.2463C37.0582 18.2408 37.0959 18.4135 37.0879 18.6429C37.0837 18.8643 37.0794 19.0857 37.0814 19.1449C37.0791 19.1924 37.0082 19.0918 36.9192 18.9246C36.766 18.621 36.8132 18.2639 37.0069 18.2463ZM36.6754 20.3661C36.9238 21.0146 36.9228 21.1015 36.7098 22.2853C36.6733 22.4919 36.6103 22.7348 36.566 22.8309C36.4996 22.9752 36.4748 22.9443 36.3591 22.5803C36.2741 22.2984 36.2541 21.8328 36.3099 21.2661C36.3567 20.7826 36.3978 20.248 36.4004 20.0938C36.4067 19.9316 36.4137 19.7892 36.4167 19.7614C36.4241 19.7454 36.5444 20.0144 36.6754 20.3661Z"
        fill="currentColor" />
</svg>