<svg width="51" height="38" viewBox="0 0 51 38" fill="none" xmlns="http://www.w3.org/2000/svg">
<g clip-path="url(#clip0_2081_54235)">
<rect width="37.4442" height="50.4386" transform="translate(0 37.7217) rotate(-90)" fill="#10A010"/>
<line x1="25.1949" y1="37.7227" x2="25.1949" y2="0.221443" stroke="white" stroke-width="0.149211"/>
<circle cx="25.2737" cy="18.9627" r="3.43186" transform="rotate(-90 25.2737 18.9627)" stroke="white" stroke-width="0.149211"/>
<ellipse cx="46.0304" cy="18.9597" rx="3.43186" ry="1.71593" transform="rotate(-90 46.0304 18.9597)" fill="#10A010" stroke="white" stroke-width="0.149211"/>
<mask id="path-4-inside-1_2081_54235" fill="white">
<path d="M50.4316 25.8242L50.4316 12.0968L45.6569 12.0968L45.6569 25.8242L50.4316 25.8242Z"/>
</mask>
<path d="M50.4316 25.8242L50.4316 12.0968L45.6569 12.0968L45.6569 25.8242L50.4316 25.8242Z" fill="#10A010"/>
<path d="M45.6569 12.0968L45.5077 12.0968L45.5077 11.9476L45.6569 11.9476L45.6569 12.0968ZM45.6569 25.8242L45.6569 25.9734L45.5077 25.9734L45.5077 25.8242L45.6569 25.8242ZM50.4316 12.246L45.6569 12.246L45.6569 11.9476L50.4316 11.9476L50.4316 12.246ZM45.8061 12.0968L45.8061 25.8242L45.5077 25.8242L45.5077 12.0968L45.8061 12.0968ZM45.6569 25.675L50.4316 25.675L50.4316 25.9734L45.6569 25.9734L45.6569 25.675Z" fill="white" mask="url(#path-4-inside-1_2081_54235)"/>
<mask id="path-6-inside-2_2081_54235" fill="white">
<path d="M50.4316 22.3916L50.4316 15.5279L48.6411 15.5279L48.6411 22.3916L50.4316 22.3916Z"/>
</mask>
<path d="M50.4316 22.3916L50.4316 15.5279L48.6411 15.5279L48.6411 22.3916L50.4316 22.3916Z" fill="#10A010"/>
<path d="M48.6411 15.5279L48.4919 15.5279L48.4919 15.3787L48.6411 15.3787L48.6411 15.5279ZM48.6411 22.3916L48.6411 22.5408L48.4919 22.5408L48.4919 22.3916L48.6411 22.3916ZM50.4316 15.6771L48.6411 15.6771L48.6411 15.3787L50.4316 15.3787L50.4316 15.6771ZM48.7903 15.5279L48.7903 22.3916L48.4919 22.3916L48.4919 15.5279L48.7903 15.5279ZM48.6411 22.2424L50.4316 22.2424L50.4316 22.5408L48.6411 22.5408L48.6411 22.2424Z" fill="white" mask="url(#path-6-inside-2_2081_54235)"/>
<ellipse cx="3.43186" cy="1.71593" rx="3.43186" ry="1.71593" transform="matrix(-4.37114e-08 -1 -1 4.37114e-08 6.11719 22.3916)" stroke="white" stroke-width="0.149211"/>
<mask id="path-9-inside-3_2081_54235" fill="white">
<path d="M0 25.8242L-6.00045e-07 12.0968L4.77476 12.0968L4.77476 25.8242L0 25.8242Z"/>
</mask>
<path d="M0 25.8242L-6.00045e-07 12.0968L4.77476 12.0968L4.77476 25.8242L0 25.8242Z" fill="#10A010"/>
<path d="M4.77476 12.0968L4.92397 12.0968L4.92397 11.9476L4.77476 11.9476L4.77476 12.0968ZM4.77476 25.8242L4.77476 25.9734L4.92397 25.9734L4.92397 25.8242L4.77476 25.8242ZM-5.93523e-07 12.246L4.77476 12.246L4.77476 11.9476L-6.06568e-07 11.9476L-5.93523e-07 12.246ZM4.62555 12.0968L4.62555 25.8242L4.92397 25.8242L4.92397 12.0968L4.62555 12.0968ZM4.77476 25.675L-6.52223e-09 25.675L6.52223e-09 25.9734L4.77476 25.9734L4.77476 25.675Z" fill="white" mask="url(#path-9-inside-3_2081_54235)"/>
<mask id="path-11-inside-4_2081_54235" fill="white">
<path d="M0 22.3916L-3.00023e-07 15.5279L1.79053 15.5279L1.79054 22.3916L0 22.3916Z"/>
</mask>
<path d="M1.79053 15.5279L1.93975 15.5279L1.93975 15.3787L1.79053 15.3787L1.79053 15.5279ZM1.79054 22.3916L1.79054 22.5408L1.93975 22.5408L1.93975 22.3916L1.79054 22.3916ZM-2.935e-07 15.6771L1.79053 15.6771L1.79053 15.3787L-3.06545e-07 15.3787L-2.935e-07 15.6771ZM1.64132 15.5279L1.64132 22.3916L1.93975 22.3916L1.93975 15.5279L1.64132 15.5279ZM1.79054 22.2424L-6.52223e-09 22.2424L6.52223e-09 22.5408L1.79054 22.5408L1.79054 22.2424Z" fill="white" mask="url(#path-11-inside-4_2081_54235)"/>
</g>
<defs>
<clipPath id="clip0_2081_54235">
<rect width="37.4442" height="50.4386" fill="white" transform="translate(0 37.7217) rotate(-90)"/>
</clipPath>
</defs>
</svg>
