<svg width="18" height="18" viewBox="0 0 18 18" fill="none" xmlns="http://www.w3.org/2000/svg">
<path d="M9 17.0625C4.5525 17.0625 0.9375 13.4475 0.9375 9C0.9375 4.5525 4.5525 0.9375 9 0.9375C13.4475 0.9375 17.0625 4.5525 17.0625 9C17.0625 13.4475 13.4475 17.0625 9 17.0625ZM9 2.0625C5.175 2.0625 2.0625 5.175 2.0625 9C2.0625 12.825 5.175 15.9375 9 15.9375C12.825 15.9375 15.9375 12.825 15.9375 9C15.9375 5.175 12.825 2.0625 9 2.0625Z" fill="#c0d330"/>
<path d="M6.74999 16.3125H5.99999C5.69249 16.3125 5.43749 16.0575 5.43749 15.75C5.43749 15.4425 5.67749 15.195 5.98499 15.1875C4.80749 11.1675 4.80749 6.8325 5.98499 2.8125C5.67749 2.805 5.43749 2.5575 5.43749 2.25C5.43749 1.9425 5.69249 1.6875 5.99999 1.6875H6.74999C6.92999 1.6875 7.10249 1.7775 7.20749 1.92C7.31249 2.07 7.34249 2.2575 7.28249 2.43C5.87249 6.6675 5.87249 11.3325 7.28249 15.5775C7.34249 15.75 7.31249 15.9375 7.20749 16.0875C7.10249 16.2225 6.92999 16.3125 6.74999 16.3125Z" fill="#c0d330"/>
<path d="M11.25 16.3125C11.19 16.3125 11.13 16.305 11.07 16.2825C10.7775 16.185 10.6125 15.8625 10.7175 15.57C12.1275 11.3325 12.1275 6.66751 10.7175 2.42251C10.62 2.13001 10.7775 1.80751 11.07 1.71001C11.37 1.61251 11.685 1.77001 11.7825 2.06251C13.275 6.53251 13.275 11.4525 11.7825 15.915C11.7075 16.1625 11.4825 16.3125 11.25 16.3125Z" fill="#c0d330"/>
<path d="M9 12.9C6.9075 12.9 4.8225 12.6075 2.8125 12.015C2.805 12.315 2.5575 12.5625 2.25 12.5625C1.9425 12.5625 1.6875 12.3075 1.6875 12V11.25C1.6875 11.07 1.7775 10.8975 1.92 10.7925C2.07 10.6875 2.2575 10.6575 2.43 10.7175C6.6675 12.1275 11.34 12.1275 15.5775 10.7175C15.75 10.6575 15.9375 10.6875 16.0875 10.7925C16.2375 10.8975 16.32 11.07 16.32 11.25V12C16.32 12.3075 16.065 12.5625 15.7575 12.5625C15.45 12.5625 15.2025 12.3225 15.195 12.015C13.1775 12.6075 11.0925 12.9 9 12.9Z" fill="#c0d330"/>
<path d="M15.75 7.31252C15.69 7.31252 15.63 7.30502 15.57 7.28252C11.3325 5.87252 6.66002 5.87252 2.42252 7.28252C2.12252 7.38002 1.80752 7.22252 1.71002 6.93002C1.62002 6.63002 1.77752 6.31502 2.07002 6.21752C6.54002 4.72502 11.46 4.72502 15.9225 6.21752C16.215 6.31502 16.38 6.63752 16.275 6.93002C16.2075 7.16252 15.9825 7.31252 15.75 7.31252Z" fill="#c0d330"/>
</svg>
