<svg width="25" height="24" viewBox="0 0 25 24" fill="none" xmlns="http://www.w3.org/2000/svg">
<path d="M15.3844 5.15106C15.4975 5.26431 15.6388 5.34533 15.7937 5.38578C15.9486 5.42623 16.1115 5.42463 16.2655 5.38117C16.4196 5.3377 16.5592 5.25393 16.6701 5.1385C16.781 5.02306 16.8591 4.88014 16.8964 4.72446C16.9898 4.33558 17.1852 3.97862 17.4625 3.69035C17.7397 3.40209 18.0888 3.19293 18.4737 3.08443C18.8587 2.97593 19.2656 2.972 19.6526 3.07304C20.0396 3.17409 20.3926 3.37646 20.6754 3.65932C20.9581 3.94217 21.1604 4.29529 21.2613 4.6823C21.3622 5.06931 21.3582 5.47623 21.2495 5.86115C21.1409 6.24606 20.9316 6.59507 20.6433 6.87222C20.3549 7.14937 19.9979 7.34465 19.609 7.43794C19.4533 7.4752 19.3104 7.5533 19.1949 7.6642C19.0795 7.77509 18.9957 7.91477 18.9523 8.06883C18.9088 8.22289 18.9072 8.38575 18.9477 8.54063C18.9881 8.69551 19.0691 8.8368 19.1824 8.94993L20.6971 10.4637C20.8988 10.6655 21.0589 10.905 21.1681 11.1686C21.2772 11.4322 21.3334 11.7147 21.3334 12C21.3334 12.2853 21.2772 12.5678 21.1681 12.8314C21.0589 13.095 20.8988 13.3345 20.6971 13.5363L19.1824 15.051C19.0692 15.1642 18.928 15.2452 18.7731 15.2857C18.6182 15.3261 18.4553 15.3245 18.3013 15.2811C18.1472 15.2376 18.0075 15.1538 17.8966 15.0384C17.7858 14.923 17.7077 14.7801 17.6704 14.6244C17.577 14.2355 17.3816 13.8785 17.1043 13.5903C16.8271 13.302 16.478 13.0928 16.0931 12.9843C15.7081 12.8758 15.3012 12.8719 14.9142 12.973C14.5272 13.074 14.1742 13.2764 13.8914 13.5592C13.6087 13.8421 13.4064 14.1952 13.3055 14.5822C13.2046 14.9692 13.2086 15.3761 13.3173 15.7611C13.4259 16.146 13.6352 16.495 13.9235 16.7721C14.2119 17.0493 14.5689 17.2446 14.9578 17.3379C15.1135 17.3751 15.2564 17.4532 15.3719 17.5641C15.4873 17.675 15.5711 17.8147 15.6145 17.9687C15.658 18.1228 15.6596 18.2857 15.6191 18.4405C15.5787 18.5954 15.4977 18.7367 15.3844 18.8498L13.8697 20.3636C13.668 20.5654 13.4285 20.7254 13.1649 20.8346C12.9013 20.9438 12.6188 21 12.3334 21C12.0481 21 11.7656 20.9438 11.502 20.8346C11.2384 20.7254 10.9989 20.5654 10.7972 20.3636L9.28247 18.8489C9.16934 18.7357 9.02805 18.6547 8.87317 18.6142C8.71829 18.5738 8.55543 18.5754 8.40137 18.6188C8.24731 18.6623 8.10763 18.7461 7.99674 18.8615C7.88584 18.9769 7.80774 19.1199 7.77048 19.2755C7.67706 19.6644 7.48166 20.0214 7.20442 20.3096C6.92717 20.5979 6.5781 20.8071 6.19314 20.9156C5.80819 21.0241 5.40127 21.028 5.01429 20.927C4.62732 20.8259 4.27427 20.6235 3.9915 20.3407C3.70874 20.0578 3.50649 19.7047 3.40557 19.3177C3.30465 18.9307 3.30872 18.5238 3.41735 18.1389C3.52598 17.7539 3.73525 17.4049 4.02361 17.1278C4.31196 16.8506 4.66899 16.6554 5.0579 16.5621C5.21358 16.5248 5.3565 16.4467 5.47194 16.3358C5.58737 16.2249 5.67114 16.0852 5.71461 15.9312C5.75807 15.7771 5.75967 15.6142 5.71922 15.4594C5.67877 15.3045 5.59775 15.1632 5.4845 15.0501L3.96981 13.5363C3.76806 13.3345 3.60802 13.095 3.49883 12.8314C3.38964 12.5678 3.33344 12.2853 3.33344 12C3.33344 11.7147 3.38964 11.4322 3.49883 11.1686C3.60802 10.905 3.76806 10.6655 3.96981 10.4637L5.4845 8.94903C5.59763 8.83578 5.73892 8.75476 5.8938 8.71431C6.04868 8.67386 6.21154 8.67545 6.3656 8.71892C6.51966 8.76239 6.65933 8.84616 6.77023 8.96159C6.88113 9.07702 6.95923 9.21995 6.99649 9.37562C7.08991 9.76451 7.28531 10.1215 7.56255 10.4097C7.8398 10.698 8.18887 10.9072 8.57383 11.0157C8.95878 11.1242 9.3657 11.1281 9.75268 11.027C10.1397 10.926 10.4927 10.7236 10.7755 10.4408C11.0582 10.1579 11.2605 9.8048 11.3614 9.41779C11.4623 9.03078 11.4583 8.62386 11.3496 8.23894C11.241 7.85402 11.0317 7.50502 10.7434 7.22787C10.455 6.95072 10.098 6.75544 9.70906 6.66215C9.55339 6.62489 9.41046 6.54679 9.29503 6.43589C9.1796 6.32499 9.09583 6.18532 9.05236 6.03126C9.00889 5.8772 9.0073 5.71434 9.04775 5.55946C9.0882 5.40458 9.16922 5.26329 9.28247 5.15016L10.7972 3.63637C10.9989 3.43462 11.2384 3.27458 11.502 3.16539C11.7656 3.0562 12.0481 3 12.3334 3C12.6188 3 12.9013 3.0562 13.1649 3.16539C13.4285 3.27458 13.668 3.43462 13.8697 3.63637L15.3844 5.15106Z" stroke="#C0D330" stroke-width="1.5" stroke-linecap="round" stroke-linejoin="round"/>
</svg>
