<svg width="56" height="56" viewBox="0 0 56 56" fill="none" xmlns="http://www.w3.org/2000/svg">
<path d="M39.7312 42.7375C39.6125 42.7375 39.4937 42.6937 39.4 42.6C39.2187 42.4187 39.2187 42.1187 39.4 41.9375L42.9375 38.4C43.1187 38.2187 43.4187 38.2187 43.6 38.4C43.7812 38.5812 43.7812 38.8812 43.6 39.0625L40.0625 42.6C39.975 42.6937 39.85 42.7375 39.7312 42.7375Z" fill="#FF3B30"/>
<path d="M43.2687 42.7375C43.15 42.7375 43.0312 42.6937 42.9375 42.6L39.4 39.0625C39.2187 38.8812 39.2187 38.5812 39.4 38.4C39.5812 38.2187 39.8812 38.2187 40.0625 38.4L43.6 41.9375C43.7812 42.1187 43.7812 42.4187 43.6 42.6C43.5062 42.6937 43.3875 42.7375 43.2687 42.7375Z" fill="#FF3B30"/>
<path opacity="0.4" d="M49.2104 50.1666C49.2104 50.82 48.6971 51.3333 48.0437 51.3333H7.95707C7.30374 51.3333 6.79041 50.82 6.79041 50.1666C6.79041 40.5066 16.3104 32.6666 28.0004 32.6666C30.4037 32.6666 32.7371 32.9932 34.8838 33.6232C33.5071 35.2566 32.6671 37.38 32.6671 39.6666C32.6671 41.4166 33.157 43.0733 34.0204 44.4733C34.487 45.2666 35.0937 45.9899 35.7937 46.5966C37.4271 48.0899 39.5971 49 42.0004 49C44.6137 49 46.9704 47.9266 48.6504 46.1999C49.0237 47.4599 49.2104 48.79 49.2104 50.1666Z" fill="#FF3B30"/>
<path d="M28 28C34.4434 28 39.6667 22.7766 39.6667 16.3333C39.6667 9.88997 34.4434 4.66663 28 4.66663C21.5567 4.66663 16.3334 9.88997 16.3334 16.3333C16.3334 22.7766 21.5567 28 28 28Z" fill="#FF3B30"/>
</svg>
