<svg width="18" height="6" viewBox="0 0 18 6" fill="none" xmlns="http://www.w3.org/2000/svg">
<g clip-path="url(#clip0_6494_36793)">
<path d="M0.399902 5C0.399902 4.44772 0.847618 4 1.3999 4H4.3999C4.95219 4 5.3999 4.44772 5.3999 5C5.3999 5.55228 4.95219 6 4.3999 6H1.3999C0.847618 6 0.399902 5.55228 0.399902 5Z" fill="#202403" fill-opacity="0.6"/>
<path d="M6.3999 5C6.3999 4.44772 6.84762 4 7.3999 4H10.3999C10.9522 4 11.3999 4.44772 11.3999 5C11.3999 5.55228 10.9522 6 10.3999 6H7.3999C6.84762 6 6.3999 5.55228 6.3999 5Z" fill="#202403" fill-opacity="0.6"/>
<path d="M12.3999 5C12.3999 4.44772 12.8476 4 13.3999 4H16.3999C16.9522 4 17.3999 4.44772 17.3999 5C17.3999 5.55228 16.9522 6 16.3999 6H13.3999C12.8476 6 12.3999 5.55228 12.3999 5Z" fill="#202403" fill-opacity="0.6"/>
</g>
<defs>
<clipPath id="clip0_6494_36793">
<rect width="17" height="6" fill="white" transform="translate(0.399902)"/>
</clipPath>
</defs>
</svg>
