<svg width="56" height="56" viewBox="0 0 56 56" fill="none" xmlns="http://www.w3.org/2000/svg">
<path d="M41.5 45.7598C38.466 45.7598 36 43.2937 36 40.2598C36 37.2258 38.466 34.7598 41.5 34.7598C44.534 34.7598 47 37.2258 47 40.2598C47 43.2937 44.534 45.7598 41.5 45.7598ZM41.5 35.5272C38.8907 35.5272 36.7674 37.6505 36.7674 40.2598C36.7674 42.8691 38.8907 44.9923 41.5 44.9923C44.1093 44.9923 46.2326 42.8691 46.2326 40.2598C46.2326 37.6505 44.1093 35.5272 41.5 35.5272Z" fill="#FFC000"/>
<path d="M44.4312 40.8139C44.3515 40.8936 44.2424 40.944 44.1165 40.944L39.3675 40.9448C39.1241 40.9449 38.9228 40.7435 38.9229 40.5002C38.9229 40.2569 39.1243 40.0555 39.3676 40.0554L44.1167 40.0546C44.36 40.0546 44.5613 40.2559 44.5613 40.4992C44.5613 40.6251 44.5109 40.7342 44.4312 40.8139Z" fill="#FFC000"/>
<path opacity="0.4" d="M49.2104 50.1666C49.2104 50.82 48.6971 51.3333 48.0437 51.3333H7.95707C7.30374 51.3333 6.79041 50.82 6.79041 50.1666C6.79041 40.5066 16.3104 32.6666 28.0004 32.6666C30.4037 32.6666 32.7371 32.9932 34.8838 33.6232C33.5071 35.2566 32.6671 37.38 32.6671 39.6666C32.6671 41.4166 33.157 43.0733 34.0204 44.4733C34.487 45.2666 35.0937 45.9899 35.7937 46.5966C37.4271 48.0899 39.5971 49 42.0004 49C44.6137 49 46.9704 47.9266 48.6504 46.1999C49.0237 47.4599 49.2104 48.79 49.2104 50.1666Z" fill="#FFC000"/>
<path d="M28 28C34.4434 28 39.6667 22.7766 39.6667 16.3333C39.6667 9.88997 34.4434 4.66663 28 4.66663C21.5567 4.66663 16.3334 9.88997 16.3334 16.3333C16.3334 22.7766 21.5567 28 28 28Z" fill="#FFC000"/>
</svg>
