<svg width="20" height="20" viewBox="0 0 20 20" fill="none" xmlns="http://www.w3.org/2000/svg">
<path d="M4 6.99791C4 5.40704 4.63214 3.88132 5.75736 2.7564C6.88258 1.63148 8.4087 0.999512 10 0.999512C11.5913 0.999512 13.1174 1.63148 14.2426 2.7564C15.3679 3.88132 16 5.40704 16 6.99791C16 13.996 19 15.9955 19 15.9955H1C1 15.9955 4 13.996 4 6.99791Z" stroke="#141400" stroke-width="1.5" stroke-linecap="round" stroke-linejoin="round"/>
<path d="M8.2998 17.9956C8.46719 18.3 8.71325 18.554 9.0123 18.7308C9.31134 18.9076 9.65238 19.0009 9.9998 19.0009C10.3472 19.0009 10.6883 18.9076 10.9873 18.7308C11.2864 18.554 11.5324 18.3 11.6998 17.9956" stroke="#141400" stroke-width="1.5" stroke-linecap="round" stroke-linejoin="round"/>
</svg>
