<svg width="17" height="2" viewBox="0 0 17 2" fill="none" xmlns="http://www.w3.org/2000/svg">
<path d="M0 1C0 0.447715 0.447715 0 1 0H4C4.55228 0 5 0.447715 5 1C5 1.55228 4.55228 2 4 2H1C0.447715 2 0 1.55228 0 1Z" fill="#202403" fill-opacity="0.6"/>
<path d="M6 1C6 0.447715 6.44772 0 7 0H10C10.5523 0 11 0.447715 11 1C11 1.55228 10.5523 2 10 2H7C6.44772 2 6 1.55228 6 1Z" fill="#202403" fill-opacity="0.6"/>
<path d="M12 1C12 0.447715 12.4477 0 13 0H16C16.5523 0 17 0.447715 17 1C17 1.55228 16.5523 2 16 2H13C12.4477 2 12 1.55228 12 1Z" fill="#202403" fill-opacity="0.6"/>
</svg>
