<svg width="57" height="56" viewBox="0 0 57 56" fill="none" xmlns="http://www.w3.org/2000/svg">
<path d="M42.8742 11.6667V9.33332C42.8742 7.13344 42.8742 6.03349 42.1725 5.35007C41.4708 4.66666 40.3415 4.66666 38.0828 4.66666H18.9172C16.6585 4.66666 15.5292 4.66666 14.8275 5.35007C14.1258 6.03349 14.1258 7.13344 14.1258 9.33332V11.6667M42.8742 11.6667L49.0688 45.8557C49.529 48.3959 49.7592 49.6661 49.0411 50.4997C48.323 51.3333 46.9988 51.3333 44.3503 51.3333H41.6216C39.9161 51.3333 39.0634 51.3333 38.4289 50.8769C37.7944 50.4205 37.5436 49.6267 37.0421 48.0391L33.0795 35.496C31.2061 29.5659 30.2694 26.6008 28.5 26.6008C26.7306 26.6008 25.7939 29.5659 23.9205 35.496L19.9579 48.0391C19.4564 49.6267 19.2056 50.4205 18.5711 50.8769C17.9366 51.3333 17.0839 51.3333 15.3784 51.3333H12.6497C10.0013 51.3333 8.67701 51.3333 7.95893 50.4997C7.24084 49.6661 7.47098 48.3959 7.93125 45.8557L14.1258 11.6667M42.8742 11.6667H14.1258" stroke="#FF3B30" stroke-width="3" stroke-linecap="round"/>
<path d="M23.8334 18.1481L28.5 11.6667L35.5 23.3333" stroke="#FF3B30" stroke-width="3" stroke-linecap="round" stroke-linejoin="round"/>
</svg>
