<svg width="16" height="16" viewBox="0 0 16 16" fill="none" xmlns="http://www.w3.org/2000/svg">
<path d="M14.6292 11.304V13.304C14.6299 13.4897 14.5919 13.6734 14.5175 13.8436C14.4431 14.0137 14.334 14.1664 14.1972 14.2919C14.0604 14.4174 13.8989 14.513 13.723 14.5725C13.5471 14.632 13.3607 14.654 13.1758 14.6373C11.1244 14.4144 9.15383 13.7134 7.4225 12.5907C5.81172 11.5671 4.44606 10.2014 3.4225 8.59067C2.29582 6.85147 1.59466 4.87133 1.37583 2.81067C1.35917 2.62631 1.38108 2.44051 1.44017 2.26508C1.49925 2.08966 1.59421 1.92846 1.71901 1.79175C1.84381 1.65504 1.9957 1.54581 2.16503 1.47102C2.33435 1.39622 2.51739 1.35751 2.7025 1.35733H4.7025C5.02604 1.35415 5.33969 1.46872 5.58501 1.67969C5.83032 1.89066 5.99055 2.18363 6.03583 2.504C6.12025 3.14404 6.2768 3.77249 6.5025 4.37733C6.5922 4.61595 6.61161 4.87528 6.55844 5.12459C6.50527 5.3739 6.38174 5.60274 6.2025 5.784L5.35583 6.63067C6.30487 8.2997 7.6868 9.68163 9.35583 10.6307L10.2025 9.784C10.3838 9.60476 10.6126 9.48123 10.8619 9.42806C11.1112 9.37489 11.3706 9.39431 11.6092 9.484C12.214 9.7097 12.8425 9.86625 13.4825 9.95067C13.8063 9.99635 14.1021 10.1595 14.3135 10.409C14.5249 10.6585 14.6373 10.9771 14.6292 11.304Z" stroke="#202403" stroke-opacity="0.85" stroke-linecap="round" stroke-linejoin="round"/>
</svg>
