<svg width="16" height="16" viewBox="0 0 16 16" fill="none" xmlns="http://www.w3.org/2000/svg">
<g clip-path="url(#clip0_5221_41595)">
<path d="M4.75 12.3908C4.75 10.3416 7.1875 10.7517 7.1875 9.93214C7.21474 9.64111 7.13587 9.35005 6.96542 9.11259C6.77103 8.92828 6.6179 8.70487 6.51613 8.45708C6.41437 8.20929 6.36626 7.94274 6.375 7.67501C6.34855 7.21585 6.50441 6.76481 6.80871 6.41995C7.113 6.07508 7.54112 5.86427 8 5.83334C8.45888 5.86427 8.887 6.07508 9.19129 6.41995C9.49559 6.76481 9.65145 7.21585 9.625 7.67501C9.63475 7.94353 9.5863 8.21099 9.48299 8.45903C9.37968 8.70708 9.22394 8.92984 9.02646 9.11205C8.86286 9.35263 8.78729 9.6423 8.8125 9.93214C8.8125 10.7517 11.25 10.3422 11.25 12.3913C11.25 12.3913 10.6027 12.8756 8 12.8756C5.39729 12.8756 4.75 12.3908 4.75 12.3908Z" stroke="#202403" stroke-opacity="0.6" stroke-miterlimit="10"/>
<path d="M4.47142 10.1488C4.16321 10.1347 3.8913 10.1136 3.65242 10.087C3.09173 10.0759 2.5409 9.93756 2.0415 9.68242C2.0415 7.63329 4.479 8.04333 4.479 7.22379C4.50625 6.93277 4.42737 6.6417 4.25692 6.40425C4.06253 6.21994 3.90941 5.99653 3.80764 5.74874C3.70587 5.50095 3.65777 5.2344 3.6665 4.96667C3.64005 4.50751 3.79592 4.05647 4.10021 3.7116C4.4045 3.36674 4.83263 3.15593 5.2915 3.125C5.75038 3.15593 6.1785 3.36674 6.4828 3.7116C6.78709 4.05647 6.94295 4.50751 6.9165 4.96667" stroke="#202403" stroke-opacity="0.6" stroke-miterlimit="10"/>
<path d="M11.5295 10.1489C11.8377 10.1348 12.1096 10.1137 12.3485 10.0871C12.9092 10.076 13.46 9.93765 13.9594 9.68251C13.9594 7.63338 11.5219 8.04342 11.5219 7.22388C11.4947 6.93286 11.5736 6.64179 11.744 6.40434C11.9384 6.22003 12.0915 5.99662 12.1933 5.74883C12.2951 5.50104 12.3432 5.23449 12.3344 4.96676C12.3609 4.5076 12.205 4.05656 11.9007 3.7117C11.5964 3.36683 11.1683 3.15602 10.7094 3.12509C10.2506 3.15602 9.82243 3.36683 9.51814 3.7117C9.21385 4.05656 9.05798 4.5076 9.08443 4.96676" stroke="#202403" stroke-opacity="0.6" stroke-miterlimit="10"/>
</g>
<defs>
<clipPath id="clip0_5221_41595">
<rect width="13" height="13" fill="white" transform="translate(1.5 1.5)"/>
</clipPath>
</defs>
</svg>
