<svg width="22" height="23" viewBox="0 0 22 23" fill="none" xmlns="http://www.w3.org/2000/svg">
<path d="M15.2026 7.75519L6.7641 7.75519C6.39991 7.75519 6.0979 7.45318 6.0979 7.08899V5.31245C6.0979 3.03848 7.15494 1.98145 9.42891 1.98145L12.5378 1.98145C14.8118 1.98145 15.8689 3.03848 15.8689 5.31245V7.08899C15.8689 7.45318 15.5668 7.75519 15.2026 7.75519ZM7.4303 6.42279L14.5364 6.42279V5.31245C14.5364 3.8024 14.0479 3.31385 12.5378 3.31385L9.42891 3.31385C7.91885 3.31385 7.4303 3.8024 7.4303 5.31245L7.4303 6.42279Z" fill="white"/>
<path d="M11.8717 21.0791H10.0952C7.94556 21.0791 6.76416 19.8977 6.76416 17.7481L6.76416 14.195C6.76416 13.8308 7.06617 13.5288 7.43036 13.5288L14.5365 13.5288C14.9007 13.5288 15.2027 13.8308 15.2027 14.195V17.7481C15.2027 19.8977 14.0213 21.0791 11.8717 21.0791ZM8.09656 14.8612V17.7481C8.09656 19.1515 8.6917 19.7467 10.0952 19.7467H11.8717C13.2752 19.7467 13.8703 19.1515 13.8703 17.7481V14.8612L8.09656 14.8612Z" fill="white"/>
<path d="M16.313 17.5262H14.5364C14.1723 17.5262 13.8702 17.2242 13.8702 16.86V14.8614H8.0965V16.86C8.0965 17.2242 7.79449 17.5262 7.4303 17.5262H5.65376C3.50415 17.5262 2.32275 16.3448 2.32275 14.1952L2.32275 9.75386C2.32275 7.60425 3.50415 6.42285 5.65376 6.42285L16.313 6.42285C18.4626 6.42285 19.644 7.60425 19.644 9.75386V14.1952C19.644 16.3448 18.4626 17.5262 16.313 17.5262ZM15.2026 16.1938H16.313C17.7164 16.1938 18.3116 15.5987 18.3116 14.1952V9.75386C18.3116 8.35039 17.7164 7.75525 16.313 7.75525L5.65376 7.75525C4.2503 7.75525 3.65516 8.35039 3.65516 9.75386L3.65516 14.1952C3.65516 15.5987 4.2503 16.1938 5.65376 16.1938H6.76409L6.76409 14.1952C6.76409 13.831 7.06611 13.529 7.4303 13.529L14.5364 13.529C14.9006 13.529 15.2026 13.831 15.2026 14.1952V16.1938Z" fill="white"/>
<path d="M15.4249 14.8612L6.54218 14.8612C6.17799 14.8612 5.87598 14.5592 5.87598 14.195C5.87598 13.8308 6.17799 13.5288 6.54218 13.5288L15.4249 13.5288C15.789 13.5288 16.0911 13.8308 16.0911 14.195C16.0911 14.5592 15.789 14.8612 15.4249 14.8612Z" fill="white"/>
<path d="M9.20698 11.3082H6.54218C6.17799 11.3082 5.87598 11.0062 5.87598 10.642C5.87598 10.2778 6.17799 9.97583 6.54218 9.97583H9.20698C9.57117 9.97583 9.87318 10.2778 9.87318 10.642C9.87318 11.0062 9.57117 11.3082 9.20698 11.3082Z" fill="white"/>
</svg>
