<svg width="56" height="57" viewBox="0 0 56 57" fill="none" xmlns="http://www.w3.org/2000/svg">
<path d="M15.1666 38.229L11.6666 49.8957H4.66663L6.79987 17.897C6.92381 16.0379 8.02384 14.3837 9.69038 13.5505L21 7.89569C24.3074 11.6166 31.6925 11.6166 35 7.89569L46.3095 13.5505C47.9761 14.3837 49.0761 16.0379 49.2 17.897L51.3333 49.8957H44.3333L40.8333 38.229" stroke="#141B34" stroke-width="3" stroke-linecap="round" stroke-linejoin="round"/>
<path d="M14 21.8957L16.3333 45.229L18.6667 49.8957H37.3333L39.6667 45.229L42 21.8957" stroke="#141B34" stroke-width="3" stroke-linecap="round" stroke-linejoin="round"/>
<path d="M19.8333 9.06236C19.8333 9.06236 19.8333 18.4657 26.7545 21.4524C27.4718 21.762 27.9999 22.4344 27.9999 23.2157V49.8957" stroke="#141B34" stroke-width="3" stroke-linecap="round" stroke-linejoin="round"/>
<path d="M36.1666 9.06236C36.1666 9.06236 36.1666 19.5624 28 21.8957" stroke="#141B34" stroke-width="3" stroke-linecap="round" stroke-linejoin="round"/>
</svg>
