<svg width="57" height="56" viewBox="0 0 57 56" fill="none" xmlns="http://www.w3.org/2000/svg">
<path d="M44.9029 38.6667H18.9136C12.068 38.6667 8.64515 38.6667 6.55883 36.4322C2.59884 32.1912 7.11097 20.9143 9.84427 16.6667C10.7709 21.4667 20.3102 21.3333 23.7851 20.6667C21.4699 16.669 24.5605 15.3349 26.1058 14.6678L26.1085 14.6667C33 21.6667 47.7347 25.4746 51.3457 33.1044C52.9055 36.4001 48.4611 38.6667 44.9029 38.6667Z" stroke="#AF52DE" stroke-width="3" stroke-linecap="round" stroke-linejoin="round"/>
<path d="M5.1665 32.6666C14.8841 36.0019 20.8721 36.9698 28.5505 34.5425C30.8771 33.8069 32.0404 33.4392 32.7655 33.4891C33.4906 33.539 34.9699 34.2288 37.9284 35.6085C41.6231 37.3315 46.6931 38.3234 51.8332 35.8361" stroke="#AF52DE" stroke-width="3" stroke-linejoin="round"/>
<path d="M32 22.1667L35.5 18.6667" stroke="#AF52DE" stroke-width="3" stroke-linecap="round" stroke-linejoin="round"/>
<path d="M36.6665 25.6667L40.1665 22.1667" stroke="#AF52DE" stroke-width="3" stroke-linecap="round" stroke-linejoin="round"/>
<path d="M41 42.1666L44.5 38.6666" stroke="#AF52DE" stroke-width="3" stroke-linecap="round" stroke-linejoin="round"/>
<path d="M11.6665 40.8333L15.1665 37.3333" stroke="#AF52DE" stroke-width="3" stroke-linecap="round" stroke-linejoin="round"/>
<path d="M15.6665 40.8333L19.1665 37.3333" stroke="#AF52DE" stroke-width="3" stroke-linecap="round" stroke-linejoin="round"/>
<path d="M45 42.1666L48.5 38.6666" stroke="#AF52DE" stroke-width="3" stroke-linecap="round" stroke-linejoin="round"/>
</svg>
