<svg width="56" height="57" viewBox="0 0 56 57" fill="none" xmlns="http://www.w3.org/2000/svg">
<path d="M14 21.8957L14 39.8252C14 44.0512 14 46.1642 15.3668 47.4771C18.4331 50.4223 36.9968 50.9699 40.6332 47.4771C42 46.1642 42 44.0512 42 39.8252V21.8957" stroke="#2998FF" stroke-width="3" stroke-linecap="round"/>
<path d="M13.395 28.8957L7.10079 22.8037C5.47801 21.2331 4.66663 20.4478 4.66663 19.4719C4.66663 18.496 5.47801 17.7107 7.10078 16.1401L11.7697 11.6212C12.5787 10.8382 12.9832 10.4467 13.4654 10.1583C13.9475 9.86985 14.4902 9.69477 15.5756 9.34461L19.4159 8.10562C19.9774 7.92446 20.2582 7.83389 20.4491 7.94279C20.64 8.05169 20.7003 8.36539 20.8209 8.99278C21.4517 12.275 24.426 14.76 28 14.76C31.5739 14.76 34.5483 12.275 35.1791 8.99278C35.2996 8.36539 35.3599 8.05169 35.5508 7.94279C35.7417 7.83389 36.0225 7.92446 36.584 8.10562L40.4244 9.34461C41.5097 9.69477 42.0524 9.86985 42.5346 10.1583C43.0167 10.4467 43.4212 10.8382 44.2302 11.6212L48.8991 16.1401C50.5219 17.7107 51.3333 18.496 51.3333 19.4719C51.3333 20.4478 50.5219 21.2331 48.8991 22.8037L42.6049 28.8957" stroke="#2998FF" stroke-width="3" stroke-linecap="round" stroke-linejoin="round"/>
</svg>
