<svg width="200" height="201" viewBox="0 0 200 201" fill="none" xmlns="http://www.w3.org/2000/svg">
<g clip-path="url(#clip0_5155_45115)">
<mask id="mask0_5155_45115" style="mask-type:alpha" maskUnits="userSpaceOnUse" x="-11" y="-12" width="223" height="224">
<rect x="-11" y="-11.0016" width="222.59" height="222.59" fill="url(#paint0_linear_5155_45115)"/>
</mask>
<g mask="url(#mask0_5155_45115)">
<circle opacity="0.9" cx="100.295" cy="100.294" r="24.9436" stroke="#C0D330" stroke-width="0.375"/>
<circle opacity="0.8" cx="100.295" cy="100.293" r="35.7141" stroke="#C0D330" stroke-width="0.375"/>
<circle opacity="0.7" cx="100.295" cy="100.294" r="46.4846" stroke="#C0D330" stroke-width="0.375"/>
<circle opacity="0.6" cx="100.295" cy="100.294" r="57.2551" stroke="#C0D330" stroke-width="0.375"/>
<circle opacity="0.5" cx="100.295" cy="100.294" r="68.0256" stroke="#C0D330" stroke-width="0.375"/>
<circle opacity="0.4" cx="100.295" cy="100.294" r="78.7961" stroke="#C0D330" stroke-width="0.375"/>
<circle opacity="0.3" cx="100.295" cy="100.294" r="89.5666" stroke="#C0D330" stroke-width="0.375"/>
<circle opacity="0.2" cx="100.295" cy="100.294" r="100.337" stroke="#C0D330" stroke-width="0.375"/>
<circle opacity="0.1" cx="100.295" cy="100.293" r="111.108" stroke="#C0D330" stroke-width="0.375"/>
<circle cx="100.295" cy="100.294" r="14.1732" stroke="#C0D330" stroke-width="0.375"/>
</g>
<path d="M115.983 79.1487C104.45 79.2175 92.7385 78.6808 81.784 75.6394C70.8294 72.598 61.141 66.8592 52.3333 60.1571C46.567 55.7945 41.3237 52.3265 33.8372 52.8495C26.5172 53.2342 19.5156 55.9654 13.8685 60.6388C4.34522 68.9785 5.79024 84.392 9.58855 95.2364C15.3135 111.572 32.7362 122.912 47.5304 130.302C64.6365 138.848 83.4217 143.816 102.262 146.665C118.776 149.17 139.983 151 154.282 140.211C167.425 130.316 171.031 107.691 167.81 92.4152C167.027 87.9034 164.624 83.8323 161.053 80.9652C151.819 74.2219 138.057 78.722 127.68 78.956C123.896 79.0386 119.918 79.1349 115.983 79.1487Z" fill="#EBF3CB"/>
<path d="M59.7508 25.7383V31.656" stroke="#DEEAA7" stroke-width="0.85" stroke-linecap="round" stroke-linejoin="round"/>
<path d="M56.7921 28.6972H62.7097" stroke="#DEEAA7" stroke-width="0.85" stroke-linecap="round" stroke-linejoin="round"/>
<path d="M172.021 143.692V149.61" stroke="#DEEAA7" stroke-width="0.85" stroke-linecap="round" stroke-linejoin="round"/>
<path d="M169.063 146.651H174.98" stroke="#DEEAA7" stroke-width="0.85" stroke-linecap="round" stroke-linejoin="round"/>
<path d="M15.0381 118.136C15.7829 118.136 16.3867 117.533 16.3867 116.788C16.3867 116.043 15.7829 115.439 15.0381 115.439C14.2932 115.439 13.6894 116.043 13.6894 116.788C13.6894 117.533 14.2932 118.136 15.0381 118.136Z" fill="#DEEAA7"/>
<path d="M129.868 31.8487C130.613 31.8487 131.217 31.2448 131.217 30.5C131.217 29.7551 130.613 29.1513 129.868 29.1513C129.124 29.1513 128.52 29.7551 128.52 30.5C128.52 31.2448 129.124 31.8487 129.868 31.8487Z" fill="#DEEAA7"/>
<path d="M92.4907 175.418C120.385 175.418 142.997 174.013 142.997 172.281C142.997 170.548 120.385 169.143 92.4907 169.143C64.5967 169.143 41.9841 170.548 41.9841 172.281C41.9841 174.013 64.5967 175.418 92.4907 175.418Z" fill="#EBF3CB"/>
<path d="M53.5856 41.8124H126.937C128.762 41.8124 130.512 42.5374 131.803 43.8278C133.093 45.1183 133.818 46.8685 133.818 48.6934V135.958C133.818 137.783 133.093 139.533 131.803 140.824C130.512 142.114 128.762 142.839 126.937 142.839H44.1862C42.3612 142.839 40.611 142.114 39.3206 140.824C38.0301 139.533 37.3052 137.783 37.3052 135.958V58.258L53.5856 41.8124Z" fill="white" stroke="#D2E180" stroke-linecap="round" stroke-linejoin="round"/>
<path d="M133.488 84.337H57.8517V143.679H133.488V84.337Z" fill="#E5EFB9"/>
<path d="M37.3052 58.258H50.6406C51.4229 58.2544 52.172 57.941 52.7239 57.3866C53.2758 56.8321 53.5856 56.0815 53.5856 55.2992V41.8124L37.3052 58.258Z" fill="white" stroke="#D2E180" stroke-linecap="round" stroke-linejoin="round"/>
<path d="M133.116 65.3867H58.3059C55.3949 65.3867 53.0351 67.7466 53.0351 70.6576V86.6628C53.0351 89.5738 55.3949 91.9336 58.3059 91.9336H133.116C136.027 91.9336 138.387 89.5738 138.387 86.6628V70.6576C138.387 67.7466 136.027 65.3867 133.116 65.3867Z" fill="white" stroke="#D2E180" stroke-linecap="round" stroke-linejoin="round"/>
<path d="M67.5677 83.291C70.1063 83.291 72.1642 81.2331 72.1642 78.6945C72.1642 76.1559 70.1063 74.098 67.5677 74.098C65.0291 74.098 62.9712 76.1559 62.9712 78.6945C62.9712 81.2331 65.0291 83.291 67.5677 83.291Z" fill="#E5EFB9"/>
<path d="M82.0178 83.291C84.5563 83.291 86.6143 81.2331 86.6143 78.6945C86.6143 76.1559 84.5563 74.098 82.0178 74.098C79.4792 74.098 77.4213 76.1559 77.4213 78.6945C77.4213 81.2331 79.4792 83.291 82.0178 83.291Z" fill="#E5EFB9"/>
<path d="M96.4541 83.291C98.9927 83.291 101.051 81.2331 101.051 78.6945C101.051 76.1559 98.9927 74.098 96.4541 74.098C93.9155 74.098 91.8576 76.1559 91.8576 78.6945C91.8576 81.2331 93.9155 83.291 96.4541 83.291Z" fill="#E5EFB9"/>
<path d="M133.116 94.8099H58.3059C55.3949 94.8099 53.0351 97.1698 53.0351 100.081V116.086C53.0351 118.997 55.3949 121.357 58.3059 121.357H133.116C136.027 121.357 138.387 118.997 138.387 116.086V100.081C138.387 97.1698 136.027 94.8099 133.116 94.8099Z" fill="white" stroke="#D2E180" stroke-linecap="round" stroke-linejoin="round"/>
<path d="M67.5677 112.728C70.1063 112.728 72.1642 110.67 72.1642 108.131C72.1642 105.593 70.1063 103.535 67.5677 103.535C65.0291 103.535 62.9712 105.593 62.9712 108.131C62.9712 110.67 65.0291 112.728 67.5677 112.728Z" fill="#E5EFB9"/>
<path d="M82.0178 112.728C84.5563 112.728 86.6143 110.67 86.6143 108.131C86.6143 105.593 84.5563 103.535 82.0178 103.535C79.4792 103.535 77.4213 105.593 77.4213 108.131C77.4213 110.67 79.4792 112.728 82.0178 112.728Z" fill="#E5EFB9"/>
<path d="M96.4541 112.728C98.9927 112.728 101.051 110.67 101.051 108.131C101.051 105.593 98.9927 103.535 96.4541 103.535C93.9155 103.535 91.8576 105.593 91.8576 108.131C91.8576 110.67 93.9155 112.728 96.4541 112.728Z" fill="#E5EFB9"/>
<path d="M133.116 124.247H58.3059C55.3949 124.247 53.0351 126.607 53.0351 129.518V145.523C53.0351 148.434 55.3949 150.794 58.3059 150.794H133.116C136.027 150.794 138.387 148.434 138.387 145.523V129.518C138.387 126.607 136.027 124.247 133.116 124.247Z" fill="white" stroke="#D2E180" stroke-linecap="round" stroke-linejoin="round"/>
<path d="M67.5677 142.151C70.1063 142.151 72.1642 140.093 72.1642 137.555C72.1642 135.016 70.1063 132.958 67.5677 132.958C65.0291 132.958 62.9712 135.016 62.9712 137.555C62.9712 140.093 65.0291 142.151 67.5677 142.151Z" fill="#E5EFB9"/>
<path d="M82.0178 142.151C84.5563 142.151 86.6143 140.093 86.6143 137.555C86.6143 135.016 84.5563 132.958 82.0178 132.958C79.4792 132.958 77.4213 135.016 77.4213 137.555C77.4213 140.093 79.4792 142.151 82.0178 142.151Z" fill="#E5EFB9"/>
<path d="M96.4541 142.151C98.9927 142.151 101.051 140.093 101.051 137.555C101.051 135.016 98.9927 132.958 96.4541 132.958C93.9155 132.958 91.8576 135.016 91.8576 137.555C91.8576 140.093 93.9155 142.151 96.4541 142.151Z" fill="#E5EFB9"/>
<path d="M139.887 98.9108C155.643 98.9108 168.415 86.1381 168.415 70.3822C168.415 54.6263 155.643 41.8536 139.887 41.8536C124.131 41.8536 111.358 54.6263 111.358 70.3822C111.358 86.1381 124.131 98.9108 139.887 98.9108Z" fill="white" stroke="#D2E180" stroke-linecap="round" stroke-linejoin="round"/>
<path d="M160.145 91.0803L167.741 98.6769" stroke="#D2E180" stroke-linecap="round" stroke-linejoin="round"/>
<path d="M166.893 94.989L164.534 97.4561C163.473 98.5659 163.513 100.326 164.623 101.386L185.115 120.976C186.225 122.037 187.985 121.998 189.046 120.888L191.404 118.421C192.465 117.311 192.425 115.551 191.316 114.49L170.823 94.9005C169.713 93.8396 167.954 93.8792 166.893 94.989Z" fill="white" stroke="#D2E180" stroke-linecap="round" stroke-linejoin="round"/>
</g>
<defs>
<linearGradient id="paint0_linear_5155_45115" x1="100.295" y1="-11.0016" x2="100.295" y2="211.589" gradientUnits="userSpaceOnUse">
<stop offset="0.437233" stop-color="white"/>
<stop offset="0.662338" stop-color="white" stop-opacity="0"/>
</linearGradient>
<clipPath id="clip0_5155_45115">
<rect width="200" height="200" fill="white" transform="translate(0 0.578369)"/>
</clipPath>
</defs>
</svg>
