<svg width="32" height="32" viewBox="0 0 32 32" fill="none" xmlns="http://www.w3.org/2000/svg">
<path d="M22.7036 24.4215C22.6358 24.4215 22.5679 24.3965 22.5143 24.3429C22.4108 24.2393 22.4108 24.0679 22.5143 23.9643L24.5358 21.9429C24.6393 21.8393 24.8108 21.8393 24.9143 21.9429C25.0179 22.0465 25.0179 22.2179 24.9143 22.3215L22.8929 24.3429C22.8429 24.3965 22.7715 24.4215 22.7036 24.4215Z" fill="#FF3B30"/>
<path d="M24.725 24.4215C24.6572 24.4215 24.5893 24.3965 24.5358 24.3429L22.5143 22.3215C22.4108 22.2179 22.4108 22.0465 22.5143 21.9429C22.6179 21.8393 22.7893 21.8393 22.8929 21.9429L24.9143 23.9643C25.0179 24.0679 25.0179 24.2393 24.9143 24.3429C24.8608 24.3965 24.7929 24.4215 24.725 24.4215Z" fill="#FF3B30"/>
<path opacity="0.4" d="M28.1202 28.6667C28.1202 29.0401 27.8269 29.3334 27.4536 29.3334H4.54692C4.17358 29.3334 3.88025 29.0401 3.88025 28.6667C3.88025 23.1467 9.32024 18.6667 16.0002 18.6667C17.3736 18.6667 18.7069 18.8534 19.9336 19.2134C19.1469 20.1467 18.6669 21.3601 18.6669 22.6667C18.6669 23.6667 18.9469 24.6134 19.4402 25.4134C19.7069 25.8667 20.0536 26.28 20.4536 26.6267C21.3869 27.48 22.6269 28.0001 24.0002 28.0001C25.4936 28.0001 26.8403 27.3867 27.8003 26.4001C28.0136 27.1201 28.1202 27.8801 28.1202 28.6667Z" fill="#FF3B30"/>
<path d="M16 16.0001C19.6819 16.0001 22.6667 13.0153 22.6667 9.33341C22.6667 5.65152 19.6819 2.66675 16 2.66675C12.3181 2.66675 9.33337 5.65152 9.33337 9.33341C9.33337 13.0153 12.3181 16.0001 16 16.0001Z" fill="#FF3B30"/>
</svg>
