<svg width="57" height="56" viewBox="0 0 57 56" fill="none" xmlns="http://www.w3.org/2000/svg">
<path d="M33.1663 39.6666L33.9745 41.9887C34.7135 44.192 35.0831 45.2937 35.9428 45.9469C35.9955 45.987 36.0495 46.0257 36.1044 46.0627C36.9999 46.6666 38.1685 46.6666 40.5056 46.6666C45.842 46.6666 48.5102 46.6666 50.2259 44.9779C50.3249 44.8805 50.4319 44.7671 50.5234 44.6626C52.1087 42.8523 51.9444 40.324 51.616 35.2675C51.0774 26.9759 50.0211 20.3123 49.0003 15.6342C48.3845 12.8122 48.0766 11.4012 46.7863 10.3672C45.496 9.33328 43.8991 9.33328 40.7052 9.33328H16.294C13.1001 9.33328 11.5032 9.33328 10.2129 10.3672C8.92262 11.4012 8.61472 12.8122 7.99891 15.6342C6.97806 20.3123 5.92175 26.9759 5.38318 35.2675C5.05475 40.3241 4.89053 42.8523 6.4758 44.6626C6.56724 44.7671 6.67427 44.8805 6.77324 44.9779C8.48903 46.6666 11.1572 46.6666 16.4936 46.6666C18.8307 46.6666 19.9993 46.6666 20.8947 46.0627C20.9497 46.0257 21.0036 45.987 21.0564 45.9469C21.9161 45.2937 22.2856 44.192 23.0247 41.9887L23.8036 39.6666" stroke="#FFCC00" stroke-width="3" stroke-linecap="round" stroke-linejoin="round"/>
<path d="M20.333 34.9999C21.7303 37.7897 25.5085 40.8333 28.4997 40.8333C31.4908 40.8333 35.2691 37.7897 36.6663 34.9999" stroke="#FFCC00" stroke-width="3" stroke-linecap="round"/>
<path d="M7.49951 18.6666H49.4995" stroke="#FFCC00" stroke-width="3" stroke-linecap="round" stroke-linejoin="round"/>
</svg>
