<svg width="56" height="57" viewBox="0 0 56 57" fill="none" xmlns="http://www.w3.org/2000/svg">
<path d="M38.7726 3.22903C39.3486 5.02474 39.6667 6.99526 39.6667 9.06236C39.6667 17.4387 34.4434 24.229 28 24.229C21.5567 24.229 16.3334 17.4387 16.3334 9.06236C16.3334 6.99526 16.6515 5.02474 17.2275 3.22903" stroke="#141B34" stroke-width="3"/>
<path fill-rule="evenodd" clip-rule="evenodd" d="M14.8697 2.01373C15.5442 1.62793 16.3322 1.43113 17.1424 1.48895C20.5519 1.73228 24.8379 2.51783 28.0001 5.33025C31.1622 2.51783 35.4482 1.73228 38.8577 1.48895C39.6679 1.43113 40.4559 1.62792 41.1304 2.01373L47.1668 5.46665C48.7456 6.36973 49.5755 8.24422 49.0459 10.0593C48.8655 10.6774 48.6783 11.2922 48.4918 11.9046C47.894 13.8681 47.3034 15.8079 46.9677 17.7583C46.5333 20.2818 46.4036 22.3219 47.3331 24.229C46.4781 24.6992 46.9677 25.5623 46.7149 26.7653C45.8461 27.1887 44.7986 26.8277 44.3751 25.9589C42.9853 23.1071 43.027 20.0193 43.5184 17.1645C43.8952 14.9755 44.5758 12.7431 45.1856 10.7428C45.3613 10.1667 45.531 9.60987 45.686 9.07887C45.7425 8.88506 45.6654 8.63996 45.429 8.50473L39.3926 5.05181C39.2898 4.99302 39.1896 4.97417 39.1068 4.98007C35.3539 5.24791 31.589 6.17464 29.3674 8.95577C29.0353 9.37148 28.5321 9.61353 28.0001 9.61353C27.468 9.61354 26.9648 9.37148 26.6327 8.95577C24.4111 6.17464 20.6462 5.24791 16.8933 4.98007C16.8105 4.97417 16.7103 4.99302 16.6075 5.05181L10.5711 8.50473C10.3347 8.63997 10.2576 8.88506 10.3141 9.07886C10.4691 9.60987 10.6389 10.1667 10.8145 10.7428C11.4243 12.7431 12.1049 14.9755 12.4817 17.1645C12.9731 20.0193 12.6664 27.5623 11.625 25.9589C11.2015 26.8277 10.8686 26.3823 9.99976 25.9589C9.13095 25.5354 8.60901 24.1762 9.03244 23.3074C9.9619 21.4003 9.46683 20.2818 9.03244 17.7583C8.69671 15.8079 8.10609 13.8681 7.50828 11.9046C7.3218 11.2921 7.13462 10.6774 6.95425 10.0593C6.42463 8.24422 7.25455 6.36973 8.83332 5.46665L14.8697 2.01373Z" fill="#141B34"/>
<path d="M32.6667 38.8124C29.2216 37.3702 27.209 37.1473 23.3334 38.8124" stroke="#141B34" stroke-width="3" stroke-linecap="round"/>
<path d="M10.6667 23.5623L11.6666 52.2292" stroke="#141B34" stroke-width="3" stroke-linecap="round"/>
<path d="M45.3334 23.5624V51.5624" stroke="#141B34" stroke-width="3" stroke-linecap="round"/>
</svg>
