<svg width="112" height="112" viewBox="0 0 112 112" fill="none" xmlns="http://www.w3.org/2000/svg">
<rect x="8" y="8" width="96" height="96" rx="48" fill="#FEF0C7"/>
<rect x="8" y="8" width="96" height="96" rx="48" stroke="#FFFAEB" stroke-width="16"/>
<path d="M55.9996 48.0004V56.0004M55.9996 64.0004H56.0196M52.5796 37.7204L35.6396 66.0004C35.2903 66.6053 35.1055 67.291 35.1035 67.9894C35.1016 68.6879 35.2825 69.3747 35.6284 69.9815C35.9743 70.5883 36.473 71.0939 37.075 71.4481C37.6769 71.8023 38.3612 71.9927 39.0596 72.0004H72.9396C73.638 71.9927 74.3222 71.8023 74.9241 71.4481C75.5261 71.0939 76.0248 70.5883 76.3707 69.9815C76.7166 69.3747 76.8975 68.6879 76.8956 67.9894C76.8936 67.291 76.7088 66.6053 76.3596 66.0004L59.4196 37.7204C59.063 37.1326 58.561 36.6466 57.9619 36.3094C57.3629 35.9721 56.687 35.7949 55.9996 35.7949C55.3121 35.7949 54.6362 35.9721 54.0372 36.3094C53.4381 36.6466 52.9361 37.1326 52.5796 37.7204Z" stroke="#DC6803" stroke-width="4" stroke-linecap="round" stroke-linejoin="round"/>
</svg>
