<svg width="92" height="92" viewBox="0 0 92 92" fill="none" xmlns="http://www.w3.org/2000/svg">
<path d="M29.2381 62.7619L77.4286 14.5714M29.2381 62.7619L14.5714 62.7613L2 73.2381H18.7619V90L29.2381 77.4279V62.7619ZM77.4286 14.5714L81.6191 27.1429L90 2L64.8571 10.381L77.4286 14.5714ZM16.6667 8.28571L22.9524 60.6667M31.3333 69.0476L83.7143 75.3333M6.18763 2.00285C14.5686 14.5743 52.2845 -10.5703 52.2859 22.9522L69.0478 39.7141C102.571 39.713 77.4285 77.4286 89.9999 85.8096C77.4285 77.4286 89.9998 48.0956 60.6679 48.094L43.906 31.3321C43.9071 2.00056 14.5686 14.5743 6.18763 2.00285Z" stroke="#202403" stroke-opacity="0.6" stroke-width="3" stroke-linecap="round" stroke-linejoin="round"/>
</svg>
