<svg width="137" height="112" viewBox="0 0 137 112" fill="none" xmlns="http://www.w3.org/2000/svg">
<path d="M47.0154 52.9075L53.6757 37.303C55.4673 33.1065 58.6896 27.5273 65.9568 27.5273H71.0432C78.3114 27.5273 81.5333 33.1065 83.3243 37.303L89.9851 52.9075C90.4742 54.0533 89.9418 55.3788 88.796 55.8681C87.6509 56.358 86.3246 55.825 85.8353 54.679L79.1745 39.0745C77.0418 34.0776 74.686 32.0396 71.0432 32.0396H65.9568C62.3146 32.0396 59.9588 34.0778 57.8256 39.0747L51.1653 54.679C50.7995 55.536 49.9658 56.0499 49.0895 56.0499C48.7939 56.0499 48.4936 55.9917 48.2048 55.8681C47.0588 55.3788 46.5263 54.0533 47.0154 52.9075ZM60.9793 17.0192C60.9793 12.8721 64.3533 9.49805 68.5004 9.49805C72.6473 9.49805 76.021 12.8721 76.021 17.0192C76.021 21.1663 72.6473 24.5403 68.5004 24.5403C64.3533 24.5403 60.9793 21.1663 60.9793 17.0192ZM65.4913 17.0192C65.4913 18.6784 66.8412 20.0282 68.5004 20.0282C70.1593 20.0282 71.509 18.6784 71.509 17.0192C71.509 15.36 70.1593 14.0101 68.5004 14.0101C66.8412 14.0101 65.4913 15.36 65.4913 17.0192ZM115.261 100.246C115.261 101.492 114.251 102.502 113.005 102.502H23.9953C22.7492 102.502 21.7393 101.492 21.7393 100.246C21.7393 98.9998 22.7492 97.9899 23.9953 97.9899H33.4579V83.1093C33.4579 81.8632 34.4678 80.8533 35.7139 80.8533H55.3154V76.8114C55.3154 75.5654 56.3253 74.5554 57.5714 74.5554H62.2V61.8045C62.2 60.5584 63.21 59.5485 64.4561 59.5485C65.7022 59.5485 66.7121 60.5584 66.7121 61.8045V74.5554H70.2879V61.8045C70.2879 60.5584 71.2979 59.5485 72.544 59.5485C73.7901 59.5485 74.8 60.5584 74.8 61.8045V74.5554H79.4291C80.6752 74.5554 81.6852 75.5654 81.6852 76.8114V87.8284H101.286C102.532 87.8284 103.542 88.8384 103.542 90.0845V97.9899H113.005C114.251 97.9899 115.261 98.9998 115.261 100.246ZM55.3154 85.3651H37.9699V97.9896H55.3154V85.3651ZM77.1731 79.0672H59.8277V97.9896H77.1731V79.0672ZM99.0304 92.3405H81.6852V97.9899H99.0304V92.3405ZM68.5004 94.5364C69.7465 94.5364 70.7564 93.5264 70.7564 92.2803V84.7768C70.7564 83.5307 69.7465 82.5207 68.5004 82.5207C67.2543 82.5207 66.2444 83.5307 66.2444 84.7768V92.2803C66.2444 93.5264 67.2543 94.5364 68.5004 94.5364ZM62.9824 40.9512C61.7363 40.9512 60.7263 41.9612 60.7263 43.2073V53.7928C60.7263 55.0502 61.7559 56.0699 63.0162 56.0489H73.9843C73.9956 56.0491 74.0069 56.0491 74.0182 56.0491C75.2643 56.0491 76.2742 55.0392 76.2742 53.7931V43.2073C76.2742 41.9612 75.2643 40.9512 74.0182 40.9512C72.7721 40.9512 71.7621 41.9612 71.7621 43.2073V51.5368H65.2387V43.2073C65.2384 41.9612 64.2285 40.9512 62.9824 40.9512Z" fill="#202020" fill-opacity="0.6"/>
</svg>
