<svg width="96" height="96" viewBox="0 0 96 96" fill="none" xmlns="http://www.w3.org/2000/svg">
<path d="M38.648 3.97309C44.6582 17.4193 48 32.3194 48 48C48 63.6806 44.6582 78.5807 38.648 92.0269M38.648 3.97309C41.6649 3.33542 44.7933 3 48 3C60.9935 3 72.7007 8.50699 80.9151 17.3143M38.648 3.97309C29.0213 6.00786 20.53 11.1202 14.2519 18.2323M3.15642 44.2211C3.05283 45.467 3 46.7273 3 48C3 59.4135 7.24918 69.8346 14.2519 77.7677M3.15642 44.2211C16.815 37.9788 32.0012 34.5 48 34.5C63.9988 34.5 79.185 37.9788 92.8436 44.2211M3.15642 44.2211C3.98183 34.2934 8.03001 25.2808 14.2519 18.2323M14.2519 18.2323C23.7583 24.7124 30 35.6273 30 48C30 60.3727 23.7583 71.2876 14.2519 77.7677M14.2519 77.7677C20.53 84.8798 29.0213 89.9922 38.648 92.0269M38.648 92.0269C41.6649 92.6646 44.7933 93 48 93C60.9935 93 72.7007 87.493 80.9151 78.6857M80.9151 78.6857C70.6168 72.3511 63.75 60.9775 63.75 48C63.75 35.0225 70.6167 23.6489 80.9151 17.3143M80.9151 78.6857C88.4124 70.6472 93 59.8593 93 48C93 46.7273 92.9472 45.467 92.8436 44.2211M92.8436 44.2211C91.9819 33.857 87.6079 24.4902 80.9151 17.3143" stroke="#202403" stroke-opacity="0.6" stroke-width="5"/>
</svg>
