<svg width="82" height="92" viewBox="0 0 82 92" fill="none" xmlns="http://www.w3.org/2000/svg">
<path d="M2.12987 31.7412C2.26611 31.74 2.40236 31.7388 2.54273 31.7377C3.00268 31.7347 3.46243 31.7375 3.92238 31.7403C4.25408 31.7393 4.58577 31.7381 4.91747 31.7365C5.83161 31.7332 6.74568 31.7348 7.65982 31.7373C8.64464 31.7391 9.62944 31.7363 10.6143 31.7341C12.5446 31.7306 14.4748 31.7313 16.4051 31.7336C17.9734 31.7354 19.5416 31.7357 21.1098 31.7348C21.3327 31.7347 21.5556 31.7346 21.7852 31.7344C22.2379 31.7342 22.6906 31.7339 23.1433 31.7337C27.3922 31.7314 31.641 31.734 35.8899 31.7383C39.5387 31.7418 43.1875 31.7412 46.8363 31.7376C51.0695 31.7333 55.3027 31.7316 59.536 31.7341C59.9871 31.7343 60.4381 31.7346 60.8892 31.7348C61.2221 31.735 61.2221 31.735 61.5618 31.7352C63.1289 31.7359 64.6959 31.7347 66.263 31.7328C68.1717 31.7306 70.0804 31.7312 71.9891 31.7355C72.9637 31.7375 73.9383 31.7384 74.9129 31.7357C75.804 31.7334 76.6951 31.7346 77.5862 31.7389C77.9096 31.7398 78.233 31.7393 78.5564 31.7374C78.9941 31.735 79.4315 31.7374 79.8692 31.7412C80.1129 31.7413 80.3565 31.7414 80.6076 31.7416C81.1965 31.8413 81.1965 31.8413 81.5733 32.1839C81.8269 32.7061 81.8681 33.0451 81.8681 33.6244C81.8695 33.8243 81.8709 34.0242 81.8724 34.2302C81.8709 34.4494 81.8695 34.6686 81.868 34.8945C81.8688 35.1277 81.8696 35.3609 81.8704 35.6012C81.872 36.2486 81.8709 36.896 81.8686 37.5435C81.8669 38.2417 81.8685 38.9399 81.8698 39.6381C81.8717 41.0059 81.8704 42.3738 81.8679 43.7417C81.8652 45.3342 81.8656 46.9267 81.866 48.5193C81.8666 51.3606 81.8643 54.202 81.8604 57.0434C81.8566 59.8012 81.8552 62.559 81.8563 65.3168C81.8575 68.3188 81.8575 71.3208 81.8552 74.3227C81.855 74.6428 81.8547 74.9629 81.8545 75.283C81.8543 75.5192 81.8543 75.5192 81.8541 75.7602C81.8534 76.8705 81.8534 77.9808 81.8538 79.0912C81.8542 80.4443 81.8532 81.7974 81.8503 83.1505C81.8489 83.841 81.8481 84.5314 81.849 85.2219C81.8496 85.9701 81.8478 86.7182 81.8454 87.4664C81.8461 87.6852 81.8469 87.904 81.8477 88.1294C81.8465 88.3298 81.8453 88.5302 81.8441 88.7367C81.844 88.9094 81.8438 89.0821 81.8436 89.26C81.7285 90.3828 81.2356 91.0056 80.4005 91.7388C79.6803 91.9789 79.1683 92.002 78.4106 91.9378C77.5704 91.4854 77.2008 91.1207 76.6196 90.3459C76.6196 83.4507 76.6196 76.5555 76.6196 69.4514C53.1104 69.4514 29.6011 69.4514 5.37942 69.4514C5.37942 76.3466 5.37942 83.2417 5.37942 90.3459C4.09161 91.8912 4.09161 91.8912 2.91686 92C1.95506 91.9171 1.30571 91.666 0.640852 90.9553C0.228071 90.2383 0.180571 89.5787 0.179397 88.7612C0.178633 88.5612 0.177869 88.3612 0.177081 88.1551C0.177254 87.9357 0.177426 87.7163 0.177604 87.4903C0.177012 87.257 0.176421 87.0237 0.175812 86.7833C0.174383 86.1354 0.17385 85.4876 0.173703 84.8398C0.173335 84.1412 0.171833 83.4426 0.170492 82.744C0.16779 81.2166 0.166591 79.6893 0.165714 78.1619C0.165165 77.2085 0.164321 76.2552 0.163425 75.3018C0.160999 72.6631 0.158949 70.0243 0.158276 67.3855C0.158232 67.2166 0.158188 67.0478 0.158143 66.8738C0.1581 66.7045 0.158057 66.5352 0.158012 66.3609C0.157924 66.0179 0.157835 65.6749 0.157745 65.3319C0.157701 65.1617 0.157657 64.9916 0.157612 64.8163C0.156826 62.0573 0.15335 59.2983 0.148719 56.5394C0.144004 53.7078 0.14152 50.8763 0.141288 48.0447C0.141105 46.4545 0.139956 44.8642 0.136349 43.274C0.13329 41.9204 0.132262 40.5668 0.133909 39.2131C0.134688 38.5223 0.134493 37.8314 0.131709 37.1405C0.129199 36.3923 0.130336 35.6441 0.132422 34.8958C0.130818 34.6765 0.129215 34.4571 0.127563 34.2311C0.12953 33.9311 0.12953 33.9311 0.131537 33.625C0.131418 33.4522 0.1313 33.2794 0.131177 33.1015C0.330718 31.8562 0.968 31.7418 2.12987 31.7412ZM2.59349 34.0303C2.59349 35.6063 2.59349 37.1824 2.59349 38.8062C6.13958 38.8062 9.68567 38.8062 13.3392 38.8062C13.3392 37.2301 13.3392 35.6541 13.3392 34.0303C9.79313 34.0303 6.24704 34.0303 2.59349 34.0303ZM15.7272 34.0303C15.7272 35.6063 15.7272 37.1824 15.7272 38.8062C19.3389 38.8062 22.9507 38.8062 26.6719 38.8062C26.6719 37.2301 26.6719 35.6541 26.6719 34.0303C23.0601 34.0303 19.4484 34.0303 15.7272 34.0303ZM29.0598 34.0303C29.0598 35.6063 29.0598 37.1824 29.0598 38.8062C32.6059 38.8062 36.152 38.8062 39.8056 38.8062C39.8056 37.2301 39.8056 35.6541 39.8056 34.0303C36.2595 34.0303 32.7134 34.0303 29.0598 34.0303ZM42.1935 34.0303C42.1935 35.6063 42.1935 37.1824 42.1935 38.8062C45.7396 38.8062 49.2857 38.8062 52.9392 38.8062C52.9392 37.2301 52.9392 35.6541 52.9392 34.0303C49.3931 34.0303 45.847 34.0303 42.1935 34.0303ZM55.3272 34.0303C55.3272 35.6063 55.3272 37.1824 55.3272 38.8062C58.9389 38.8062 62.5507 38.8062 66.2719 38.8062C66.2719 37.2301 66.2719 35.6541 66.2719 34.0303C62.6601 34.0303 59.0484 34.0303 55.3272 34.0303ZM68.4608 34.0303C68.4608 35.6063 68.4608 37.1824 68.4608 38.8062C72.0726 38.8062 75.6844 38.8062 79.4056 38.8062C79.4056 37.2301 79.4056 35.6541 79.4056 34.0303C75.7938 34.0303 72.182 34.0303 68.4608 34.0303ZM2.59349 41.1941C2.59349 42.7701 2.59349 44.3462 2.59349 45.97C6.13958 45.97 9.68567 45.97 13.3392 45.97C13.3392 44.3939 13.3392 42.8179 13.3392 41.1941C9.79313 41.1941 6.24704 41.1941 2.59349 41.1941ZM15.7272 41.1941C15.7272 42.7701 15.7272 44.3462 15.7272 45.97C19.3389 45.97 22.9507 45.97 26.6719 45.97C26.6719 44.3939 26.6719 42.8179 26.6719 41.1941C23.0601 41.1941 19.4484 41.1941 15.7272 41.1941ZM29.0598 41.1941C29.0598 42.7701 29.0598 44.3462 29.0598 45.97C32.6059 45.97 36.152 45.97 39.8056 45.97C39.8056 44.3939 39.8056 42.8179 39.8056 41.1941C36.2595 41.1941 32.7134 41.1941 29.0598 41.1941ZM42.1935 41.1941C42.1935 42.7701 42.1935 44.3462 42.1935 45.97C45.7396 45.97 49.2857 45.97 52.9392 45.97C52.9392 44.3939 52.9392 42.8179 52.9392 41.1941C49.3931 41.1941 45.847 41.1941 42.1935 41.1941ZM55.3272 41.1941C55.3272 42.7701 55.3272 44.3462 55.3272 45.97C58.9389 45.97 62.5507 45.97 66.2719 45.97C66.2719 44.3939 66.2719 42.8179 66.2719 41.1941C62.6601 41.1941 59.0484 41.1941 55.3272 41.1941ZM68.4608 41.1941C68.4608 42.7701 68.4608 44.3462 68.4608 45.97C72.0726 45.97 75.6844 45.97 79.4056 45.97C79.4056 44.3939 79.4056 42.8179 79.4056 41.1941C75.7938 41.1941 72.182 41.1941 68.4608 41.1941ZM2.59349 48.1589C2.59349 49.735 2.59349 51.311 2.59349 52.9348C6.20525 52.9348 9.81701 52.9348 13.5382 52.9348C13.5382 51.3588 13.5382 49.7827 13.5382 48.1589C9.92646 48.1589 6.3147 48.1589 2.59349 48.1589ZM15.7272 48.1589C15.7272 49.735 15.7272 51.311 15.7272 52.9348C19.3389 52.9348 22.9507 52.9348 26.6719 52.9348C26.6719 51.3588 26.6719 49.7827 26.6719 48.1589C23.0601 48.1589 19.4484 48.1589 15.7272 48.1589ZM29.0598 48.1589C29.0598 49.735 29.0598 51.311 29.0598 52.9348C32.6059 52.9348 36.152 52.9348 39.8056 52.9348C39.8056 51.3588 39.8056 49.7827 39.8056 48.1589C36.2595 48.1589 32.7134 48.1589 29.0598 48.1589ZM42.1935 48.1589C42.1935 49.735 42.1935 51.311 42.1935 52.9348C45.7396 52.9348 49.2857 52.9348 52.9392 52.9348C52.9392 51.3588 52.9392 49.7827 52.9392 48.1589C49.3931 48.1589 45.847 48.1589 42.1935 48.1589ZM55.3272 48.1589C55.3272 49.735 55.3272 51.311 55.3272 52.9348C58.9389 52.9348 62.5507 52.9348 66.2719 52.9348C66.2719 51.3588 66.2719 49.7827 66.2719 48.1589C62.6601 48.1589 59.0484 48.1589 55.3272 48.1589ZM68.4608 48.1589C68.4608 49.735 68.4608 51.311 68.4608 52.9348C72.0726 52.9348 75.6844 52.9348 79.4056 52.9348C79.4056 51.3588 79.4056 49.7827 79.4056 48.1589C75.7938 48.1589 72.182 48.1589 68.4608 48.1589ZM2.59349 55.3227C2.59349 56.8988 2.59349 58.4748 2.59349 60.0986C6.20525 60.0986 9.81701 60.0986 13.5382 60.0986C13.5382 58.5226 13.5382 56.9465 13.5382 55.3227C9.92646 55.3227 6.3147 55.3227 2.59349 55.3227ZM15.7272 55.3227C15.7272 56.8988 15.7272 58.4748 15.7272 60.0986C19.3389 60.0986 22.9507 60.0986 26.6719 60.0986C26.6719 58.5226 26.6719 56.9465 26.6719 55.3227C23.0601 55.3227 19.4484 55.3227 15.7272 55.3227ZM29.0598 55.3227C29.0598 56.8988 29.0598 58.4748 29.0598 60.0986C32.6059 60.0986 36.152 60.0986 39.8056 60.0986C39.8056 58.5226 39.8056 56.9465 39.8056 55.3227C36.2595 55.3227 32.7134 55.3227 29.0598 55.3227ZM42.1935 55.3227C42.1935 56.8988 42.1935 58.4748 42.1935 60.0986C45.7396 60.0986 49.2857 60.0986 52.9392 60.0986C52.9392 58.5226 52.9392 56.9465 52.9392 55.3227C49.3931 55.3227 45.847 55.3227 42.1935 55.3227ZM55.3272 55.3227C55.3272 56.8988 55.3272 58.4748 55.3272 60.0986C58.9389 60.0986 62.5507 60.0986 66.2719 60.0986C66.2719 58.5226 66.2719 56.9465 66.2719 55.3227C62.6601 55.3227 59.0484 55.3227 55.3272 55.3227ZM68.4608 55.3227C68.4608 56.8988 68.4608 58.4748 68.4608 60.0986C72.0726 60.0986 75.6844 60.0986 79.4056 60.0986C79.4056 58.5226 79.4056 56.9465 79.4056 55.3227C75.7938 55.3227 72.182 55.3227 68.4608 55.3227ZM2.59349 62.2876C2.59349 63.8636 2.59349 65.4396 2.59349 67.0634C6.13958 67.0634 9.68567 67.0634 13.3392 67.0634C13.3392 65.4874 13.3392 63.9114 13.3392 62.2876C9.79313 62.2876 6.24704 62.2876 2.59349 62.2876ZM15.7272 62.2876C15.7272 63.8636 15.7272 65.4396 15.7272 67.0634C19.3389 67.0634 22.9507 67.0634 26.6719 67.0634C26.6719 65.4874 26.6719 63.9114 26.6719 62.2876C23.0601 62.2876 19.4484 62.2876 15.7272 62.2876ZM29.0598 62.2876C29.0598 63.8636 29.0598 65.4396 29.0598 67.0634C32.6059 67.0634 36.152 67.0634 39.8056 67.0634C39.8056 65.4874 39.8056 63.9114 39.8056 62.2876C36.2595 62.2876 32.7134 62.2876 29.0598 62.2876ZM42.1935 62.2876C42.1935 63.8636 42.1935 65.4396 42.1935 67.0634C45.7396 67.0634 49.2857 67.0634 52.9392 67.0634C52.9392 65.4874 52.9392 63.9114 52.9392 62.2876C49.3931 62.2876 45.847 62.2876 42.1935 62.2876ZM55.3272 62.2876C55.3272 63.8636 55.3272 65.4396 55.3272 67.0634C58.9389 67.0634 62.5507 67.0634 66.2719 67.0634C66.2719 65.4874 66.2719 63.9114 66.2719 62.2876C62.6601 62.2876 59.0484 62.2876 55.3272 62.2876ZM68.4608 62.2876C68.4608 63.8636 68.4608 65.4396 68.4608 67.0634C72.0726 67.0634 75.6844 67.0634 79.4056 67.0634C79.4056 65.4874 79.4056 63.9114 79.4056 62.2876C75.7938 62.2876 72.182 62.2876 68.4608 62.2876ZM2.59349 69.4514C2.59349 76.0839 2.59349 82.7164 2.59349 89.5499C2.889 89.4514 2.889 89.4514 3.19048 89.3509C3.19048 82.784 3.19048 76.2172 3.19048 69.4514C2.99347 69.4514 2.79647 69.4514 2.59349 69.4514ZM78.8086 69.4514C78.8086 76.0182 78.8086 82.5851 78.8086 89.3509C79.0056 89.4165 79.2026 89.4822 79.4056 89.5499C79.4056 82.9174 79.4056 76.2849 79.4056 69.4514C79.2086 69.4514 79.0116 69.4514 78.8086 69.4514Z" fill="#202403" fill-opacity="0.6"/>
<path d="M48.3623 2.19107C49.0836 2.73902 49.7202 3.33447 50.3523 3.98203C50.4908 4.11182 50.6293 4.24162 50.772 4.37535C53.1167 6.72913 53.9541 9.90723 53.9964 13.1234C53.9877 14.6046 53.9158 15.9328 53.3372 17.3147C53.2633 17.493 53.2633 17.493 53.188 17.6749C51.6661 21.2514 49.188 23.7656 45.5764 25.2745C42.1131 26.3682 38.509 26.3415 35.1914 24.7762C31.9184 22.9769 29.5404 20.2257 28.4154 16.6703C27.4813 13.2836 27.9056 9.53576 29.6195 6.4819C30.2384 5.43635 30.9228 4.38728 31.8458 3.58404C31.9771 3.58404 32.1084 3.58404 32.2437 3.58404C32.2437 3.4527 32.2437 3.32136 32.2437 3.18605C36.9079 -0.75366 43.2493 -0.985755 48.3623 2.19107ZM40.4025 2.39007C40.4313 2.53936 40.46 2.68865 40.4896 2.84247C40.9457 5.35753 40.8955 7.53352 40.0046 9.95188C40.1359 9.95188 40.2672 9.95188 40.4025 9.95188C40.4518 10.0678 40.501 10.1838 40.5518 10.3032C40.8374 10.8138 41.1541 11.1135 41.5965 11.4941C41.7361 11.6162 41.8756 11.7383 42.0194 11.8641C42.3683 12.1803 42.3683 12.1803 42.7905 12.1408C42.8866 11.8011 42.9818 11.4611 43.0765 11.121C43.1296 10.9317 43.1827 10.7424 43.2374 10.5473C43.5898 9.14894 43.6229 7.81832 43.6238 6.3824C43.6274 6.06631 43.6274 6.06631 43.6312 5.74383C43.6333 4.62512 43.6241 3.62969 43.1885 2.58906C42.5618 2.38016 42.1163 2.36991 41.4597 2.37763C41.2619 2.37943 41.0642 2.38122 40.8604 2.38307C40.7093 2.38538 40.5582 2.38769 40.4025 2.39007ZM37.4479 2.90077C35.4689 3.71833 35.4689 3.71833 34.0347 5.176C34.2674 5.12085 34.5 5.06569 34.7397 5.00887C35.0478 4.93605 35.3559 4.86325 35.664 4.79044C35.817 4.75415 35.97 4.71785 36.1276 4.68045C36.8872 4.50117 37.6458 4.32701 38.4126 4.18102C38.3445 3.58988 38.3445 3.58988 38.2136 2.98705C37.8292 2.73766 37.8292 2.73766 37.4479 2.90077ZM45.7754 3.58404C45.7785 3.71703 45.7817 3.85001 45.7849 3.98703C45.8529 7.33179 45.6044 10.2916 44.7804 13.5338C45.0987 13.6729 45.4181 13.8092 45.7381 13.9442C46.0047 14.0585 46.0047 14.0585 46.2768 14.1751C46.7887 14.3884 46.7887 14.3884 47.3674 14.1308C48.2578 11.608 48.9027 7.28196 47.7654 4.77801C47.2897 4.27612 46.7888 3.89942 46.1734 3.58404C46.0421 3.58404 45.9107 3.58404 45.7754 3.58404ZM32.4801 8.83253C32.3364 9.00491 32.1928 9.17729 32.0448 9.35489C31.9427 9.47597 31.8406 9.59704 31.7354 9.72179C30.3674 11.4236 30.3998 13.0049 30.4528 15.1257C30.97 14.8671 30.9889 14.6615 31.199 14.1308C32.1142 12.0265 33.2737 10.6385 35.4106 9.69614C36.271 9.37262 37.11 9.12256 38.0146 8.9569C38.1156 8.67553 38.2147 8.39348 38.3131 8.11117C38.3685 7.95419 38.4239 7.7972 38.481 7.63545C38.6471 7.11936 38.6471 7.11936 38.6116 6.36997C36.4807 6.36997 34.0712 7.48888 32.4801 8.83253ZM50.5513 8.55891C50.122 8.98821 50.2214 9.91392 50.1657 10.5116C50.0198 11.9954 49.8314 13.4605 49.5563 14.9268C50.0114 15.1543 50.2712 15.1463 50.7752 15.1382C51.0296 15.1341 51.2841 15.13 51.5463 15.1257C51.8271 12.7726 51.6772 10.7499 50.7503 8.55891C50.6846 8.55891 50.6189 8.55891 50.5513 8.55891ZM36.6216 11.5438C36.6873 11.7408 36.753 11.9378 36.8206 12.1408C36.952 12.1408 37.0833 12.1408 37.2186 12.1408C37.2594 12.2511 37.3002 12.3614 37.3422 12.4751C37.7203 13.1113 38.2456 13.5108 38.823 13.9567C38.9457 14.0516 39.0683 14.1466 39.1947 14.2444C42.2003 16.5175 45.6383 18.3608 49.4319 18.7823C49.9792 18.7574 49.9792 18.7574 50.3274 18.3345C50.5823 17.9328 50.5823 17.9328 50.5513 17.5137C50.4015 17.4821 50.2517 17.4506 50.0973 17.4181C45.7633 16.4661 41.8234 15.0256 38.6637 11.7801C38.2537 11.2985 38.2537 11.2985 37.6912 11.2702C37.1907 11.336 37.1907 11.336 36.6216 11.5438ZM34.4327 12.9368C34.0387 13.5278 33.6447 14.1188 33.2387 14.7278C36.3385 18.5617 40.7289 21.0497 45.5764 21.8916C46.6297 21.9642 46.6297 21.9642 47.5539 21.5185C48.0105 21.1462 48.0105 21.1462 47.9644 20.6976C47.752 20.6489 47.5396 20.6001 47.3207 20.5499C42.9977 19.4917 39.2988 17.3493 36.0511 14.3267C35.5286 13.8406 34.9855 13.3878 34.4327 12.9368ZM32.4427 17.5137C32.3088 18.2132 32.2905 18.8053 32.4427 19.5036C33.9863 21.7096 36.5375 22.9633 39.0889 23.6032C39.7194 23.6998 40.3246 23.7014 40.9622 23.695C41.3089 23.6923 41.3089 23.6923 41.6626 23.6895C41.8378 23.6872 42.013 23.6849 42.1935 23.6825C42.1935 23.5512 42.1935 23.4199 42.1935 23.2845C42.0414 23.2312 41.8893 23.1778 41.7325 23.1229C38.2206 21.8381 35.2902 19.9191 32.4427 17.5137Z" fill="#202403" fill-opacity="0.6"/>
</svg>
