<svg width="84" height="96" viewBox="0 0 84 96" fill="none" xmlns="http://www.w3.org/2000/svg">
<path d="M12.6403 52.211C12.6403 52.211 15.0443 61.259 28.3157 68.9865C41.5871 76.714 50.5586 74.2896 50.5586 74.2896M12.6403 52.211C14.4783 4.84229 42.4872 -4.34634 59.5508 5.58921C76.6143 15.5247 77.9225 26.4842 74.6392 32.2206C71.3559 37.9571 63.479 38.4695 65.8823 47.5171M12.6403 52.211L3.88292 67.5047C1.46477 71.7287 2.90009 77.1294 7.08843 79.5682L29.8394 92.8153C34.0277 95.2541 39.3833 93.8068 41.8015 89.5828L50.5586 74.2896M50.5586 74.2896C59.8229 66.9368 74.7759 62.8932 79.1543 55.245C83.5328 47.5968 81.1289 38.5488 72.45 36.0448" stroke="#202403" stroke-opacity="0.6" stroke-width="4" stroke-linecap="round" stroke-linejoin="round"/>
</svg>
