<svg width="92" height="92" viewBox="0 0 92 92" fill="none" xmlns="http://www.w3.org/2000/svg">
<path d="M91.5679 5.45106L86.5614 0.444525C86.2832 0.166384 85.9057 0.00744629 85.5084 0.00744629C85.1111 0.00744629 84.7336 0.166384 84.4554 0.444525L57.893 27.007C56.6414 28.0003 55.4096 28.4771 54.1381 28.4771H47.0256C46.6283 28.4771 46.2508 28.6361 45.9727 28.9142L1.43044 73.4565C0.516547 74.3704 0 75.5823 0 76.8736C0 78.165 0.49668 79.3769 1.43044 80.2908L11.7018 90.5621C12.6157 91.476 13.8276 91.9926 15.1189 91.9926C16.4103 91.9926 17.6222 91.4959 18.5361 90.5621L27.9531 81.1451C29.7213 83.7675 32.7213 85.4562 36.198 85.4562C41.5224 85.4562 45.8535 81.006 45.8535 75.5425C45.8535 72.2048 44.1449 69.2645 41.582 67.5162L63.0982 46.0397C63.3763 45.7616 63.5353 45.3841 63.5353 44.9868V37.8545C63.5353 36.583 64.0121 35.3512 65.0055 34.0995L91.5679 7.53711C92.144 6.98083 92.144 6.02721 91.5679 5.45106ZM33.0987 81.7609C30.814 80.6484 29.2842 78.3041 29.2842 75.5425C29.2842 71.8274 32.2842 68.9069 36.1384 68.8671C36.2775 70.8539 36.3967 74.1518 36.0788 75.7809C35.7212 77.5292 33.9729 80.4497 33.0987 81.7609ZM42.9131 75.5624C42.9131 79.4365 39.9728 82.496 36.2378 82.496C36.2179 82.496 36.198 82.496 36.198 82.496C37.1516 80.9464 38.6218 78.3637 39.0192 76.3769C39.3768 74.5889 39.2973 71.5691 39.1781 69.5625C41.3834 70.6552 42.9131 72.9201 42.9131 75.5624ZM62.8399 32.0731C62.8002 32.1128 62.7605 32.1526 62.7207 32.1923C61.2704 34.0002 60.5552 35.9075 60.5552 37.8743V44.3709L38.7013 66.2248C37.9066 66.0063 37.0722 65.9069 36.2179 65.9069C30.7544 65.9069 26.3042 70.238 26.3042 75.5624C26.3042 76.4961 26.4234 77.41 26.6618 78.2643L16.45 88.4761C16.0924 88.8337 15.6355 89.0323 15.1388 89.0323C14.6421 89.0323 14.1852 88.8337 13.8276 88.4761L3.55623 78.2047C3.19862 77.8471 2.99995 77.3902 2.99995 76.8935C2.99995 76.3968 3.19862 75.9399 3.55623 75.5823L47.6614 31.4771H54.158C56.1248 31.4771 58.0321 30.742 59.84 29.3116C59.8797 29.2718 59.9194 29.2321 59.9592 29.1924L85.5283 3.62328L88.4289 6.52389L62.8399 32.0731Z" fill="#202403" fill-opacity="0.6"/>
</svg>
