<svg width="94" height="74" viewBox="0 0 94 74" fill="none" xmlns="http://www.w3.org/2000/svg">
<path d="M92.8363 30.0942L78.6044 12.6362C78.4202 12.4063 78.1193 12.3296 77.8589 12.4384C77.6006 12.5497 77.43 12.829 77.43 13.138L77.4636 16.5075L77.1403 16.7053V13.1306C77.1403 12.8933 77.0392 12.6683 76.8641 12.5299C76.6889 12.3915 76.4644 12.3544 76.2556 12.4261C75.546 12.6856 59.0887 18.7818 55.222 29.9137L50.0192 13.3259C49.9249 13.0268 49.6711 12.8265 49.3837 12.8265L48.1509 12.8216C49.249 11.86 49.9698 10.4187 50.0416 8.77971H50.3313C50.7041 8.77971 51.0072 8.44845 51.0072 8.03808C51.0072 7.80076 50.8904 7.61535 50.7355 7.47938C50.749 7.425 50.7894 7.38792 50.7894 7.32859C50.7894 3.83798 48.2161 1 45.0432 1C41.8703 1 39.2969 3.83798 39.2969 7.32859C39.2969 7.38792 39.3419 7.425 39.3531 7.47938C39.1959 7.61535 39.0814 7.80076 39.0814 8.03808C39.0814 8.44845 39.3823 8.77971 39.755 8.77971H40.0469C40.1188 10.4064 40.8284 11.8352 41.9085 12.7969L32.6099 12.7573C32.4302 12.7573 32.2573 12.834 32.1316 12.9749L23.6279 22.3367C23.4348 22.5469 23.3764 22.8682 23.4819 23.1451C23.5852 23.422 23.8322 23.6024 24.1039 23.6024H27.6473C27.8157 23.6024 27.9774 23.5332 28.1031 23.4071L32.8816 18.5964L37.898 18.2157L30.443 27.8396C30.3217 27.9954 30.2656 28.2006 30.2858 28.4033C30.2925 28.4799 30.3576 28.5244 30.3846 28.5936C30.3352 28.6974 30.2633 28.7889 30.2633 28.915C30.2633 29.3006 30.3374 29.664 30.3666 30.0423L29.7918 30.0027C29.5133 30.0027 29.2708 30.0447 29.0036 30.0546H1.67365C1.3009 30.0546 1 30.3859 1 30.7963C1 31.7554 1.37949 32.6503 2.12724 33.4513C3.99549 35.4562 8.19008 36.7491 12.7125 36.7491C12.9371 36.7491 13.1594 36.7466 13.3839 36.7392C15.3195 36.6823 17.5965 36.3733 19.5703 35.9185C18.9932 37.1248 18.5396 38.4993 18.2342 40.0815C17.4932 43.9305 18.8045 48.719 21.7708 51.6658C21.717 51.7424 21.6361 51.8017 21.6159 51.908L20.0935 59.3293C20.0149 59.71 20.2147 60.0882 20.5515 60.2044L23.8794 61.3391L23.1451 66.1028C23.0912 66.4638 23.2821 66.8173 23.5964 66.9335L38.9916 72.555C39.0612 72.5797 39.133 72.5921 39.2049 72.5921H43.1031C43.4084 72.5921 43.6757 72.3671 43.7543 72.0384C43.8328 71.7145 43.7026 71.3709 43.4376 71.2077L31.3209 63.5393C31.3771 63.4231 31.4467 63.2747 31.5141 63.1289L39.3845 65.6529C39.4451 65.6776 39.5103 65.6875 39.5731 65.6875C39.7011 65.6875 39.8269 65.643 39.9392 65.5689C40.1031 65.4502 40.2131 65.2623 40.2401 65.0497L40.6555 61.8681C40.6981 61.5344 40.5365 61.2105 40.258 61.082L33.7663 57.982C33.7461 57.9721 33.7236 57.9869 33.7034 57.982C34.0178 57.1662 34.3321 56.3059 34.6308 55.4233C35.8277 55.8139 39.0679 56.7261 43.4915 56.7261C46.4578 56.7261 49.9406 56.3108 53.6502 55.0402C53.6973 55.0253 53.7153 54.9685 53.7647 54.9388C54.2789 55.1415 54.856 55.3245 55.4645 55.495L54.8088 58.6346L44.6345 59.4158C44.3381 59.4405 44.0888 59.6729 44.026 59.9893L43.3927 63.0795C43.3501 63.2871 43.3905 63.5096 43.505 63.6826C43.6218 63.8532 43.7992 63.962 43.9923 63.9818L56.8208 65.1659C56.8388 65.1659 56.8612 65.1659 56.8747 65.1659C57.0925 65.1659 57.2946 65.0547 57.4203 64.8618L62.713 56.8275C62.7309 56.8003 62.7175 56.7731 62.7309 56.7435C63.5955 56.8324 64.3836 56.8967 64.9922 56.9437L53.9847 71.1039C53.8343 71.3066 53.7826 71.5785 53.859 71.8282C53.9376 72.0804 54.1262 72.2633 54.362 72.3152L57.3395 72.9852C57.3867 72.9951 57.4293 73 57.4787 73C57.6449 73 57.8111 72.9308 57.9391 72.7973L73.4779 56.6273C73.6194 56.474 73.7024 56.2589 73.6845 56.0364L73.433 52.0193C73.4128 51.7103 73.2197 51.4457 72.9502 51.3592L66.9165 49.4285L75.4382 35.8023C79.6081 35.1892 83.0639 33.8592 85.2398 32.1015C86.385 32.7121 87.8625 33.3994 88.7809 33.3994C88.8281 33.3994 88.8685 33.3994 88.9157 33.3944C90.0339 33.303 92.2839 31.5453 92.7218 31.1918C92.8767 31.0682 92.9755 30.8803 92.9958 30.6702C93.016 30.4601 92.9643 30.2499 92.8363 30.0942ZM75.793 14.1837V17.5334L57.0072 29.0905C60.8694 20.804 72.4899 15.5409 75.793 14.1837ZM42.5664 29.6566H52.5117C52.368 32.2474 51.4159 34.6527 49.8485 36.5884L42.5664 29.6566ZM41.4391 28.1734L46.6577 19.1527L52.377 28.1734H41.4391ZM46.1143 12.3643V8.77971H48.6966C48.5933 10.478 47.5424 11.8822 46.1143 12.3643ZM45.0454 2.48573C47.4616 2.48573 49.4241 4.64388 49.4421 7.29892H40.6487C40.6667 4.64141 42.6293 2.48573 45.0454 2.48573ZM41.3965 8.77971H44.767V12.5274C42.9571 12.3741 41.52 10.7796 41.3965 8.77971ZM39.9661 17.835C40.1413 17.6076 40.1772 17.2862 40.0559 17.0192C39.9324 16.7522 39.6764 16.5916 39.407 16.6113L32.5582 17.1305C32.4055 17.1428 32.2618 17.2096 32.1495 17.3233L27.3891 22.1142H25.7341L32.8905 14.2356L48.9032 14.3024L52.4915 25.7507L47.1899 17.3876C47.0596 17.1849 46.8171 17.081 46.624 17.0711C46.3994 17.0761 46.1906 17.2046 46.0694 17.4148L39.8426 28.1783C39.663 28.4873 39.7169 28.8977 39.9706 29.1375L50.3672 39.0333L41.7872 49.0527H40.1704L45.0903 39.8738C45.2655 39.545 45.1891 39.1272 44.9152 38.8998L31.9407 28.1931L39.9661 17.835ZM43.1996 40.3584C42.8179 40.4226 42.5147 40.482 42.0746 40.482C36.6001 40.482 32.1428 35.7899 31.7004 29.8593L43.6195 39.6958L43.2715 40.3534L43.1996 40.3584ZM13.3525 35.2559C9.00744 35.4043 4.76121 34.2003 3.07035 32.3883C2.80987 32.1114 2.62125 31.8247 2.49999 31.5354H23.4482C22.3457 32.1881 21.4071 33.0508 20.6301 34.1262C18.5351 34.7368 15.6361 35.1917 13.3525 35.2559ZM21.5485 58.9881L22.8622 52.5755C23.5313 53.0773 24.2431 53.5174 25.0403 53.8214L24.1106 59.8558L21.5485 58.9881ZM33.2363 59.3392L39.2565 62.2117L39.0252 63.9892L32.1338 61.7742C32.4527 61.0548 32.812 60.2192 33.1914 59.2823C33.2094 59.2996 33.2139 59.3268 33.2363 59.3392ZM36.3935 44.9219C36.3239 44.5214 35.9759 44.2569 35.6053 44.3335C35.2393 44.4101 34.9991 44.7983 35.0687 45.2037C36.0342 50.8475 29.8973 63.3489 29.8344 63.475C29.6593 63.831 29.7738 64.271 30.0904 64.4737L40.5814 71.1088H39.3172L24.5732 65.7246L26.4662 53.4308C26.5246 53.06 26.3135 52.6917 25.9789 52.5903C20.839 51.0502 18.7754 44.4497 19.5568 40.393C20.6683 34.6255 23.684 31.8123 28.9183 31.5379H29.6076C29.6525 31.5379 29.6795 31.4934 29.7221 31.486C29.7311 31.486 29.7401 31.4835 29.7491 31.4835L30.4901 31.5354C30.4946 31.5354 30.4991 31.5305 30.5036 31.5305C31.6016 37.4759 36.3711 41.9652 42.0724 41.9652C42.2004 41.9652 42.2992 41.9504 42.4114 41.9454L38.4032 49.4211C38.2797 49.651 38.2775 49.9328 38.3987 50.1677C38.52 50.3951 38.7423 50.536 38.9848 50.536H41.401V55.1341C38.3246 54.9215 36.0634 54.3134 35.0934 54.0093C36.1083 50.7412 36.8067 47.342 36.3935 44.9219ZM56.5626 63.653L44.8815 62.5702L45.234 60.8496L55.4061 60.066C55.7048 60.0462 55.9473 59.8089 56.0147 59.4974L56.7826 55.8238C58.2467 56.1526 59.7938 56.3899 61.2287 56.5729L56.5626 63.653ZM67.4667 45.9379C67.8529 43.8638 67.8754 41.3324 66.5999 39.063C66.4068 38.7119 65.9914 38.6007 65.6725 38.8182C65.3559 39.0333 65.2549 39.4882 65.4525 39.8367C67.7159 43.886 64.9607 49.3247 64.936 49.3791C64.835 49.5768 64.8193 49.8166 64.8978 50.0243C64.9742 50.2369 65.1359 50.3926 65.3335 50.4594L72.1216 52.6348L72.3215 55.7843L57.2721 71.4475L55.7564 71.1064L66.9076 56.7706C67.0737 56.5531 67.1186 56.254 67.0131 55.9919C66.9121 55.7348 66.6853 55.5593 66.4225 55.5445C66.3507 55.5445 60.7325 55.2676 56.5311 54.254C56.4907 54.2343 56.4772 54.1898 56.4346 54.1799C56.3919 54.1675 56.365 54.1997 56.3201 54.1997C55.0491 53.8808 53.9129 53.4902 53.127 53.0155C50.5693 51.4606 49.0896 50.2295 48.0791 47.8142C47.9241 47.4434 47.5244 47.2778 47.1876 47.4533C46.8485 47.6214 46.7003 48.0614 46.8575 48.4322C48.0387 51.2653 49.8732 52.6917 51.9885 54.0093C48.6023 54.9981 45.4316 55.275 42.7438 55.2058V50.0984L51.8201 39.4956C51.9481 39.3497 52.0109 39.152 52.0042 38.9493C51.9952 38.7465 51.9099 38.5587 51.7707 38.4276L50.8545 37.555C52.2108 35.8715 53.1517 33.8839 53.5805 31.7184C55.7272 34.6923 61.1479 36.1706 70.1456 36.1706C71.3581 36.1706 72.5325 36.1162 73.6688 36.0099L67.4667 45.9379ZM83.2278 31.7629C81.5482 32.7665 79.2578 33.6046 76.4913 34.1237L78.0744 31.5923C80.0347 32.5885 82.0175 32.1979 83.2278 31.7629ZM88.8236 31.9087C88.3498 31.9285 87.3753 31.5354 86.3805 31.0361C87.2675 30.0175 87.748 28.8927 87.748 27.7037C87.748 27.2933 87.4471 26.962 87.0744 26.962C86.7016 26.962 86.4007 27.2933 86.4007 27.7037C86.4007 28.5911 85.9359 29.4959 85.0894 30.3463C84.8491 30.2054 84.6111 30.0695 84.3977 29.9384C84.1934 29.8124 83.9442 29.8124 83.7376 29.9384C83.5422 30.0596 78.9412 32.8234 76.0063 27.4738C75.8132 27.1227 75.3978 27.009 75.0812 27.2216C74.7646 27.4342 74.659 27.8891 74.8499 28.2401C75.4809 29.3896 76.186 30.2153 76.909 30.8185L74.6725 34.4006C73.2556 34.581 71.7466 34.6874 70.1411 34.6874C62.466 34.6874 57.4832 33.6243 55.2287 31.5354H55.597H55.6015C55.6105 31.5354 55.615 31.5305 55.6195 31.5305C55.7317 31.528 55.8373 31.5008 55.9338 31.4415L78.4584 17.5878C78.674 17.4568 78.8064 17.2046 78.802 16.9327L78.784 15.0885L91.3116 30.4576C90.3236 31.1967 89.2278 31.8766 88.8236 31.9087ZM80.4951 21.867C80.6388 21.5283 81.1103 21.4814 81.5505 21.7583C81.9816 22.0376 82.2174 22.5394 82.0692 22.8781C81.921 23.2193 81.4472 23.2662 81.0093 22.9869C80.5782 22.71 80.3491 22.2082 80.4951 21.867Z" fill="#202403" fill-opacity="0.6" stroke="#202403" stroke-opacity="0.6"/>
</svg>
