<svg width="92" height="86" viewBox="0 0 92 86" fill="none" xmlns="http://www.w3.org/2000/svg">
<path d="M82.5382 2.73195L33.8206 51.4495M9.4618 2.73195L58.1794 51.4495M11.4917 65.6588L5.402 71.7485C3.15984 73.9907 3.15984 77.626 5.402 79.8681C7.64417 82.1103 11.2794 82.1103 13.5216 79.8681L19.6113 73.7784M80.5083 65.6588L86.598 71.7485C88.8402 73.9907 88.8402 77.626 86.598 79.8681C84.3558 82.1103 80.7206 82.1103 78.4784 79.8681L72.3887 73.7784M17.5813 47.3897C28.7921 47.3897 37.8803 56.4779 37.8803 67.6887C37.8803 73.6959 35.2695 79.0917 31.1222 82.8079C30.3694 83.4825 29.2296 83.3946 28.5149 82.6799L2.58816 56.7532C1.87339 56.0384 1.78553 54.8986 2.46018 54.1459C6.17678 49.999 11.5743 47.3897 17.5813 47.3897ZM74.4187 47.3897C63.2079 47.3897 54.1197 56.4779 54.1197 67.6887C54.1197 73.6959 56.7305 79.0917 60.8778 82.8079C61.6306 83.4825 62.7704 83.3946 63.4851 82.6799L89.4118 56.7532C90.1266 56.0384 90.2145 54.8986 89.5398 54.1459C85.8232 49.999 80.4257 47.3897 74.4187 47.3897Z" stroke="#202403" stroke-opacity="0.6" stroke-width="4" stroke-linecap="round" stroke-linejoin="round"/>
</svg>
