<svg width="97" height="96" viewBox="0 0 97 96" fill="none" xmlns="http://www.w3.org/2000/svg">
<path fill-rule="evenodd" clip-rule="evenodd" d="M7.34051 44.5382L9.10923 43.3688C11.763 41.6149 13.5159 40.4499 14.7581 39.4087C15.9341 38.4223 16.3804 37.7628 16.6144 37.1454C16.8486 36.5277 16.9518 35.7371 16.7253 34.2173C16.4861 32.6124 15.9463 30.5761 15.1233 27.5011L14.3764 24.7103C10.4582 30.4456 7.94692 37.2209 7.34051 44.5382ZM19.618 18.46C19.6596 18.5687 19.696 18.6806 19.7268 18.7956L21.6413 25.9488C22.4035 28.7965 23.0476 31.2027 23.3498 33.2299C23.5048 34.2699 23.5835 35.2873 23.535 36.2952L34.6971 40.9991C34.9477 40.746 35.2177 40.5075 35.5063 40.287L43.7067 34.0153C44.1465 33.6787 44.614 33.395 45.0998 33.1642V21.0657C44.1693 20.745 43.274 20.3092 42.3855 19.798C40.6101 18.7764 38.6074 17.2978 36.2375 15.5483L30.0843 11.0062C26.2099 12.938 22.6818 15.4621 19.618 18.46ZM37.5126 8.16482L40.0654 10.0492C42.6252 11.9386 44.3215 13.1844 45.7263 13.9927C47.0564 14.7581 47.8276 14.9495 48.4848 14.9566C49.1421 14.9637 49.9172 14.7891 51.2635 14.0527C52.6852 13.2749 54.4078 12.0661 57.0078 10.2325L59.7816 8.27609C56.1805 7.24804 52.3788 6.69767 48.4487 6.69767C44.6627 6.69767 40.9955 7.20839 37.5126 8.16482ZM67.1861 11.1949C67.057 11.3219 66.9164 11.4401 66.7637 11.5478L60.7161 15.813C58.309 17.5108 56.2747 18.9458 54.4775 19.9287C53.5974 20.41 52.7128 20.8191 51.7975 21.1179V33.1642C52.2828 33.395 52.7503 33.6787 53.1902 34.0153L61.3908 40.287C61.6842 40.5116 61.9588 40.7545 62.2128 41.0125L73.6471 36.2777C73.6002 35.2756 73.6792 34.2642 73.8333 33.2303C74.1351 31.2032 74.7794 28.7969 75.5416 25.9491L77.4563 18.796C77.4674 18.7537 77.4795 18.7118 77.4924 18.6704C74.4776 15.6774 71.0037 13.1472 67.1861 11.1949ZM82.7256 25.0133L82.0598 27.5015C81.2365 30.5765 80.6971 32.6128 80.4577 34.2177C80.2314 35.7375 80.3345 36.5281 80.5685 37.1458C80.8024 37.7632 81.2489 38.4227 82.4251 39.4087C83.6673 40.4504 85.4198 41.6153 88.0739 43.3692L89.5393 44.3382C88.9156 37.2258 86.491 30.6311 82.7256 25.0133ZM96.3638 49.795C96.3857 49.1993 96.3969 48.601 96.3969 48C96.3969 21.494 74.9335 0 48.4487 0C21.9636 0 0.5 21.494 0.5 48C0.5 74.5058 21.9636 96 48.4487 96C73.5654 96 94.1661 76.6692 96.2272 52.065C96.5438 51.3332 96.5795 50.5295 96.3638 49.795ZM89.4759 52.3249L84.2254 48.8542C81.7682 47.2302 79.6911 45.8572 78.1216 44.5409C77.3679 43.9095 76.6776 43.2482 76.0748 42.5218L64.4106 47.3517C64.357 47.8375 64.2574 48.3224 64.1096 48.801L60.8889 59.236C60.7768 59.5995 60.6398 59.9504 60.4799 60.2867L67.0351 67.8689C68.0376 67.534 69.0864 67.3344 70.1804 67.2089C72.2151 66.9767 74.704 66.9767 77.6483 66.9767H85.0456C85.0631 66.9767 85.08 66.9767 85.097 66.9772C87.4099 62.5081 88.9316 57.562 89.4759 52.3249ZM80.7631 73.6744H77.834C74.654 73.6744 72.5505 73.6793 70.9408 73.8633C69.4173 74.0374 68.6828 74.3415 68.1492 74.7269C67.6147 75.1122 67.0941 75.7145 66.4466 77.1077C65.763 78.5789 65.0928 80.5757 64.0873 83.5959L63.0773 86.63C70.0844 83.9683 76.1797 79.4496 80.7631 73.6744ZM55.3178 88.7321L57.791 81.304C58.7224 78.507 59.5092 76.1436 60.3727 74.2853C60.7612 73.4489 61.1894 72.6591 61.6908 71.9281L55.2861 64.52C54.6873 64.6669 54.0644 64.7442 53.4277 64.7442H43.4692C42.8784 64.7442 42.2997 64.6777 41.7412 64.5508L36.0416 71.8093C36.5785 72.5733 37.0322 73.4034 37.442 74.2853C38.3055 76.1436 39.0923 78.507 40.0234 81.304L42.5467 88.8826C44.4743 89.1594 46.4447 89.3023 48.4487 89.3023C50.7888 89.3023 53.0839 89.1072 55.3178 88.7321ZM34.8642 87.0104L33.7273 83.5959C32.7218 80.5757 32.0516 78.5789 31.368 77.1077C30.7206 75.7145 30.1996 75.1122 29.6655 74.7269C29.1316 74.3415 28.3973 74.0374 26.8736 73.8633C25.264 73.6793 23.1605 73.6744 19.9804 73.6744H16.1338C20.9435 79.7349 27.418 84.4112 34.8642 87.0104ZM11.864 67.1004C12.1518 67.0201 12.4553 66.9767 12.7688 66.9767H20.1663C23.1107 66.9767 25.5995 66.9767 27.6342 67.2089C28.6823 67.329 29.6886 67.517 30.6525 67.8274L36.477 60.4099C36.2914 60.0362 36.134 59.6441 36.008 59.236L32.7872 48.801C32.6377 48.317 32.5375 47.8263 32.4843 47.3347L21.0963 42.5356C20.496 43.2563 19.8099 43.9131 19.0615 44.5404C17.4917 45.8567 15.4149 47.2298 12.9575 48.8537L7.43982 52.5013C8.00479 57.7215 9.54115 62.6492 11.864 67.1004ZM48.4487 39.1073C48.2098 39.1073 47.9749 39.1827 47.7753 39.3354L39.5751 45.6071C39.3869 45.7509 39.2545 45.9456 39.1869 46.1648C39.1215 46.3765 39.1187 46.6051 39.1869 46.8257L42.4078 57.2607C42.4766 57.4844 42.6092 57.6714 42.7833 57.8085C42.9762 57.9608 43.2142 58.0465 43.4692 58.0465H53.4277C53.6827 58.0465 53.9207 57.9608 54.1135 57.8085C54.2877 57.6714 54.4203 57.4844 54.4891 57.2607L57.7098 46.8257C57.7781 46.6051 57.7754 46.3765 57.7102 46.1648C57.6423 45.9456 57.5102 45.7509 57.3217 45.6071L49.1215 39.3354C48.922 39.1827 48.6871 39.1073 48.4487 39.1073Z" fill="#202020" fill-opacity="0.6"/>
</svg>
