<svg width="86" height="90" viewBox="0 0 86 90" fill="none" xmlns="http://www.w3.org/2000/svg">
<path fill-rule="evenodd" clip-rule="evenodd" d="M25.4405 67.5761L26.2112 67.0665C27.3676 66.3023 28.1314 65.7946 28.6726 65.3409C29.1851 64.9111 29.3795 64.6237 29.4815 64.3547C29.5836 64.0856 29.6285 63.7411 29.5298 63.0788C29.4256 62.3795 29.1904 61.4922 28.8318 60.1523L28.5063 58.9363C26.799 61.4354 25.7048 64.3876 25.4405 67.5761ZM30.7903 56.2128C30.8084 56.2601 30.8243 56.3089 30.8377 56.359L31.6719 59.4759C32.0041 60.7168 32.2847 61.7653 32.4164 62.6486C32.4839 63.1018 32.5182 63.5451 32.4971 63.9843L37.3609 66.034C37.4701 65.9236 37.5877 65.8197 37.7135 65.7236L41.2867 62.9908C41.4783 62.8442 41.6821 62.7205 41.8937 62.62V57.3482C41.4883 57.2084 41.0982 57.0185 40.711 56.7958C39.9374 56.3506 39.0647 55.7063 38.0321 54.944L35.3509 52.9649C33.6627 53.8066 32.1253 54.9064 30.7903 56.2128ZM38.5877 51.7267L39.7 52.5479C40.8155 53.3711 41.5546 53.914 42.1667 54.2662C42.7463 54.5997 43.0823 54.6831 43.3687 54.6862C43.6551 54.6893 43.9929 54.6132 44.5795 54.2923C45.199 53.9534 45.9496 53.4267 47.0825 52.6277L48.2912 51.7752C46.722 51.3273 45.0655 51.0875 43.353 51.0875C41.7033 51.0875 40.1053 51.31 38.5877 51.7267ZM51.5176 53.0471C51.4614 53.1024 51.4001 53.1539 51.3335 53.2009L48.6984 55.0594C47.6495 55.7992 46.7631 56.4244 45.9799 56.8527C45.5965 57.0625 45.211 57.2407 44.8122 57.3709V62.62C45.0237 62.7205 45.2274 62.8442 45.419 62.9908L48.9924 65.7236C49.1202 65.8215 49.2398 65.9273 49.3505 66.0398L54.3329 63.9766C54.3125 63.54 54.3469 63.0993 54.414 62.6488C54.5456 61.7655 54.8263 60.7169 55.1584 59.4761L55.9927 56.3592C55.9976 56.3407 56.0028 56.3225 56.0085 56.3045C54.6948 55.0003 53.1811 53.8978 51.5176 53.0471ZM58.2888 59.0683L57.9987 60.1525C57.6399 61.4924 57.4049 62.3797 57.3006 63.079C57.2019 63.7413 57.2469 64.0858 57.3488 64.3549C57.4508 64.6239 57.6453 64.9113 58.1578 65.3409C58.6991 65.7948 59.4627 66.3025 60.6192 67.0667L61.2578 67.4889C60.986 64.3897 59.9295 61.5162 58.2888 59.0683ZM64.2315 69.8666C64.241 69.6071 64.2459 69.3464 64.2459 69.0845C64.2459 57.5348 54.8934 48.169 43.353 48.169C31.8124 48.169 22.4598 57.5348 22.4598 69.0845C22.4598 80.6341 31.8124 90 43.353 90C54.2973 90 63.2738 81.5768 64.1719 70.8558C64.3099 70.5369 64.3255 70.1867 64.2315 69.8666ZM61.2302 70.969L58.9423 69.4567C57.8716 68.7491 56.9665 68.1508 56.2826 67.5772C55.9542 67.3021 55.6534 67.014 55.3907 66.6974L50.3082 68.802C50.2848 69.0137 50.2414 69.225 50.177 69.4336L48.7737 73.9805C48.7248 74.1389 48.6651 74.2918 48.5954 74.4383L51.4518 77.7422C51.8886 77.5962 52.3456 77.5093 52.8223 77.4546C53.7089 77.3534 54.7934 77.3534 56.0764 77.3534H59.2997C59.3073 77.3534 59.3147 77.3534 59.3221 77.3536C60.3299 75.4062 60.993 73.2511 61.2302 70.969ZM57.4337 80.2719H56.1573C54.7716 80.2719 53.8551 80.274 53.1537 80.3542C52.4898 80.43 52.1698 80.5625 51.9373 80.7304C51.7044 80.8984 51.4775 81.1608 51.1954 81.7679C50.8975 82.4089 50.6055 83.279 50.1673 84.595L49.7272 85.9171C52.7805 84.7573 55.4365 82.7883 57.4337 80.2719ZM46.3461 86.8331L47.4238 83.5964C47.8297 82.3776 48.1725 81.3478 48.5488 80.538C48.718 80.1736 48.9046 79.8294 49.1231 79.5109L46.3323 76.2829C46.0714 76.3469 45.8 76.3806 45.5225 76.3806H41.1832C40.9258 76.3806 40.6736 76.3516 40.4302 76.2964L37.9467 79.4592C38.1807 79.7921 38.3783 80.1538 38.5569 80.538C38.9332 81.3478 39.276 82.3776 39.6818 83.5964L40.7812 86.8987C41.6212 87.0193 42.4798 87.0816 43.353 87.0816C44.3727 87.0816 45.3727 86.9965 46.3461 86.8331ZM37.4337 86.0829L36.9383 84.595C36.5001 83.279 36.2081 82.4089 35.9102 81.7679C35.6281 81.1608 35.4011 80.8984 35.1684 80.7304C34.9357 80.5625 34.6158 80.43 33.9518 80.3542C33.2505 80.274 32.3339 80.2719 30.9482 80.2719H29.2721C31.3679 82.9127 34.1891 84.9503 37.4337 86.0829ZM27.4116 77.4073C27.537 77.3723 27.6692 77.3534 27.8058 77.3534H31.0292C32.3122 77.3534 33.3967 77.3534 34.2833 77.4546C34.74 77.5069 35.1784 77.5888 35.5985 77.7241L38.1364 74.492C38.0556 74.3291 37.987 74.1583 37.9321 73.9805L36.5286 69.4336C36.4635 69.2226 36.4198 69.0088 36.3967 68.7946L31.4345 66.7034C31.1729 67.0175 30.8739 67.3037 30.5478 67.577C29.8638 68.1506 28.9588 68.7489 27.8881 69.4565L25.4838 71.0459C25.73 73.3205 26.3994 75.4677 27.4116 77.4073ZM43.353 65.2096C43.2489 65.2096 43.1465 65.2425 43.0596 65.309L39.4864 68.0418C39.4044 68.1045 39.3467 68.1893 39.3173 68.2849C39.2888 68.3771 39.2875 68.4767 39.3173 68.5728L40.7207 73.1197C40.7507 73.2172 40.8085 73.2987 40.8843 73.3585C40.9684 73.4248 41.0721 73.4622 41.1832 73.4622H45.5225C45.6336 73.4622 45.7373 73.4248 45.8214 73.3585C45.8973 73.2987 45.955 73.2172 45.985 73.1197L47.3884 68.5728C47.4181 68.4767 47.417 68.3771 47.3886 68.2849C47.359 68.1893 47.3014 68.1045 47.2193 68.0418L43.6462 65.309C43.5592 65.2425 43.4569 65.2096 43.353 65.2096Z" fill="#202403" fill-opacity="0.6"/>
<path d="M83.4126 0H2.58739C1.66143 0 0.910522 0.750736 0.910522 1.67687V41.0834C0.910522 42.0095 1.66143 42.7602 2.58739 42.7602H83.4126C84.3386 42.7602 85.0895 42.0095 85.0895 41.0834V1.67687C85.0895 0.750736 84.3386 0 83.4126 0ZM4.26427 9.61585C9.55882 10.4201 13.6485 15.3876 13.6485 21.3801C13.6485 27.3726 9.55882 32.3403 4.26427 33.1444V9.61585ZM41.3231 39.4065H17.3846C18.0775 38.8794 18.7404 38.2969 19.3685 37.6624C20.0202 37.0042 20.0148 35.9426 19.3568 35.2909C18.6984 34.6395 17.6371 34.6447 16.9852 35.3028C15.9546 36.3437 14.8161 37.211 13.6013 37.8809C13.0294 38.196 12.7157 38.7959 12.736 39.4067H4.26427V36.5293C11.4133 35.7207 17.0023 29.2356 17.0023 21.3801C17.0023 13.5246 11.4133 7.03951 4.26427 6.23092V3.35374H12.731C12.7117 3.96379 13.0256 4.5626 13.5969 4.87718C14.812 5.54625 15.9506 6.41303 16.9813 7.45319C17.3092 7.78421 17.7408 7.94988 18.1726 7.94988C18.5992 7.94988 19.0259 7.78823 19.3528 7.46426C20.0108 6.81246 20.0156 5.75083 19.3637 5.09283C18.737 4.46031 18.0757 3.87944 17.3846 3.35374H41.3231V39.4065ZM81.7357 33.1201C76.5225 32.2377 72.5191 27.3095 72.5191 21.3801C72.5191 15.4507 76.5225 10.5225 81.7357 9.64017V33.1201ZM81.7357 6.25121C74.6672 7.14146 69.1654 13.586 69.1654 21.3799C69.1654 29.1739 74.6672 35.6183 81.7357 36.5087V39.4063H73.4315V39.4065C73.4518 38.7958 73.1381 38.196 72.5663 37.8807C71.3514 37.211 70.2129 36.3435 69.1823 35.3027C68.5305 34.6445 67.4691 34.6393 66.8107 35.2908C66.1527 35.9424 66.1474 37.004 66.799 37.6622C67.4272 38.2966 68.09 38.8793 68.7829 39.4063H44.6769V3.35357H68.7834C68.0924 3.87927 67.431 4.46014 66.8044 5.09266C66.1524 5.7505 66.1574 6.81229 66.8153 7.46409C67.1423 7.78806 67.5689 7.94971 67.9954 7.94971C68.4271 7.94971 68.8587 7.78404 69.1867 7.45302C70.2173 6.41286 71.3561 5.54609 72.5711 4.87701C73.1424 4.56243 73.4563 3.96362 73.4371 3.35357H81.7357V6.25121Z" fill="#202403" fill-opacity="0.6"/>
<path d="M23.7656 17.338C22.8442 17.4306 22.1721 18.2526 22.2646 19.174C22.3374 19.9001 22.3745 20.6425 22.3745 21.3801C22.3745 22.1153 22.3377 22.8556 22.2653 23.5805C22.1731 24.5021 22.8455 25.3238 23.7669 25.4158C23.8238 25.4215 23.88 25.4244 23.9358 25.4244C24.7868 25.4244 25.5159 24.779 25.6023 23.9142C25.6858 23.0788 25.7282 22.2263 25.7282 21.3801C25.7282 20.531 25.6856 19.6761 25.6016 18.8392C25.509 17.9175 24.6874 17.2456 23.7656 17.338Z" fill="#202403" fill-opacity="0.6"/>
<path d="M23.4874 26.7922C22.6044 26.5117 21.662 26.9996 21.3813 27.8822C20.9329 29.2929 20.3369 30.6351 19.61 31.8713C19.1406 32.6697 19.4074 33.6974 20.2058 34.1666C20.4727 34.3236 20.7653 34.3982 21.0541 34.3982C21.6291 34.3982 22.189 34.1024 22.5014 33.5708C23.3548 32.1191 24.0533 30.5469 24.5775 28.8982C24.8581 28.0158 24.3699 27.0729 23.4874 26.7922Z" fill="#202403" fill-opacity="0.6"/>
<path d="M19.6068 10.8834C20.334 12.1196 20.9305 13.4616 21.3794 14.8723C21.6064 15.5857 22.2663 16.041 22.9768 16.041C23.1453 16.041 23.3167 16.0155 23.4859 15.9615C24.3684 15.6806 24.856 14.7374 24.5752 13.855C24.0503 12.2063 23.3512 10.6344 22.4973 9.18305C22.0278 8.38486 20.9999 8.11841 20.2019 8.58793C19.4035 9.05746 19.1371 10.0852 19.6068 10.8834Z" fill="#202403" fill-opacity="0.6"/>
<path d="M21.2007 22.2186V20.5417C21.2007 19.6155 20.4498 18.8648 19.5238 18.8648C18.5978 18.8648 17.8469 19.6155 17.8469 20.5417V22.2186C17.8469 23.1447 18.5978 23.8954 19.5238 23.8954C20.4498 23.8954 21.2007 23.1447 21.2007 22.2186Z" fill="#202403" fill-opacity="0.6"/>
<path d="M64.7864 27.8824C64.5057 26.9996 63.5619 26.5123 62.6802 26.7924C61.7975 27.0729 61.3096 28.0158 61.5901 28.8985C62.1143 30.5474 62.8129 32.1195 63.6662 33.5711C63.9788 34.1025 64.5386 34.3985 65.1136 34.3985C65.4023 34.3985 65.6949 34.3239 65.9619 34.1669C66.7602 33.6976 67.027 32.6698 66.5577 31.8716C65.8306 30.6351 65.2348 29.2929 64.7864 27.8824Z" fill="#202403" fill-opacity="0.6"/>
<path d="M62.4007 25.4158C63.3222 25.3238 63.9946 24.5019 63.9024 23.5805C63.8299 22.8556 63.7932 22.1153 63.7932 21.3801C63.7932 20.6425 63.8303 19.9001 63.903 19.174C63.9956 18.2526 63.3235 17.4306 62.4021 17.338C61.4798 17.2468 60.6586 17.9177 60.5661 18.8391C60.482 19.6761 60.4395 20.5309 60.4395 21.3801C60.4395 22.2263 60.4819 23.0788 60.5654 23.9142C60.6519 24.779 61.3808 25.4244 62.2319 25.4244C62.2875 25.4244 62.344 25.4215 62.4007 25.4158Z" fill="#202403" fill-opacity="0.6"/>
<path d="M62.6816 15.9616C62.8508 16.0155 63.022 16.0411 63.1907 16.0411C63.9012 16.0411 64.5611 15.5859 64.7881 14.8725C65.2372 13.4618 65.8335 12.1198 66.5606 10.8837C67.0303 10.0855 66.7638 9.05779 65.9655 8.58827C65.1668 8.11857 64.1393 8.3852 63.67 9.18339C62.8161 10.6347 62.117 12.2066 61.5922 13.8553C61.3115 14.7375 61.7991 15.6806 62.6816 15.9616Z" fill="#202403" fill-opacity="0.6"/>
<path d="M66.6439 18.8648C65.7179 18.8648 64.967 19.6155 64.967 20.5417V22.2186C64.967 23.1447 65.7179 23.8954 66.6439 23.8954C67.5699 23.8954 68.3208 23.1447 68.3208 22.2186V20.5417C68.3208 19.6155 67.5699 18.8648 66.6439 18.8648Z" fill="#202403" fill-opacity="0.6"/>
</svg>
