<svg width="88" height="88" viewBox="0 0 88 88" fill="none" xmlns="http://www.w3.org/2000/svg">
<g clip-path="url(#clip0_5143_35706)">
<path d="M25.4375 3.88437C21.2953 4.77812 18.2188 8.57656 18.2188 12.7875C18.2188 14.2656 18.5109 15.4687 19.2328 16.9297C19.8859 18.2531 20.1953 18.5969 27.5344 25.8844C34.375 32.6906 35.2688 33.5156 36.2656 33.9797C37.6234 34.6328 38.8266 34.8906 40.3906 34.8906H41.5938V36.1453C41.5938 40.2187 44.1375 43.6562 48.125 44.9625C49.4141 45.375 51.9922 45.375 53.2812 44.9625C57.2 43.6734 59.8125 40.2187 59.8125 36.3172C59.8125 33.6875 58.9875 31.6594 57.1484 29.8031C55.7047 28.3422 54.3125 27.6031 52.2328 27.2078C51.4422 27.0531 50.7719 26.9156 50.7375 26.8812C50.7031 26.8641 52.5078 24.0969 54.7594 20.7453L58.8156 14.6266L63.1469 14.575L67.4953 14.5234L68.4922 14.0078C73.0641 11.6703 72.1188 4.84687 67.0656 3.79843C66.4297 3.66093 60.1219 3.60937 46.3547 3.62656C30.0094 3.62656 26.3656 3.67812 25.4375 3.88437ZM50.0672 7.88906C49.8953 8.14687 49.3797 8.97187 48.8984 9.67656L48.0391 11H40.3047C34.4953 11 32.4672 11.0516 32.1406 11.2234C31.5563 11.5156 31.0578 12.5812 31.1953 13.2344C31.2641 13.5094 31.5391 13.9391 31.8313 14.1797C32.3125 14.5922 32.4328 14.6094 34.5984 14.6094H36.8672L39.4797 17.2219L42.1094 19.8516L40.3047 22.5672C39.2391 24.1828 38.5 25.4719 38.5 25.7125C38.5 27.3969 40.5109 28.2391 41.6281 27.0187C41.8687 26.7609 44.8594 22.3609 48.2625 17.2562C51.6656 12.1344 54.6391 7.8203 54.8625 7.66562C55.3953 7.28749 56.4094 7.32187 56.9422 7.73437C57.5266 8.19843 57.8188 9.09218 57.5953 9.67656C57.3031 10.45 45.0141 28.7375 44.2234 29.5797C43.175 30.6969 42.0234 31.1781 40.3906 31.1953C37.9672 31.1953 38.2594 31.4187 30.1125 23.3062C21.8969 15.125 21.9313 15.1594 21.9141 12.8906C21.9141 11.7734 21.9828 11.4469 22.4813 10.45C23.1172 9.14375 24.0797 8.23281 25.3859 7.73437C26.1594 7.425 26.8984 7.40781 38.2938 7.39062H50.3937L50.0672 7.88906ZM67.0828 7.73437C67.7359 8.24999 67.9766 9.10937 67.65 9.84843C67.2375 10.8625 66.7391 11 63.7141 11H61.0672L61.2391 10.0719C61.3594 9.45312 61.3594 8.85155 61.2391 8.26718L61.0672 7.39062H63.8516C66.3953 7.39062 66.6875 7.425 67.0828 7.73437ZM45.2719 15.0734C45.1172 15.3484 44.8078 15.8125 44.6188 16.1047C44.4125 16.4141 44.2234 16.6547 44.1719 16.6203C44.1203 16.6031 43.6734 16.1391 43.1578 15.5891L42.2297 14.6094H43.9141H45.5813L45.2719 15.0734ZM53.0234 31.2641C55.0859 32.2609 56.1172 33.8766 56.1172 36.1797C56.1172 37.3312 56.0484 37.7094 55.6359 38.5344C55.1203 39.6 54.2094 40.5109 53.075 41.1125C52.4562 41.4391 52.0781 41.5078 50.7031 41.5078C49.3281 41.5078 48.95 41.4391 48.3313 41.1125C47.1969 40.5109 46.2859 39.6 45.7703 38.5344C45.3578 37.7094 45.2891 37.3312 45.2891 36.1797C45.2891 33.8766 46.3203 32.2609 48.3828 31.2641C49.2422 30.8516 49.6375 30.7656 50.7031 30.7656C51.7687 30.7656 52.1641 30.8516 53.0234 31.2641Z" fill="#202403" fill-opacity="0.6"/>
<path d="M0.584375 62.975L0 63.5594V67.7016C0 72.3594 0.06875 72.7031 1.11719 73.15C1.44375 73.2875 2.26875 73.3906 2.97344 73.3906H4.22813L9.74531 80.4891C13.0453 84.7344 15.4516 87.6734 15.7266 87.7937C16.2938 88.0516 16.7063 88.0516 17.2734 87.7937C17.5484 87.6734 19.9547 84.7344 23.2547 80.4891L28.7719 73.3906H44H59.2281L64.7453 80.4891C68.0453 84.7344 70.4516 87.6734 70.7266 87.7937C71.2938 88.0516 71.7063 88.0516 72.2734 87.7937C72.5484 87.6734 74.9547 84.7344 78.2547 80.4891L83.7719 73.3906H85.1125C85.9891 73.3906 86.6422 73.3047 86.9688 73.1328C87.9313 72.6344 88 72.2734 88 67.8047C88 63.3875 87.9313 62.9922 87.0203 62.5797C86.7281 62.4422 74.2328 62.3906 43.8969 62.3906H1.16875L0.584375 62.975ZM84.3906 67.8047V69.6094H44H3.60938V67.8047V66H44H84.3906V67.8047ZM23.9422 73.5969C21.45 76.8797 16.5859 83.0156 16.4828 83.0156C16.3797 83.0156 13.1656 78.925 9.05781 73.5969C8.9375 73.4422 10.45 73.3906 16.5 73.3906C22.55 73.3906 24.0797 73.4422 23.9422 73.5969ZM78.9422 73.5969C76.45 76.8797 71.5859 83.0156 71.4828 83.0156C71.3797 83.0156 68.1656 78.925 64.0578 73.5969C63.9375 73.4422 65.45 73.3906 71.5 73.3906C77.55 73.3906 79.0797 73.4422 78.9422 73.5969Z" fill="#202403" fill-opacity="0.6"/>
</g>
<defs>
<clipPath id="clip0_5143_35706">
<rect width="88" height="88" fill="white"/>
</clipPath>
</defs>
</svg>
