<svg width="92" height="48" viewBox="0 0 92 48" fill="none" xmlns="http://www.w3.org/2000/svg">
<path d="M90.1673 0.633469H1.83267C0.820669 0.633469 0 1.45395 0 2.46614V45.5339C0 46.5461 0.820669 47.3665 1.83267 47.3665H90.1673C91.1793 47.3665 92 46.5461 92 45.5339V2.46614C92 1.45395 91.1793 0.633469 90.1673 0.633469ZM3.66534 11.1427C9.45181 12.0217 13.9215 17.4508 13.9215 24C13.9215 30.5492 9.45181 35.9785 3.66534 36.8573V11.1427ZM44.1673 43.7012H18.0047C18.762 43.1252 19.4864 42.4885 20.1729 41.795C20.8851 41.0757 20.8792 39.9155 20.1601 39.2033C19.4406 38.4913 18.2807 38.497 17.5682 39.2163C16.4418 40.3538 15.1976 41.3017 13.8698 42.0338C13.2449 42.3782 12.902 43.0339 12.9242 43.7014H3.66534V40.5567C11.4786 39.673 17.5868 32.5853 17.5868 24C17.5868 15.4147 11.4786 8.32702 3.66534 7.4433V4.29881H12.9187C12.8976 4.96553 13.2407 5.61998 13.8651 5.96379C15.193 6.69502 16.4374 7.64233 17.5639 8.77914C17.9222 9.1409 18.394 9.32197 18.8659 9.32197C19.3321 9.32197 19.7985 9.1453 20.1557 8.79123C20.8748 8.07887 20.8802 6.91861 20.1676 6.19947C19.4827 5.50819 18.7599 4.87335 18.0047 4.29881H44.1673V43.7012ZM88.3347 36.8307C82.6371 35.8664 78.2618 30.4803 78.2618 24C78.2618 17.5197 82.6371 12.1337 88.3347 11.1693V36.8307ZM88.3347 7.46548C80.6094 8.43844 74.5964 15.4818 74.5964 23.9998C74.5964 32.5179 80.6094 39.561 88.3347 40.5342V43.701H79.2589V43.7012C79.2811 43.0337 78.9382 42.3782 78.3133 42.0337C76.9855 41.3017 75.7413 40.3536 74.6149 39.2161C73.9026 38.4968 72.7425 38.4911 72.023 39.2031C71.3038 39.9153 71.298 41.0755 72.0102 41.7949C72.6967 42.4882 73.4211 43.125 74.1784 43.701H47.8327V4.29862H74.1789C73.4237 4.87316 72.7009 5.508 72.016 6.19928C71.3035 6.91824 71.309 8.07869 72.0279 8.79105C72.3853 9.14512 72.8515 9.32179 73.3178 9.32179C73.7895 9.32179 74.2612 9.14072 74.6197 8.77895C75.7461 7.64215 76.9906 6.69484 78.3186 5.9636C78.943 5.6198 79.286 4.96535 79.265 4.29862H88.3347V7.46548Z" fill="#202403" fill-opacity="0.6"/>
<path d="M24.9786 19.5824C23.9715 19.6835 23.237 20.5819 23.3381 21.5889C23.4177 22.3825 23.4582 23.1938 23.4582 24C23.4582 24.8034 23.418 25.6126 23.3389 26.4048C23.2381 27.4121 23.973 28.3101 24.98 28.4107C25.0422 28.4169 25.1036 28.42 25.1646 28.42C26.0947 28.42 26.8915 27.7146 26.9859 26.7695C27.0772 25.8565 27.1235 24.9248 27.1235 24C27.1235 23.0719 27.077 22.1376 26.9852 21.223C26.884 20.2157 25.986 19.4814 24.9786 19.5824Z" fill="#202403" fill-opacity="0.6"/>
<path d="M24.6745 29.9149C23.7094 29.6083 22.6795 30.1416 22.3727 31.1062C21.8826 32.648 21.2313 34.1149 20.4368 35.4659C19.9239 36.3384 20.2155 37.4617 21.088 37.9745C21.3798 38.146 21.6996 38.2276 22.0151 38.2276C22.6436 38.2276 23.2555 37.9043 23.5969 37.3233C24.5296 35.7368 25.2931 34.0185 25.8659 32.2166C26.1725 31.2522 25.6391 30.2217 24.6745 29.9149Z" fill="#202403" fill-opacity="0.6"/>
<path d="M20.4334 12.528C21.2282 13.8791 21.8801 15.3458 22.3707 16.8876C22.6188 17.6672 23.34 18.1648 24.1165 18.1648C24.3006 18.1648 24.488 18.1369 24.6729 18.0779C25.6374 17.7709 26.1703 16.7401 25.8634 15.7757C25.2897 13.9738 24.5257 12.2559 23.5925 10.6697C23.0794 9.79737 21.9559 9.50616 21.0838 10.0193C20.2112 10.5325 19.92 11.6557 20.4334 12.528Z" fill="#202403" fill-opacity="0.6"/>
<path d="M22.1753 24.9163V23.0837C22.1753 22.0715 21.3546 21.251 20.3426 21.251C19.3306 21.251 18.51 22.0715 18.51 23.0837V24.9163C18.51 25.9285 19.3306 26.749 20.3426 26.749C21.3546 26.749 22.1753 25.9285 22.1753 24.9163Z" fill="#202403" fill-opacity="0.6"/>
<path d="M69.8106 31.1064C69.5038 30.1416 68.4724 29.6091 67.5087 29.9151C66.544 30.2217 66.0107 31.2522 66.3173 32.217C66.8902 34.019 67.6537 35.7371 68.5864 37.3237C68.928 37.9045 69.5397 38.2279 70.1681 38.2279C70.4837 38.2279 70.8035 38.1464 71.0953 37.9748C71.9678 37.4619 72.2594 36.3386 71.7464 35.4663C70.9518 34.1149 70.3006 32.648 69.8106 31.1064Z" fill="#202403" fill-opacity="0.6"/>
<path d="M67.2032 28.4107C68.2103 28.3101 68.9452 27.4119 68.8444 26.4048C68.7652 25.6126 68.7251 24.8034 68.7251 24C68.7251 23.1938 68.7656 22.3825 68.8451 21.5889C68.9463 20.5819 68.2118 19.6835 67.2047 19.5824C66.1967 19.4827 65.2993 20.2159 65.1981 21.223C65.1063 22.1376 65.0598 23.0719 65.0598 24C65.0598 24.9248 65.1061 25.8565 65.1974 26.7695C65.292 27.7146 66.0886 28.42 67.0187 28.42C67.0795 28.42 67.1413 28.4169 67.2032 28.4107Z" fill="#202403" fill-opacity="0.6"/>
<path d="M67.5102 18.0781C67.6951 18.1369 67.8822 18.165 68.0666 18.165C68.8431 18.165 69.5643 17.6674 69.8124 16.8878C70.3032 15.346 70.9549 13.8793 71.7495 12.5284C72.2629 11.6561 71.9717 10.5328 71.0991 10.0197C70.2262 9.50634 69.1033 9.79773 68.5904 10.6701C67.6572 12.2563 66.8931 13.9742 66.3195 15.7761C66.0127 16.7403 66.5457 17.7709 67.5102 18.0781Z" fill="#202403" fill-opacity="0.6"/>
<path d="M71.8406 21.251C70.8286 21.251 70.008 22.0715 70.008 23.0837V24.9163C70.008 25.9285 70.8286 26.749 71.8406 26.749C72.8526 26.749 73.6733 25.9285 73.6733 24.9163V23.0837C73.6733 22.0715 72.8526 21.251 71.8406 21.251Z" fill="#202403" fill-opacity="0.6"/>
</svg>
