<svg width="86" height="92" viewBox="0 0 86 92" fill="none" xmlns="http://www.w3.org/2000/svg">
<path d="M38.2838 2.59183C33.7822 5.32006 33.4899 5.5734 33.7822 6.70367C33.8796 7.07393 34.5032 7.61958 36.2376 8.76933C37.5238 9.62678 38.5761 10.4063 38.5761 10.4842C38.5761 10.5622 38.8879 12.2381 39.2386 14.2258C39.6089 16.2135 39.8817 17.8505 39.8622 17.8699C39.8428 17.8894 36.8027 15.9992 33.1196 13.6412C28.8908 10.9519 26.2016 9.35395 25.8898 9.35395C25.5585 9.35395 24.3308 10.1529 21.9923 11.8873C20.1215 13.2904 18.4846 14.5766 18.3676 14.752C18.2312 14.9274 18.1143 15.2976 18.1143 15.5899C18.1143 16.5448 18.582 16.8761 21.0764 17.7335L23.4733 18.5325L29.2026 26.4444C35.2048 34.7265 35.5945 35.1553 37.4068 35.6619C37.7966 35.7789 41.3238 35.8568 45.689 35.8568H53.2891L56.6019 39.8712C58.4337 42.0733 59.8953 43.9831 59.8563 44.1195C59.8173 44.2364 58.8235 46.5749 57.6542 49.3031L55.5301 54.2724V59.0078V63.7238L54.1465 69.2777L52.7629 74.8316H50.6193C48.9823 74.8316 48.4952 74.7731 48.5731 74.5783C48.6316 74.4613 49.7423 71.6746 51.0675 68.4008C53.3865 62.6325 53.4644 62.4181 53.4644 60.9566L53.4839 59.456L49.8398 52.1288L46.1762 44.8015V42.3656C46.1762 40.0466 46.1567 39.9102 45.689 39.462C45.4356 39.1892 45.0264 38.9748 44.7731 38.9748C44.5197 38.9748 42.4151 39.7348 40.0571 40.6702C36.9196 41.9369 35.7114 42.502 35.4971 42.8528C35.2048 43.2815 35.2827 43.8077 36.6858 50.9401C37.5238 55.1298 38.2058 58.6766 38.1863 58.8325C38.1863 59.0663 35.4581 63.5679 32.3986 68.3423L31.7555 69.3751L28.6375 66.7638C25.2467 63.9382 23.9021 63.1197 21.9923 62.652C17.5687 61.6192 12.7163 63.7238 10.6117 67.6213C10.2999 68.2059 9.11112 71.2264 7.98086 74.3444L5.93468 79.9958L3.69363 81.5158C1.23822 83.1722 0.965393 83.4255 0.965393 84.1856C0.965393 85.2574 1.31617 85.4327 6.69469 87.2256C11.0404 88.6677 11.9368 88.921 12.4045 88.7651C12.8722 88.5897 13.3204 87.8297 15.6784 83.1722C17.1789 80.1906 18.4846 77.7742 18.5625 77.8132C18.66 77.8327 21.3687 80.7947 24.6036 84.3804C29.339 89.6225 30.6837 90.9867 31.4632 91.3959L32.4181 91.8831L45.5331 91.9415L58.6481 92L60.6163 91.3764L62.5845 90.7723L63.6953 91.3179C64.7671 91.8636 64.8451 91.8831 68.002 91.8831H71.2175L72.4452 91.2205C73.8093 90.48 74.4134 89.8564 75.1734 88.3948C75.6021 87.5569 75.6801 87.1476 75.6801 85.7445C75.6996 84.2245 75.6411 83.9907 75.037 82.8604C74.2965 81.5158 73.478 80.7168 72.0944 80.0542C71.3734 79.7035 70.7692 79.6255 68.7036 79.5476L66.2092 79.4696L66.3066 78.9434C66.3651 78.6706 66.7354 76.4101 67.1251 73.9547L67.8656 69.4726L70.2626 67.0172C72.1529 65.1074 72.679 64.4448 72.679 64.0356C72.679 63.3146 70.8277 59.6899 70.321 59.4171C69.9118 59.2027 68.84 59.2807 68.0995 59.5535C67.8461 59.6704 67.7877 59.573 67.8461 59.1248C67.8851 58.6766 68.2749 58.3063 69.8533 57.1565C70.9251 56.377 71.8411 55.734 71.8995 55.734C71.958 55.734 72.5621 56.4745 73.2441 57.3904C75.1149 59.9237 76.4791 60.7032 79.0124 60.7032C80.8637 60.6838 82.0525 60.1966 83.2997 58.9494C84.6053 57.6632 85.0535 56.5135 85.034 54.5647C85.0145 52.538 84.8391 52.0898 82.9294 49.5175C81.9355 48.2118 81.1366 47.3544 80.474 46.9257C79.7335 46.4385 79.4996 46.1656 79.4996 45.7954C79.4996 45.5226 79.714 43.6128 79.9673 41.5471C80.435 37.8445 80.435 37.2599 79.8894 36.266C79.7724 36.0322 77.2975 32.7973 74.3939 29.0752L69.1323 22.3131L60.8307 18.4741C56.2511 16.3694 52.3731 14.5571 52.1978 14.4596C52.0419 14.3427 50.1711 11.1468 48.0469 7.32726C45.9228 3.50774 44.0325 0.292313 43.8377 0.194878C43.6428 0.0779572 43.2725 7.62939e-06 43.0192 7.62939e-06C42.7659 0.0194931 40.6417 1.16925 38.2838 2.59183ZM43.5259 5.63186C44.13 6.68418 44.6561 7.67804 44.7146 7.85342C44.89 8.28215 41.733 9.33447 41.4797 8.94472C41.3823 8.78882 41.3043 8.61343 41.3043 8.53548C41.3043 8.45753 40.6028 7.91189 39.7453 7.34676L38.1668 6.29443L40.2715 5.00826C41.4407 4.30672 42.3956 3.7221 42.4151 3.7221C42.4346 3.70261 42.9412 4.56005 43.5259 5.63186ZM48.1249 13.875L49.7813 16.8176L54.5557 18.9807C57.167 20.1695 59.1937 21.1633 59.0378 21.2023C58.6871 21.2607 43.6233 20.3254 43.5454 20.2279C43.4479 20.1305 42.0643 12.433 42.1228 12.3745C42.1812 12.316 46.2151 10.9519 46.371 10.9324C46.4295 10.9129 47.209 12.2381 48.1249 13.875ZM27.3513 13.6607L28.618 14.4791L27.7411 16.2135L26.8641 17.9674L26.0846 16.8761C25.4221 15.9602 25.1687 15.7458 24.2528 15.473C23.6487 15.2781 23.2005 15.0638 23.22 14.9858C23.298 14.8104 25.7534 12.8812 25.9482 12.8812C26.0262 12.8617 26.6498 13.2319 27.3513 13.6607ZM37.3094 20.0136L42.571 23.3654L54.0686 24.0669C60.402 24.4372 65.9364 24.8075 66.4041 24.8659C67.1641 24.9634 67.3395 25.0998 68.5867 26.6588C69.8339 28.2372 69.8923 28.3737 69.6 28.666C68.9569 29.2896 58.6481 37.0261 58.4727 37.0261C58.3753 37.0261 57.6153 36.2076 56.7773 35.2137C55.9393 34.2394 55.1598 33.2845 55.0039 33.1286C54.7701 32.8752 53.4644 32.8168 46.2931 32.7388C38.2253 32.6414 37.8161 32.6219 37.4068 32.2516C37.173 32.0568 35.2632 29.5039 33.1781 26.6003C31.0734 23.7162 29.2611 21.2218 29.1637 21.0854C29.0078 20.8905 29.2611 20.1889 30.0991 18.4935C31.1903 16.311 31.2683 16.194 31.658 16.4279C31.8724 16.5643 34.4253 18.1817 37.3094 20.0136ZM74.5303 34.2978C76.6544 37.0455 77.0637 37.7081 77.1027 38.3317C77.1416 38.7409 76.8688 41.3133 76.518 44.0415L75.8944 49.0108L70.5549 52.8303C67.6318 54.935 65.1569 56.7668 65.0789 56.9227C65.001 57.0786 64.8256 57.8971 64.7087 58.7545C64.5917 59.6119 64.4164 60.3525 64.3384 60.4304C64.2605 60.4889 62.9548 60.8591 61.4348 61.2294L58.6481 61.9309V58.3842V54.8375L60.9866 49.4006C62.2727 46.3995 63.3251 43.7687 63.3251 43.5154C63.3251 43.2815 63.0717 42.7943 62.7794 42.4436C62.4871 42.0928 61.8245 41.3133 61.3179 40.7092L60.402 39.5984L66.0728 35.2917C69.1908 32.9337 71.8021 30.985 71.88 31.0045C71.9385 31.0045 73.1467 32.4855 74.5303 34.2978ZM43.0582 44.2364C43.0582 45.1133 43.1751 45.8344 43.37 46.2046C43.5259 46.5359 43.6233 46.8477 43.5843 46.9062C43.4479 47.0231 39.9207 47.939 39.531 47.939C39.2971 47.939 39.1607 47.5687 38.9463 46.419C38.7904 45.6005 38.6735 44.8405 38.6735 44.7431C38.6735 44.6067 42.4735 42.9502 42.9218 42.8918C42.9997 42.8723 43.0582 43.4959 43.0582 44.2364ZM80.7858 51.8755C81.8771 53.376 81.9355 53.5514 81.9355 54.5842C81.9355 56.455 80.8053 57.5853 78.915 57.5853C78.2914 57.5853 77.7262 57.5268 77.6483 57.4488C77.5704 57.3904 78.0575 56.5914 78.7006 55.7145C79.3632 54.8181 79.8894 53.9216 79.8894 53.6878C79.8894 53.4734 79.6555 52.5575 79.4022 51.6611C79.1293 50.7452 78.915 49.9267 78.915 49.8098C78.915 49.4785 79.6165 50.258 80.7858 51.8755ZM47.8326 55.1493C49.2747 58.0335 50.4634 60.6448 50.4634 60.9176C50.4634 61.2099 49.1577 64.7761 47.5403 68.8295L44.6172 76.2347L43.8377 82.4317C43.4089 85.842 43.0582 88.6871 43.0582 88.7456C43.0582 88.8236 40.7781 88.8625 38.0109 88.8236L32.9442 88.7651L32.2427 88.083C31.8529 87.7128 28.7154 84.2635 25.2662 80.4245C21.3882 76.1178 18.8158 73.409 18.5235 73.3311C17.5297 73.0777 17.101 73.4675 16.0292 75.5137C15.464 76.5855 14.9768 77.5404 14.9379 77.6573C14.8794 77.8327 11.1768 77.0727 10.6896 76.7609C10.4363 76.605 12.8137 69.9403 13.5348 68.7905C14.1778 67.7772 15.4835 66.6664 16.7307 66.1013C17.6466 65.653 18.0948 65.5751 19.5759 65.5751C22.0897 65.5751 22.9472 66.0428 27.7411 70.0377C31.8139 73.448 32.2232 73.6818 33.0806 72.9413C33.295 72.7465 35.2827 69.6674 37.5238 66.0818L41.5771 59.5535L40.7392 55.3832C40.291 53.0837 39.9402 51.1739 39.9792 51.1544C40.0766 51.0375 44.4808 49.9267 44.851 49.9072C45.1238 49.8877 45.8449 51.1934 47.8326 55.1493ZM76.5375 53.0252C76.557 53.1811 76.3037 53.7073 75.9724 54.175L75.3683 55.0129L74.998 54.5452C74.4913 53.9021 74.5303 53.7657 75.3683 53.1616C76.1478 52.616 76.4401 52.577 76.5375 53.0252ZM68.041 64.7566L66.8718 65.9259L66.2482 64.6982C65.9169 64.0356 65.6636 63.4705 65.7025 63.4315C65.7415 63.3925 66.4236 63.1976 67.2225 62.9833L68.6841 62.613L68.9569 63.1002C69.1908 63.5679 69.1518 63.6458 68.041 64.7566ZM64.2605 72.0839C63.7733 75.007 61.9609 87.0892 61.9609 87.4984C61.9609 87.5958 61.1425 87.9271 60.1486 88.2584L58.3558 88.8625H52.2562H46.1372L46.2541 88.122C46.3126 87.7323 46.5854 85.6081 46.8582 83.4061C47.131 81.204 47.4039 79.0799 47.4623 78.6706L47.5793 77.9496H49.9957H52.4121V80.5804C52.4121 83.1332 52.4316 83.2502 52.8993 83.6984C53.5229 84.3415 54.4193 84.3415 55.0429 83.6984C55.5301 83.2307 55.5301 83.1722 55.5301 79.8594L55.5496 76.488L56.9527 70.8367L58.3753 65.2048L60.4214 64.6982L62.4481 64.172L63.6369 66.5105L64.8061 68.849L64.2605 72.0839ZM11.7224 80.3076L13.4178 80.7168L12.2486 83.0553C11.5471 84.4584 10.9819 85.3548 10.8455 85.2963C10.7091 85.2574 9.6178 84.8871 8.42907 84.4974C7.22085 84.0881 6.22699 83.7373 6.22699 83.6984C6.22699 83.6399 6.73366 83.2696 7.35726 82.8409C8.3706 82.1589 8.54599 81.925 8.93574 80.8727C9.26702 79.9568 9.44241 79.7035 9.69575 79.7814C9.87113 79.8399 10.787 80.0737 11.7224 80.3076ZM68.002 83.6984V84.7702L66.6184 85.4717C65.2543 86.1538 65.2348 86.1538 65.3323 85.7056C65.3907 85.4522 65.5077 84.7312 65.5856 84.0881C65.6441 83.445 65.7415 82.8604 65.8 82.763C65.8389 82.685 66.3651 82.6266 66.9497 82.6266H68.002V83.6984ZM71.9775 83.7958C72.8739 84.8676 72.8934 86.602 71.997 87.6738C71.2175 88.5702 70.399 88.8625 68.5477 88.843H66.9302L68.8205 87.8882C69.8533 87.3425 70.8082 86.7384 70.9251 86.5435C71.0226 86.3292 71.12 85.4912 71.12 84.6922C71.12 83.8738 71.198 83.2112 71.2954 83.2112C71.3928 83.2112 71.7046 83.484 71.9775 83.7958Z" fill="#202403" fill-opacity="0.6"/>
</svg>
