<svg width="92" height="86" viewBox="0 0 92 86" fill="none" xmlns="http://www.w3.org/2000/svg">
<path d="M33.8813 0.550713C32.5494 1.00069 32.0994 1.34267 29.9036 3.59254C27.3657 6.16639 27.0237 6.85035 27.1677 8.93823C27.2937 10.5581 27.7797 11.4221 29.5436 13.204C31.2535 14.8959 32.1714 15.4359 33.6293 15.5619C34.6013 15.6518 34.7093 15.7238 35.7892 16.8038L36.9232 17.9557L36.6172 18.4777C36.0772 19.3956 36.2212 20.0256 37.1391 21.0155C37.6071 21.5195 37.9311 21.9155 37.8951 21.9155C37.8411 21.9155 32.9994 19.2876 27.1317 16.0658C21.2641 12.844 16.3863 10.2162 16.3143 10.2162C16.2243 10.2162 14.3344 9.08222 12.1206 7.6963C9.9067 6.31039 7.78282 5.03246 7.38685 4.87047C6.99087 4.70847 6.18092 4.58248 5.44296 4.58248C0.907218 4.54649 -1.64864 9.83818 1.1952 13.402C1.71717 14.0499 2.67112 14.7519 5.06498 16.2458C6.81088 17.3258 8.2868 18.3697 8.34079 18.5497C8.43079 18.8197 15.0544 23.6614 16.0983 24.2194C17.2683 24.8493 18.6722 24.0034 18.6722 22.6714C18.6722 21.7535 18.4202 21.5015 15.3064 19.3056L12.7325 17.5057L14.4244 15.8138L16.0983 14.1399L30.2995 21.9155C38.1111 26.1992 44.5547 29.745 44.6267 29.817C44.7707 29.943 37.4091 34.6228 37.1211 34.5868C37.0311 34.5688 34.7993 33.0928 32.1894 31.2929C27.3117 27.9631 27.0237 27.8191 25.9798 28.2151C25.3498 28.4491 24.9178 29.3671 25.0618 30.123C25.1878 30.861 25.6018 31.203 30.3355 34.4248C33.3054 36.4587 33.7193 36.8006 33.5214 37.0346C33.3774 37.1786 33.1794 37.5386 33.0714 37.8266C32.6934 38.8525 33.0174 39.2845 38.0751 44.2522L42.8808 48.9679L42.9708 65.635C43.0608 81.5461 43.0788 82.338 43.4028 82.986C43.8348 83.8679 44.6087 84.6419 45.5627 85.1459C46.2826 85.5419 46.4446 85.5419 54.4901 85.5958C59.9258 85.6318 62.8957 85.5958 63.3276 85.4699C64.3716 85.1459 64.6236 84.6059 64.5336 82.77C64.2996 78.6842 61.5817 75.4624 57.55 74.5085C56.866 74.3465 56.29 74.1305 56.29 74.0225C56.29 73.7705 61.5457 50.1019 61.6177 50.0119C61.6537 49.9759 62.0677 50.2999 62.5537 50.7498C63.7776 51.9018 64.6956 52.4417 65.8475 52.6757C67.0174 52.9277 68.4213 52.6937 69.4293 52.0998C70.3472 51.5778 82.1186 39.8245 82.9105 38.6545C84.3144 36.5846 84.8184 34.6948 84.6924 32.0489C84.6204 30.735 84.4764 29.961 84.1164 29.0251C83.3605 27.0992 83.3785 27.2072 84.0085 27.0632C85.2144 26.8292 86.9423 25.7853 88.3462 24.4713C91.0461 21.9335 92 19.8996 92 16.6958C91.982 14.6619 91.622 13.258 90.7401 11.7281C88.2202 7.44432 82.6585 5.80641 78.1048 7.98429C75.7109 9.13622 72.9391 12.16 72.2011 14.4099C71.7872 15.7058 71.7872 15.7058 71.1572 15.1119C70.2752 14.2839 69.5373 13.8519 68.2234 13.33C67.1974 12.934 66.7114 12.862 65.1995 12.844C63.4176 12.844 63.3456 12.862 58.9719 14.3199C56.542 15.1299 54.2922 15.7958 53.9682 15.7958C53.4282 15.7958 53.0322 15.4719 50.2784 12.754C46.8766 9.4062 46.4986 9.17222 45.4187 9.82018L44.8067 10.1802L43.6368 8.97423C42.6108 7.93029 42.4668 7.67831 42.3588 6.92235C42.3048 6.43638 42.0889 5.68042 41.8909 5.24844C41.4409 4.2225 38.6511 1.41467 37.5531 0.892693C36.5272 0.388725 34.8353 0.244728 33.8813 0.550713ZM37.3371 5.39243C39.353 7.39032 39.317 7.7143 36.6172 10.3422C35.0693 11.8541 34.8533 12.0161 34.2413 12.0161C33.6113 12.0161 33.3954 11.8721 32.1354 10.6121C30.8935 9.35221 30.7315 9.13622 30.7315 8.52425C30.7315 7.93029 30.9115 7.67831 32.4054 6.13039C34.1513 4.3305 34.8533 3.86253 35.5912 4.02451C35.8432 4.07851 36.6172 4.69048 37.3371 5.39243ZM9.52872 10.3422L12.6965 12.322L11.3286 13.69L9.9427 15.0579L7.06287 13.258C5.49696 12.25 4.09304 11.3141 3.96704 11.1521C3.37308 10.3782 3.46307 9.37021 4.20103 8.68625C5.19097 7.7683 5.58695 7.89429 9.52872 10.3422ZM83.9185 10.8281C87.0143 11.6381 89.0122 14.8599 88.3282 17.9017C88.0042 19.4316 87.5543 20.1876 86.1683 21.5555C84.7824 22.9414 84.0265 23.3914 82.5145 23.7154C81.1826 23.9854 79.9947 23.8234 78.6628 23.1754C77.3668 22.5455 76.4309 21.5915 75.7829 20.2056C75.3689 19.3056 75.279 18.8917 75.279 17.6857C75.297 15.7598 75.8189 14.6439 77.4748 12.952C79.5627 10.8281 81.5246 10.1802 83.9185 10.8281ZM40.9009 14.1759L39.551 15.5258L38.795 14.7519L38.0211 13.9959L39.371 12.646L40.7029 11.2961L41.4769 12.052L42.2509 12.808L40.9009 14.1759ZM48.5865 16.2638C52.5103 20.0796 52.8702 20.1336 59.5119 17.9197C63.3276 16.6598 64.1196 16.4438 65.1995 16.4438C66.1535 16.4438 66.6574 16.5338 67.3054 16.8578C68.1874 17.2718 69.9693 18.7477 69.9693 19.0536C69.9693 19.2516 60.9878 39.2125 60.8078 39.4105C60.7358 39.4825 58.3959 37.2506 55.5701 34.4248C52.7622 31.6169 50.4944 29.2771 50.5304 29.2411C50.5844 29.2051 52.3123 28.8091 54.3822 28.3411C58.4139 27.4412 58.8639 27.2432 59.0799 26.1992C59.3139 25.1733 58.4139 24.0754 57.334 24.0754C57.118 24.0754 54.7781 24.5613 52.1503 25.1553L47.3806 26.2352L44.0147 22.8694L40.6309 19.4856L43.3668 16.7498C44.8787 15.2379 46.1566 13.9959 46.1926 13.9959C46.2286 13.9959 47.3086 15.0219 48.5865 16.2638ZM73.1191 22.9234C73.3171 23.2834 73.893 24.0214 74.433 24.5433C75.027 25.1553 75.297 25.5513 75.153 25.6053C74.739 25.7493 70.8332 26.4332 70.7792 26.3792C70.6892 26.2892 72.5431 22.2755 72.6511 22.2755C72.7231 22.2755 72.9211 22.5634 73.1191 22.9234ZM80.1207 29.0611C80.8586 30.213 81.1826 31.4729 81.0926 33.0209C81.0026 35.1987 80.3727 36.3327 77.8528 38.9245C76.7369 40.0944 75.189 41.6064 74.397 42.3083C73.1011 43.4963 72.9751 43.5503 72.7951 43.2263C72.6871 43.0463 72.0751 42.3443 71.4452 41.6604L70.2752 40.4544L71.9131 38.7625C73.4251 37.2326 73.5691 37.0166 73.5691 36.3867C73.5691 35.5047 73.2091 34.9647 72.4171 34.6948C71.4992 34.4068 70.9772 34.6948 68.9793 36.6566L67.1794 38.4205L66.2615 38.3125L65.3615 38.2046L67.0354 34.5148C67.9534 32.4809 68.7273 30.753 68.7633 30.663C68.7993 30.555 77.5828 28.7191 79.5447 28.4131C79.6167 28.4131 79.8867 28.7011 80.1207 29.0611ZM53.6622 37.5566L59.0439 42.9383L57.64 45.2062C56.866 46.4481 56.1821 47.474 56.1281 47.474C56.0561 47.474 55.2101 46.6641 54.2202 45.6561C51.9523 43.3523 51.1963 42.7943 50.4044 42.7943C49.4864 42.7943 48.7305 43.6042 48.7305 44.5942C48.7305 45.3321 48.8205 45.4401 51.4303 48.086L54.1122 50.8038L53.2842 52.1358L52.4563 53.4497L45.0587 46.0341C40.9909 41.9483 37.7511 38.5825 37.8411 38.5285C37.9491 38.4925 40.253 37.0526 42.9708 35.3247C45.6887 33.5968 48.0105 32.1929 48.1005 32.1749C48.2085 32.1749 50.7104 34.6048 53.6622 37.5566ZM68.2054 43.6582C70.4732 45.9261 70.4912 46.0881 68.7453 47.87C67.6474 49.0039 67.4494 49.1299 66.8374 49.1299C66.2075 49.1299 65.9915 48.9859 64.4616 47.456C62.8777 45.8721 62.7697 45.7281 62.7697 45.0262C62.7697 44.3602 62.8777 44.1982 64.0116 43.1003C65.7935 41.3724 65.9375 41.3904 68.2054 43.6582ZM52.7262 58.0934C53.6442 58.0934 54.0942 57.6614 55.6781 55.1236C56.452 53.8817 57.118 52.9277 57.136 52.9997C57.172 53.0897 56.1461 57.8774 54.8501 63.6731C53.5722 69.4508 52.5103 74.2205 52.5103 74.2385C52.5103 74.2745 51.1783 74.2925 49.5404 74.2925H46.5706V63.4571V52.6217L49.3244 55.3576C51.8443 57.8594 52.1503 58.0934 52.7262 58.0934ZM57.424 78.1803C58.4859 78.5403 59.9258 79.8182 60.4118 80.8261C60.6278 81.2581 60.7898 81.7081 60.7898 81.8161C60.7898 81.9781 59.1339 82.0321 54.0762 82.0321C48.2985 82.0321 47.3086 81.9961 46.9666 81.7441C46.6066 81.4921 46.5706 81.3301 46.5706 79.6742V77.8923H51.5743C55.6781 77.8923 56.74 77.9463 57.424 78.1803Z" fill="#202403" fill-opacity="0.6"/>
<path d="M44.6807 37.9706C43.2948 38.7265 43.4028 40.6884 44.8607 41.1744C46.0846 41.5704 47.2006 40.7964 47.2006 39.5185C47.2006 38.2586 45.7787 37.3586 44.6807 37.9706Z" fill="#202403" fill-opacity="0.6"/>
<path d="M21.2641 24.5973C20.2561 25.0293 19.9501 26.6312 20.7241 27.4052C21.3001 27.9812 21.966 28.1251 22.65 27.8552C24.2699 27.1712 23.9999 24.7413 22.272 24.5254C21.93 24.4714 21.462 24.5074 21.2641 24.5973Z" fill="#202403" fill-opacity="0.6"/>
<path d="M9.09674 26.5232C8.48477 26.8472 8.23279 27.2972 8.23279 28.0711C8.23279 28.9351 8.57477 29.3131 10.5727 30.735C22.272 39.0325 24.1259 40.2744 24.7378 40.2744C25.9798 40.2744 26.8437 38.7085 26.2318 37.5746C26.0698 37.2866 12.6245 27.6392 10.9326 26.6132C10.1947 26.1812 9.7627 26.1453 9.09674 26.5232Z" fill="#202403" fill-opacity="0.6"/>
</svg>
