<svg width="92" height="74" viewBox="0 0 92 74" fill="none" xmlns="http://www.w3.org/2000/svg">
<path d="M13.8837 0.743332C11.5838 1.41743 9.62101 3.06303 8.64952 5.12498C7.51941 7.52399 7.79698 10.6566 9.34344 12.9168L9.93824 13.7693L9.32362 14.1262C5.53676 16.208 1.39303 21.4422 0.282746 25.5661C-0.212916 27.3703 0.044828 30.4632 1.09563 35.0035L1.55164 37.0654L1.05598 37.8188C-0.431007 39.9799 -0.331875 43.8461 1.25424 45.9279C3.51446 48.882 9.56153 48.7234 11.5838 45.6701C12.7734 43.8857 12.9717 40.8523 12.0795 38.7309C11.683 37.8188 10.1762 36.1732 9.72015 36.1732C9.60119 36.1732 9.52188 34.8052 9.52188 32.3071V28.4409L10.4141 28.0047C10.8899 27.7668 11.3261 27.6082 11.3856 27.6677C11.4252 27.7073 12.0597 30.4236 12.7734 33.6949C13.507 36.9663 14.2009 39.9403 14.3199 40.317C14.4388 40.6937 16.5999 44.1237 19.1377 47.9502L23.7573 54.9093L22.9841 63.0381C22.5677 67.5189 22.2306 71.4644 22.2108 71.8212C22.2108 72.2574 22.3694 72.6341 22.7065 72.9513L23.1823 73.447H28.3372C33.8886 73.447 34.3248 73.3875 34.7015 72.4359C35.0385 71.623 34.8006 71.1273 33.2145 69.4817L31.787 67.9947L32.4611 62.1459C33.3929 53.9774 33.4128 54.4136 31.8465 49.7345C31.1129 47.5933 30.5776 45.7891 30.6371 45.7296C30.6966 45.6701 32.5801 45.8089 34.8205 46.027L38.9047 46.4235L45.2888 52.8076C48.7981 56.2971 51.8117 59.1719 52.01 59.1719C52.2876 59.1719 52.3471 59.3702 52.3471 60.3417V61.4916L50.4635 62.7407C49.4326 63.4148 48.3619 64.188 48.0844 64.4458C47.4301 65.0604 47.4301 65.9724 48.0844 66.6069L48.5602 67.1025H54.4685C57.72 67.1025 60.575 67.0431 60.8328 66.9836C61.7052 66.7457 61.8638 66.0121 61.8638 62.3442C61.8638 58.5573 61.7052 57.9031 60.7138 57.685C60.0001 57.5462 59.1872 57.8436 58.9096 58.3591C58.7907 58.5772 58.6915 59.8857 58.6915 61.333V63.9303H56.6097H54.5478L55.0236 63.4148C55.4995 62.8993 55.5193 62.7605 55.5193 60.1831V57.4867L58.2157 55.9006C59.7027 55.0282 61.1302 54.1162 61.3879 53.8783C62.0224 53.3033 62.0224 52.3715 61.3681 51.737C60.9121 51.2612 60.7733 51.2414 58.5329 51.2414C55.3607 51.2414 55.5193 51.4396 55.5193 47.1968C55.5193 43.5685 55.6581 42.9539 56.6692 42.4384C56.9666 42.2996 59.5242 41.3083 62.3594 40.2575C65.5713 39.0679 67.6531 38.1955 67.8514 37.9378C68.3867 37.3232 68.3074 36.431 67.6927 35.8758C67.3953 35.5983 66.979 35.3802 66.7609 35.3802C66.3445 35.3802 56.1537 39.1076 55.1426 39.623C54.2107 40.1187 52.9617 41.685 52.6445 42.7755C52.4858 43.3504 52.3471 44.5598 52.3471 45.571V47.3554L47.3508 42.3988C43.326 38.4136 42.1562 37.3827 41.4425 37.1051C40.9468 36.9266 37.9134 36.1931 34.7015 35.4793C31.4896 34.7656 28.7139 34.1311 28.5355 34.0915C28.357 34.032 28.0002 33.1794 27.5838 31.7519C27.2269 30.5425 26.8899 29.4322 26.8502 29.3133C26.7907 29.1745 27.3062 29.0555 28.357 28.9762C30.1216 28.8573 31.1129 28.4013 32.2628 27.2117C33.3731 26.0617 33.6309 25.1299 34.2257 20.2526C34.7411 15.9502 34.7808 15.7123 35.217 15.5537C35.9704 15.2563 37.16 13.8883 37.5367 12.8573C38.3496 10.6566 38.1116 7.78173 36.9617 6.05683C35.5937 3.97505 32.3223 3.12251 29.3285 4.05435C27.7028 4.55002 26.7511 5.3629 26.0373 6.79041C25.5417 7.80156 25.4822 8.13861 25.4822 9.90316C25.4822 11.9453 25.7598 13.0159 26.5726 14.1659C26.9295 14.6813 26.9295 14.721 26.533 16.3071L26.1166 17.9329L25.2641 17.1398C24.3917 16.3269 23.7375 16.1485 23.0237 16.545C22.5479 16.783 22.1315 17.8139 22.2703 18.3889C22.3496 18.6268 23.2815 19.6974 24.3521 20.7681C26.0175 22.3938 26.414 22.6912 26.9493 22.6912C28.0398 22.6912 28.3769 22.0964 29.1501 18.9837L29.8242 16.1485L30.6172 16.2873C31.0733 16.3468 31.45 16.4062 31.4698 16.4261C31.6086 16.5252 30.4586 24.2575 30.2207 24.6937C29.7845 25.5661 29.0113 25.8635 27.1278 25.8635L25.4822 25.8436L24.3521 23.5239C22.9841 20.7482 21.6557 18.6665 20.129 16.9812C19.4946 16.2873 19.0188 15.7123 19.0584 15.6727C19.0981 15.6528 19.5541 15.3951 20.0696 15.0977C22.5875 13.6504 24.1538 10.26 23.6582 7.30589C23.0039 3.47939 20.0299 0.763161 16.3025 0.564896C15.3905 0.525246 14.419 0.584724 13.8837 0.743332ZM17.6507 4.07418C19.2963 4.80776 20.3075 6.17579 20.5652 7.92052C20.823 9.82386 19.6532 11.8263 17.7697 12.6987C13.2889 14.7805 8.96674 9.05063 12.2579 5.40256C13.7053 3.79661 15.8664 3.2613 17.6507 4.07418ZM33.8886 7.36538C34.6024 7.90069 34.9592 9.05063 34.8403 10.4781C34.6618 12.5004 33.5714 13.3133 31.2715 13.1151C29.2096 12.9366 28.4562 11.9453 28.5949 9.66525C28.7337 7.52399 29.7052 6.75076 32.1042 6.90937C32.9369 6.96885 33.5317 7.10763 33.8886 7.36538ZM14.5975 16.7631C18.2455 18.1311 22.2505 24.7135 24.7883 33.5561C25.2046 35.0233 25.6805 36.3715 25.8391 36.5103C25.9977 36.6689 29.0906 37.462 32.7387 38.2748C36.3867 39.0679 39.5788 39.7817 39.8564 39.8411C40.1538 39.9204 43.1674 42.7755 47.5292 47.1373L54.7262 54.2946L53.6754 54.9489L52.6445 55.5834L46.4982 49.457C43.1079 46.0666 40.2133 43.3108 40.0546 43.3108C39.896 43.3108 36.2281 42.9539 31.9258 42.5177C27.6234 42.0815 23.8961 41.7247 23.6383 41.7247C22.9841 41.7247 22.2108 42.5772 22.2108 43.3108C22.2108 44.3814 22.9047 44.8374 24.709 44.996C25.5615 45.0555 26.4537 45.1943 26.6718 45.2736C26.989 45.4124 27.4054 46.483 28.5949 50.0716L30.1018 54.711L29.3087 61.908L28.4958 69.105L28.932 69.6998L29.3682 70.2748H27.4648C25.7994 70.2748 25.5813 70.2351 25.5813 69.9179C25.5813 69.7395 25.8985 66.0716 26.2951 61.789L27.0088 53.9774L22.1513 46.7011C17.4723 39.6429 17.2939 39.3653 16.9568 37.8387C16.7784 36.9861 16.1043 33.9725 15.4698 31.1571L14.3397 26.0419L14.8949 25.7247C15.9853 25.0704 16.1241 23.9403 15.2319 23.0878C14.994 22.8697 14.5975 22.6912 14.3397 22.6912C13.6854 22.6912 6.80565 26.1807 6.54791 26.6367C6.42895 26.8746 6.34965 28.6788 6.34965 31.1968C6.34965 35.1621 6.32982 35.3802 5.97294 35.3802C5.77468 35.3802 5.3385 35.4397 5.02127 35.4991L4.42648 35.6181L3.89116 32.8622C3.61359 31.3554 3.3162 29.4124 3.25672 28.54C3.15758 27.1324 3.19724 26.7953 3.65325 25.5859C5.1204 21.7396 9.02622 17.3381 11.683 16.5252C12.5752 16.2675 13.4475 16.3269 14.5975 16.7631ZM8.51073 39.0877C9.22448 39.623 9.58136 40.773 9.4624 42.2005C9.28396 44.2228 8.19351 45.0357 5.89364 44.8374C3.83168 44.659 3.07828 43.6676 3.21706 41.3876C3.35585 39.2463 4.32735 38.4731 6.72635 38.6317C7.55906 38.6912 8.15385 38.83 8.51073 39.0877Z" fill="#202403" fill-opacity="0.6"/>
<path d="M59.8811 5.50168C57.1253 6.29474 55.2417 8.09895 54.3495 10.7557C53.4375 13.4521 54.0918 16.3666 56.1141 18.5872C56.8873 19.4397 57.0658 19.7966 57.1847 20.6491C57.383 22.1559 57.958 23.3653 58.9691 24.3368L59.8415 25.2092L59.4846 26.4781C59.3062 27.1918 59.0682 28.2228 58.9889 28.778C58.8898 29.571 58.7312 29.8882 58.3545 30.1262C57.5813 30.6416 56.1141 31.0183 54.8452 31.0183H53.6953L53.8142 30.4037C53.8737 30.0667 53.9332 29.4917 53.9332 29.115C53.9332 28.5004 54.0323 28.4211 55.3409 27.7272C56.1339 27.3108 56.8477 26.7953 56.9468 26.5376C57.3632 25.6255 56.5503 24.2773 55.5788 24.2773C55.321 24.2773 54.6469 24.5153 54.0918 24.7928L53.0608 25.3083L52.5652 24.7334C50.3843 22.2154 45.4078 21.9973 43.0286 24.2972C41.7003 25.5859 41.3434 26.5772 41.3434 29.0357C41.3434 30.9192 41.4029 31.2166 41.8985 32.2476C42.8502 34.1906 44.4561 35.1621 46.9939 35.3207C48.7387 35.4397 50.4239 35.063 51.5738 34.2699C52.2083 33.8337 52.3867 33.7941 53.16 33.9725C54.409 34.2699 56.0348 34.2302 57.4028 33.8734C58.0571 33.7147 58.7709 33.5363 58.9889 33.4768C59.2863 33.3975 59.5044 33.5561 59.8217 34.0518C60.8725 35.7172 63.5094 36.0344 66.1066 34.825C67.8316 34.0121 70.0719 32.4657 71.6779 30.939C73.1649 29.5314 73.3631 28.8176 72.4709 27.9452C71.6977 27.1522 70.9641 27.291 69.6754 28.4607C66.2256 31.5735 62.8948 33.1794 62.2603 32.0295C61.9431 31.4149 62.0224 29.5314 62.4784 27.628L62.8948 25.8635H63.7473C64.2033 25.8635 65.1748 25.685 65.8886 25.4669C68.6048 24.6144 69.9728 22.255 69.7349 18.7854C69.6358 17.5165 69.6754 17.1596 69.8538 17.2588C73.8588 19.6181 77.0707 23.8808 78.9939 29.4124C79.8464 31.8511 80.1834 33.1398 80.58 35.3802C80.8774 37.0258 80.8575 37.2835 80.0843 45.115L79.2714 53.1645L83.5539 61.7097L87.8365 70.2748H85.5366H83.2565L83.6531 69.7593C83.891 69.4619 84.0694 69.0059 84.0694 68.7085C84.0694 68.3714 82.4833 65.8138 79.3111 61.0555L74.5527 53.9179V48.5251C74.5527 45.571 74.4734 42.9341 74.3743 42.6763C74.2752 42.4186 73.9579 42.0815 73.6605 41.9229C73.1649 41.6652 72.6296 41.7643 66.3644 43.3108C61.1104 44.6193 59.4846 45.0951 59.1476 45.4322C58.751 45.8089 58.6915 46.0865 58.6915 47.2364C58.6915 49.001 59.0682 49.5561 60.238 49.5561C61.1897 49.5561 61.6259 49.219 61.7845 48.3665L61.9034 47.7122L66.642 46.5226L71.3805 45.3331V49.6552C71.3805 52.649 71.4598 54.2153 71.6382 54.8299C71.7968 55.3256 73.7002 58.3987 76.0992 61.9873C78.4189 65.4569 80.3024 68.3516 80.3024 68.4309C80.3024 68.4904 79.7274 69.1645 79.0137 69.8981C77.6853 71.2859 77.4276 71.96 77.9827 72.6738C78.5378 73.4073 78.974 73.447 85.0608 73.447H91.0285L91.5044 72.9513C91.7819 72.6936 92 72.2376 92 71.96C92 71.6824 89.8588 67.2017 87.2615 61.9675L82.5031 52.4904L83.2962 44.7779C84.1884 36.1336 84.1884 36.2525 83.0583 31.7123C81.2342 24.3765 77.4474 18.4682 72.4511 15.177C71.6779 14.6615 70.7659 14.1262 70.4288 13.9874C69.9332 13.7693 69.7944 13.6107 69.7944 13.1547C69.7944 10.2402 67.8712 7.28606 65.1352 5.99734C63.6085 5.30341 61.3483 5.08533 59.8811 5.50168ZM63.6482 8.83253C65.3334 9.58593 66.3446 10.9738 66.5627 12.8176C66.6816 13.7693 66.6618 13.8288 66.3049 13.69C63.7671 12.7185 60.4759 13.234 58.7907 14.8598C57.839 15.7916 57.7399 15.7718 57.3235 14.5822C56.5899 12.3616 57.7002 9.94281 59.9803 8.89201C61.2095 8.31704 62.4586 8.29721 63.6482 8.83253ZM65.611 16.8821C66.3247 17.4174 66.6816 18.5673 66.5627 19.9948C66.3842 22.0171 65.2938 22.83 62.9939 22.6318C60.9319 22.4533 60.1785 21.462 60.3173 19.1819C60.4561 17.0407 61.4276 16.2675 63.8266 16.4261C64.6593 16.4855 65.2541 16.6243 65.611 16.8821ZM49.73 26.3988C50.4636 26.9341 50.8204 28.084 50.7015 29.5115C50.523 31.4347 49.6507 32.1683 47.4896 32.1881C45.4871 32.2278 44.4165 31.1175 44.4165 29.0357C44.4165 27.6479 44.8923 26.6565 45.8043 26.2005C46.7362 25.7247 48.9766 25.8238 49.73 26.3988Z" fill="#202403" fill-opacity="0.6"/>
</svg>
