<svg width="88" height="88" viewBox="0 0 88 88" fill="none" xmlns="http://www.w3.org/2000/svg">
<path d="M40.5164 0.181763C27.499 1.68519 16.9016 11.2191 13.9681 24.0899C12.483 30.5987 13.1797 37.0707 16.0766 43.7445C16.1499 43.9278 14.8665 43.9828 9.98953 43.9828C5.73593 43.9828 3.57246 44.0562 3.07743 44.2029C1.9957 44.5145 0.638944 45.8163 0.290589 46.8614C-0.314449 48.6398 0.0155713 50.0699 1.37232 51.4083C2.47239 52.5084 3.22411 52.7834 5.2409 52.7834H6.68932L13.6198 60.3922L20.5319 67.9827V77.4983V87.0139L20.9902 87.5089C21.5769 88.1506 22.4203 88.1506 23.007 87.5089C23.4654 87.0139 23.4654 86.9955 23.4654 83.1086V79.1851H26.3989H29.3324V83.1086C29.3324 86.9955 29.3324 87.0139 29.7908 87.5089C30.3775 88.1506 31.2209 88.1506 31.8076 87.5089C32.2659 87.0139 32.2659 86.9955 32.2659 83.1086V79.1851H35.1994H38.133V83.1086C38.133 86.9955 38.133 87.0139 38.5913 87.5089C39.178 88.1506 40.0214 88.1506 40.6081 87.5089C41.0665 87.0139 41.0665 86.9955 41.0665 83.1086V79.1851H44H46.9335V83.1086C46.9335 86.9955 46.9335 87.0139 47.3919 87.5089C47.6852 87.8206 48.0153 87.9856 48.4003 87.9856C48.7853 87.9856 49.1153 87.8206 49.4087 87.5089C49.867 87.0139 49.867 86.9955 49.867 83.1086V79.1851H52.8006H55.7341V83.1086C55.7341 86.9955 55.7341 87.0139 56.1924 87.5089C56.7791 88.1506 57.6225 88.1506 58.2092 87.5089C58.6676 87.0139 58.6676 86.9955 58.6676 83.1086V79.1851H61.6011H64.5346V83.1086C64.5346 86.9955 64.5346 87.0139 64.993 87.5089C65.5797 88.1506 66.4231 88.1506 67.0098 87.5089L67.4681 87.0139V77.4983V67.9827L74.3986 60.3922L81.3107 52.7834H82.7591C84.7759 52.7834 85.5276 52.5084 86.6277 51.4083C87.9844 50.0699 88.3144 48.6398 87.7094 46.8614C87.361 45.8163 86.0043 44.5145 84.9226 44.2029C84.4275 44.0562 82.2641 43.9828 78.0105 43.9828C72.1984 43.9828 71.8317 43.9645 71.9601 43.6528C74.8569 36.9241 75.517 30.4703 73.9769 23.9066C70.9517 11.0174 60.391 1.63019 47.2635 0.181763C45.2284 -0.0565872 42.5149 -0.0382538 40.5164 0.181763ZM44.6417 3.95866C44.9717 6.69051 46.2551 10.8891 47.5386 13.4559C48.2719 14.941 50.1787 17.8195 51.3521 19.213L52.3055 20.368L48.1619 24.5116L44 28.6735L34.6861 19.3596L25.3905 10.0457L26.0322 9.51402C27.3156 8.43228 29.8274 6.80051 31.5142 5.93879C34.9794 4.21535 39.7464 2.96861 43.0099 2.93194L44.5134 2.9136L44.6417 3.95866ZM49.812 3.55531C51.7005 3.90366 54.634 4.91206 56.4674 5.84711C58.0075 6.61716 60.7394 8.41395 61.8761 9.42234L62.6095 10.064L58.4842 14.1893L54.359 18.3146L53.5156 17.2512C50.6004 13.6209 48.767 9.7707 47.8319 5.24208C47.3919 3.09695 47.3919 3.07861 47.9052 3.17028C48.1253 3.22529 48.987 3.3903 49.812 3.55531ZM32.6326 21.5231L41.8915 30.782L37.7296 34.9439L33.5677 39.1059L32.5776 38.2442C28.434 34.7056 22.6037 32.1388 17.1033 31.4237L16.1316 31.2954V30.2687C16.1316 28.8019 16.5899 25.6484 17.03 23.8332C17.7083 21.1381 19.2118 17.7095 20.7702 15.3811C21.4669 14.336 23.1354 12.2642 23.2637 12.2642C23.3187 12.2642 27.5356 16.4261 32.6326 21.5231ZM65.7814 13.4009C68.5682 16.9395 70.31 20.643 71.245 25.08C71.4834 26.2351 71.6484 27.2068 71.6117 27.2435C71.4651 27.3901 68.1282 26.6751 66.3497 26.0884C63.1779 25.0617 60.0793 23.3749 57.4758 21.2298L56.5041 20.423L60.556 16.3344C62.7928 14.0976 64.6813 12.2642 64.7546 12.2642C64.8096 12.2642 65.2863 12.7775 65.7814 13.4009ZM55.4774 23.3566C59.5843 26.8768 65.3963 29.4253 70.9334 30.1403L71.9234 30.2687L71.8134 32.2304C71.5934 35.8973 70.7683 39.2709 69.2832 42.4611L68.5865 43.9828H63.9479H59.3093L52.7089 37.3824L46.1085 30.782L50.2337 26.6568C52.5072 24.3833 54.3957 22.5315 54.4323 22.5315C54.469 22.5315 54.9457 22.8982 55.4774 23.3566ZM49.592 38.4825L55.0924 43.9828H46.5485H38.0046L36.8495 42.5894L35.7128 41.1777L39.8014 37.0891C42.0565 34.8339 43.945 32.9822 44 32.9822C44.055 32.9822 46.5668 35.4573 49.592 38.4825ZM19.3218 34.8339C21.0819 35.219 23.8687 36.209 25.5005 37.0157C26.7289 37.6391 29.4608 39.4726 30.6525 40.4626L31.4959 41.1777L30.1025 42.5711L28.6907 43.9828H24.0521H19.4135L18.7534 42.5528C17.9284 40.7376 16.9566 37.7675 16.7 36.264C16.5716 35.6223 16.4433 34.9073 16.3883 34.6689C16.2966 34.1922 16.2966 34.1922 19.3218 34.8339ZM33.916 43.6162C34.0994 43.9462 34.0627 43.9828 33.531 43.9828C32.9626 43.9828 32.9443 43.9828 33.2743 43.6162C33.4577 43.4145 33.6227 43.2495 33.6593 43.2495C33.696 43.2495 33.806 43.4145 33.916 43.6162ZM84.6109 47.3747C85.1976 47.9431 85.1976 48.7315 84.6109 49.3732L84.1708 49.8499H44H3.82914L3.38912 49.3732C2.80241 48.7315 2.80241 47.9431 3.38912 47.3747L3.82914 46.9164H44H84.1708L84.6109 47.3747ZM22.6953 55.6069C23.5204 57.1653 24.1988 58.4671 24.1988 58.5404C24.1988 58.5954 22.347 58.6504 20.0918 58.6504H15.9849L13.3997 55.8269C11.9697 54.2685 10.8146 52.9484 10.8146 52.8934C10.8146 52.8384 13.1431 52.7834 16.0032 52.7834H21.1736L22.6953 55.6069ZM33.421 54.7452C33.7877 55.8086 34.081 56.707 34.0444 56.7436C34.026 56.7803 33.3477 56.5236 32.5409 56.1753C31.0192 55.4969 29.5341 54.6535 27.884 53.4801L26.8939 52.7834H29.8091H32.7243L33.421 54.7452ZM52.0672 52.9117C52.0672 52.9851 51.6821 54.1401 51.2055 55.4786L50.3254 57.8987L49.5003 58.1004C49.042 58.1921 47.6302 58.3754 46.3468 58.5038C43.945 58.7238 40.4981 58.5404 38.4997 58.1004L37.6746 57.8987L36.8129 55.4786C36.3178 54.1401 35.9328 52.9851 35.9328 52.9117C35.9328 52.8384 39.5631 52.7834 44 52.7834C48.4369 52.7834 52.0672 52.8384 52.0672 52.9117ZM60.3177 53.3518C58.4659 54.6902 54.1756 56.982 53.9556 56.7436C53.919 56.707 54.2123 55.8086 54.579 54.7452L55.2757 52.7834H58.1909H61.1061L60.3177 53.3518ZM77.1854 52.8934C77.1854 52.9484 76.0303 54.2685 74.6003 55.8269L72.0151 58.6504H67.9082C65.653 58.6504 63.8012 58.5954 63.8012 58.5404C63.8012 58.4671 64.4796 57.1653 65.323 55.6069L66.8264 52.7834H72.0151C74.8569 52.7834 77.1854 52.8384 77.1854 52.8934ZM27.5906 56.817C27.994 57.092 28.8557 57.6054 29.5158 57.9354L30.7075 58.5588L29.3507 58.6138C28.599 58.6504 27.9023 58.6321 27.774 58.5954C27.5906 58.5038 26.3989 56.4503 26.3989 56.1936C26.3989 56.0469 26.5639 56.1386 27.5906 56.817ZM61.0144 57.4037L60.3727 58.5588L58.7409 58.5954L57.1092 58.6504L58.5759 57.862C59.3826 57.4404 60.3727 56.872 60.7577 56.597C61.1611 56.322 61.5278 56.1203 61.5644 56.1753C61.6011 56.2119 61.3628 56.762 61.0144 57.4037ZM26.8023 63.179C27.2789 64.0774 28.0123 65.3975 28.4157 66.1126L29.1307 67.451H26.3072C23.8871 67.451 23.4654 67.4143 23.4654 67.176C23.4654 67.0293 22.787 66.1492 21.9619 65.2142C21.1186 64.2975 20.0368 63.1057 19.5601 62.574L18.6617 61.5839H22.3103H25.9405L26.8023 63.179ZM35.9328 61.639C35.9328 61.6756 36.3912 62.9407 36.9412 64.4441C37.4913 65.9476 37.9496 67.231 37.9496 67.3043C37.9496 67.396 36.6662 67.451 35.1078 67.451C33.256 67.451 32.2659 67.3776 32.2659 67.2676C32.2659 67.1576 31.6059 65.8559 30.7992 64.3891C29.9925 62.9224 29.3324 61.694 29.3324 61.6573C29.3324 61.6206 30.8175 61.5839 32.6326 61.5839C34.4477 61.5839 35.9328 61.6023 35.9328 61.639ZM48.9136 61.7306C48.8953 61.8223 48.4003 63.1424 47.8502 64.6641L46.8418 67.451H44H41.1582L40.1498 64.6641C39.5997 63.1424 39.123 61.8223 39.0864 61.7306C39.0497 61.6573 41.2682 61.5839 44 61.5839C46.7318 61.5839 48.9503 61.6573 48.9136 61.7306ZM58.6676 61.6573C58.6676 61.694 58.0075 62.9224 57.2008 64.3891C56.3941 65.8559 55.7341 67.1576 55.7341 67.2676C55.7341 67.3776 54.744 67.451 52.8922 67.451C51.3338 67.451 50.0504 67.396 50.0504 67.3043C50.0504 67.231 50.5087 65.9476 51.0588 64.4441C51.6088 62.9407 52.0672 61.6756 52.0672 61.639C52.0672 61.6023 53.5523 61.5839 55.3674 61.5839C57.1825 61.5839 58.6676 61.6206 58.6676 61.6573ZM68.4399 62.574C67.9632 63.1057 66.8814 64.2975 66.0564 65.2142C65.213 66.1492 64.5346 67.0293 64.5346 67.176C64.5346 67.4143 64.1129 67.451 61.6928 67.451H58.8693L59.5843 66.1126C59.9877 65.3975 60.721 64.0774 61.1977 63.179L62.0595 61.5839H65.6897H69.3383L68.4399 62.574ZM29.3324 73.318V76.2515H26.3989H23.4654V73.318V70.3845H26.3989H29.3324V73.318ZM38.133 73.318V76.2515H35.1994H32.2659V73.318V70.3845H35.1994H38.133V73.318ZM46.9335 73.318V76.2515H44H41.0665V73.318V70.3845H44H46.9335V73.318ZM55.7341 73.318V76.2515H52.8006H49.867V73.318V70.3845H52.8006H55.7341V73.318ZM64.5346 73.318V76.2515H61.6011H58.6676V73.318V70.3845H61.6011H64.5346V73.318Z" fill="#202403" fill-opacity="0.6"/>
</svg>
