<svg width="56" height="90" viewBox="0 0 56 90" fill="none" xmlns="http://www.w3.org/2000/svg">
<path d="M47.6577 5.54095C51.771 9.00227 54.3938 13.0752 55.1955 18.4353C56.0993 29.5145 52.3075 39.2514 45.5355 47.8753C45.2468 48.2436 44.958 48.6118 44.6605 48.9912C44.0635 49.7195 43.425 50.4134 42.7755 51.0953C42.4719 51.0953 42.1683 51.0953 41.8555 51.0953C41.8555 51.3989 41.8555 51.7025 41.8555 52.0153C41.3907 52.3379 40.9258 52.6605 40.4468 52.9928C38.6013 54.5076 37.7836 56.2816 36.853 58.4266C36.6475 58.8959 36.6475 58.8959 36.4379 59.3746C35.4551 61.7493 34.7291 64.0343 35.1738 66.6285C35.5823 69.1407 35.5011 71.6748 35.5008 74.2139C35.5018 75.1819 35.5102 76.1497 35.5189 77.1177C35.5522 84.8176 35.5522 84.8176 33.4318 87.6078C31.6356 89.3623 30.3112 89.7761 27.8543 89.9078C25.758 89.8521 24.5918 89.306 22.9955 87.8953C19.8012 84.1829 20.6245 78.6853 20.638 74.0666C20.6364 73.4517 20.6346 72.8369 20.6327 72.2221C20.6376 67.2646 20.6376 67.2646 21.0064 65.1451C21.1869 63.1725 20.7054 61.7744 19.9193 60.0078C19.801 59.7184 19.6827 59.4291 19.5608 59.1309C18.396 56.3719 17.042 54.1119 14.6868 52.2453C8.2404 46.6471 4.07719 39.0314 1.83554 30.8553C1.73237 30.4966 1.62919 30.1378 1.52289 29.7682C0.00568396 23.5851 0.46569 17.0064 3.33054 11.3125C6.75284 5.6735 11.9211 2.58498 18.1943 1.04157C27.8016 -0.665961 39.5538 -0.564202 47.6577 5.54095ZM10.1317 8.78431C6.07867 12.7284 4.4209 16.7404 4.02054 22.3453C4.15938 29.6761 7.21364 37.4082 11.4955 43.2753C11.7742 43.6667 12.0529 44.058 12.3401 44.4613C15.9338 49.2431 20.5127 52.8744 26.2155 54.7753C30.7938 55.1769 34.2133 53.4163 37.6796 50.5257C37.9951 50.2583 38.3105 49.9909 38.6355 49.7153C39.0376 49.4209 39.0376 49.4209 39.4477 49.1206C46.1625 44.0217 50.2131 34.5209 51.6593 26.4853C52.3879 20.9284 51.6425 15.945 48.3908 11.2694C44.6831 6.79946 39.5806 4.77152 33.9007 4.13961C33.5088 4.10396 33.1168 4.0683 32.713 4.03157C32.0883 3.97453 32.0883 3.97453 31.4509 3.91635C24.1887 3.36175 15.8945 3.87916 10.1317 8.78431ZM22.9955 57.0753C23.7266 59.5414 24.4628 62.0012 25.2955 64.4353C27.1171 64.4353 28.9387 64.4353 30.8155 64.4353C31.2127 63.3826 31.6049 62.3284 31.9943 61.2728C32.1078 60.9734 32.2214 60.6739 32.3384 60.3654C32.6241 59.5846 32.8724 58.7904 33.1155 57.9953C32.9637 57.6917 32.8119 57.3881 32.6555 57.0753C32.2001 57.2271 31.7447 57.3789 31.2755 57.5353C30.2125 57.5792 29.1482 57.5951 28.0843 57.5928C27.5204 57.594 26.9565 57.5952 26.3755 57.5964C25.1448 57.5476 24.1597 57.4429 22.9955 57.0753ZM24.3755 68.1153C24.3755 70.9995 24.3755 73.8837 24.3755 76.8553C26.1142 76.1598 27.5135 75.4874 29.0905 74.5266C29.4914 74.284 29.8922 74.0415 30.3052 73.7916C31.2316 73.2527 31.2316 73.2527 31.7355 72.7153C31.7687 71.9397 31.7741 71.1628 31.7643 70.3866C31.7548 69.6371 31.7453 68.8875 31.7355 68.1153C29.3067 68.1153 26.8779 68.1153 24.3755 68.1153ZM27.538 79.3853C27.235 79.5828 26.932 79.7802 26.6198 79.9837C25.8705 80.4724 25.1229 80.9636 24.3755 81.4553C24.578 83.855 24.578 83.855 25.8418 85.8253C27.0984 86.6208 27.0984 86.6208 28.5443 86.5441C30.2651 85.9216 30.7598 85.2949 31.7355 83.7553C31.957 82.1088 31.957 82.1088 31.8505 80.3916C31.8339 79.8146 31.8173 79.2377 31.8002 78.6432C31.7789 78.205 31.7575 77.7668 31.7355 77.3153C30.119 77.3153 28.8546 78.5172 27.538 79.3853Z" fill="#202403" fill-opacity="0.6"/>
<path d="M34.9555 41.8953C35.7145 42.0471 36.4735 42.1989 37.2555 42.3553C37.1037 43.1143 36.9519 43.8733 36.7955 44.6553C36.0365 44.5035 35.2775 44.3517 34.4955 44.1953C34.6473 43.4363 34.7991 42.6773 34.9555 41.8953Z" fill="#202403" fill-opacity="0.6"/>
<path d="M19.3155 41.8953C20.0745 42.0471 20.8335 42.1989 21.6155 42.3553C21.6155 42.9625 21.6155 43.5697 21.6155 44.1953C19.8905 44.7128 19.8905 44.7128 18.8555 44.1953C19.0073 43.4363 19.1591 42.6773 19.3155 41.8953Z" fill="#202403" fill-opacity="0.6"/>
<path d="M11.4955 31.7753C12.2662 31.9069 13.0337 32.0595 13.7955 32.2353C13.6437 32.9943 13.4919 33.7533 13.3355 34.5353C12.7283 34.3835 12.1211 34.2317 11.4955 34.0753C11.2368 33.1841 11.2368 33.1841 11.0355 32.2353C11.1873 32.0835 11.3391 31.9317 11.4955 31.7753Z" fill="#202403" fill-opacity="0.6"/>
<path d="M27.1355 41.8953C27.8945 42.0471 28.6535 42.1989 29.4355 42.3553C29.2918 43.2466 29.2918 43.2466 28.9755 44.1953C28.5201 44.3471 28.0647 44.4989 27.5955 44.6553C27.2919 44.5035 26.9883 44.3517 26.6755 44.1953C26.8273 43.4363 26.9791 42.6773 27.1355 41.8953Z" fill="#202403" fill-opacity="0.6"/>
<path d="M42.7756 31.7753C43.5346 31.9271 44.2936 32.0789 45.0756 32.2353C44.9318 33.1266 44.9318 33.1266 44.6156 34.0753C44.1602 34.2271 43.7048 34.3789 43.2356 34.5353C42.932 34.3835 42.6284 34.2317 42.3156 34.0753C42.4674 33.3163 42.6192 32.5573 42.7756 31.7753Z" fill="#202403" fill-opacity="0.6"/>
<path d="M34.9555 31.7753C35.7145 31.9271 36.4735 32.0789 37.2555 32.2353C37.1118 33.1266 37.1118 33.1266 36.7955 34.0753C36.3401 34.2271 35.8847 34.3789 35.4155 34.5353C35.1119 34.3835 34.8083 34.2317 34.4955 34.0753C34.6473 33.3163 34.7991 32.5573 34.9555 31.7753Z" fill="#202403" fill-opacity="0.6"/>
<path d="M19.3155 31.7753C20.0745 31.9271 20.8335 32.0789 21.6155 32.2353C21.6155 32.8425 21.6155 33.4497 21.6155 34.0753C20.753 34.3628 20.753 34.3628 19.7755 34.5353C19.4719 34.2317 19.1683 33.9281 18.8555 33.6153C19.028 32.6378 19.028 32.6378 19.3155 31.7753Z" fill="#202403" fill-opacity="0.6"/>
<path d="M43.2356 21.1953C44.2131 21.6266 44.2131 21.6266 45.0756 22.1153C44.9238 22.7225 44.772 23.3297 44.6156 23.9553C43.8566 23.8035 43.0976 23.6517 42.3156 23.4953C42.3156 22.8881 42.3156 22.2809 42.3156 21.6553C42.6192 21.5035 42.9228 21.3517 43.2356 21.1953Z" fill="#202403" fill-opacity="0.6"/>
<path d="M35.4155 21.1953C36.393 21.6266 36.393 21.6266 37.2555 22.1153C37.1037 22.7225 36.9519 23.3297 36.7955 23.9553C36.0365 23.8035 35.2775 23.6517 34.4955 23.4953C34.4955 22.8881 34.4955 22.2809 34.4955 21.6553C34.7991 21.5035 35.1027 21.3517 35.4155 21.1953Z" fill="#202403" fill-opacity="0.6"/>
<path d="M27.5955 21.1953C28.5443 21.3966 28.5443 21.3966 29.4355 21.6553C29.2837 22.4143 29.1319 23.1733 28.9755 23.9553C28.2165 23.8035 27.4575 23.6517 26.6755 23.4953C27.078 21.7128 27.078 21.7128 27.5955 21.1953Z" fill="#202403" fill-opacity="0.6"/>
<path d="M19.7755 21.1953C20.7243 21.3966 20.7243 21.3966 21.6155 21.6553C21.4637 22.4143 21.3119 23.1733 21.1555 23.9553C20.3965 23.8035 19.6375 23.6517 18.8555 23.4953C19.258 21.7128 19.258 21.7128 19.7755 21.1953Z" fill="#202403" fill-opacity="0.6"/>
<path d="M11.9555 21.1953C12.9043 21.3966 12.9043 21.3966 13.7955 21.6553C13.6437 22.4143 13.4919 23.1733 13.3355 23.9553C12.5765 23.8035 11.8175 23.6517 11.0355 23.4953C11.438 21.7128 11.438 21.7128 11.9555 21.1953Z" fill="#202403" fill-opacity="0.6"/>
<path d="M27.1355 31.7753C27.9062 31.9069 28.6737 32.0595 29.4355 32.2353C29.2837 32.8425 29.1319 33.4497 28.9755 34.0753C28.3683 34.0753 27.7611 34.0753 27.1355 34.0753C26.8768 33.1841 26.8768 33.1841 26.6755 32.2353C26.8273 32.0835 26.9791 31.9317 27.1355 31.7753Z" fill="#202403" fill-opacity="0.6"/>
<path d="M34.4955 11.0753C35.2545 11.0753 36.0135 11.0753 36.7955 11.0753C37.0543 11.9666 37.0543 11.9666 37.2555 12.9153C36.7955 13.3753 36.7955 13.3753 35.6168 13.4041C35.0618 13.3898 35.0618 13.3898 34.4955 13.3753C34.4955 12.6163 34.4955 11.8573 34.4955 11.0753Z" fill="#202403" fill-opacity="0.6"/>
<path d="M19.3155 11.0753C20.0745 11.0753 20.8335 11.0753 21.6155 11.0753C21.4637 11.8343 21.3119 12.5933 21.1555 13.3753C20.3965 13.2235 19.6375 13.0717 18.8555 12.9153C19.0073 12.3081 19.1591 11.7009 19.3155 11.0753Z" fill="#202403" fill-opacity="0.6"/>
<path d="M27.1355 11.0753C27.8945 11.2271 28.6535 11.3789 29.4355 11.5353C29.2837 12.1425 29.1319 12.7497 28.9755 13.3753C28.2165 13.2235 27.4575 13.0717 26.6755 12.9153C26.8273 12.3081 26.9791 11.7009 27.1355 11.0753Z" fill="#202403" fill-opacity="0.6"/>
</svg>
