<svg width="86" height="98" viewBox="0 0 86 98" fill="none" xmlns="http://www.w3.org/2000/svg">
<path d="M5.13225 41.3547L55.4016 70.3778M69.3237 55.9383C58.4401 74.7893 38.0556 79.7768 21.8605 70.4265C5.66551 61.0763 -0.207494 40.9291 10.6761 22.0781C21.5598 3.22706 41.9443 -1.76038 58.1393 7.58983C74.3344 16.94 80.2074 37.0873 69.3237 55.9383ZM17.8369 67.7214L25.7232 72.3543L16.0513 95L3.48395 87.7442L17.8369 67.7214ZM82.516 84.0064C82.516 88.8637 78.5784 92.8013 73.7212 92.8013C68.8639 92.8013 64.9263 88.8637 64.9263 84.0064C64.9263 79.1491 68.8639 75.2116 73.7212 75.2116C78.5784 75.2116 82.516 79.1491 82.516 84.0064Z" stroke="#202403" stroke-opacity="0.6" stroke-width="5" stroke-linejoin="round"/>
</svg>
