<svg width="137" height="112" viewBox="0 0 137 112" fill="none" xmlns="http://www.w3.org/2000/svg">
<path d="M116.278 74.0261C108.692 72.2387 104.79 67.8474 101.562 62.9636C99.5388 59.9029 95.0906 60.0893 92.8929 63.0267C87.8695 69.7423 80.3698 75.1135 68.4999 75.1135C56.5242 75.1135 48.9973 68.2793 43.9733 61.848C41.8744 59.1614 37.8561 59.1973 36.0191 62.0692C32.6703 67.3047 28.768 72.1302 20.7222 74.0261" stroke="#202020" stroke-opacity="0.6" stroke-width="6" stroke-linecap="round" stroke-linejoin="round"/>
<path d="M116.278 97.9138C108.692 96.1264 104.79 91.7351 101.562 86.8513C99.5388 83.7906 95.0906 83.977 92.8929 86.9144C87.8695 93.63 80.3698 99.0012 68.4999 99.0012C56.5242 99.0012 48.9973 92.167 43.9733 85.7357C41.8744 83.0491 37.8561 83.085 36.0191 85.9569C32.6703 91.1924 28.768 96.0179 20.7222 97.9138" stroke="#202020" stroke-opacity="0.6" stroke-width="6" stroke-linecap="round" stroke-linejoin="round"/>
<path d="M30.2769 53.6098L46.8888 43.6425C50.6939 41.3594 51.5308 36.2023 48.643 32.8331L43.9239 27.3275C41.6152 24.634 41.7694 20.6171 44.2779 18.1086C47.047 15.3395 51.5783 15.481 54.1693 18.4174L85.2213 53.6098" stroke="#202020" stroke-opacity="0.6" stroke-width="6" stroke-linecap="round" stroke-linejoin="round"/>
<path d="M92.3888 36.8879C98.9855 36.8879 104.333 31.5402 104.333 24.9435C104.333 18.3467 98.9855 12.999 92.3888 12.999C85.7921 12.999 80.4443 18.3467 80.4443 24.9435C80.4443 31.5402 85.7921 36.8879 92.3888 36.8879Z" stroke="#202020" stroke-opacity="0.6" stroke-width="6" stroke-linecap="round" stroke-linejoin="round"/>
</svg>
