<svg width="72" height="92" viewBox="0 0 72 92" fill="none" xmlns="http://www.w3.org/2000/svg">
<path d="M69.3244 2.06795L67.9225 1.9371C67.0813 1.80625 66.2588 1.54455 65.4737 1.17069L63.6605 0.292119C62.838 -0.100434 61.8846 -0.100434 61.0808 0.310812C60.3331 0.684672 59.791 1.37631 59.6228 2.19881C59.6041 2.27358 59.6041 2.34835 59.5854 2.42312C59.5854 2.46051 59.5854 2.4792 59.5854 2.51659L59.548 3.91856C59.5293 4.27373 59.4358 4.64759 59.2676 4.96537L57.9217 7.54501C57.1553 7.84409 56.5384 8.42358 56.2206 9.18999L46.4255 32.2572C46.3321 32.5002 46.1638 32.7058 45.9582 32.8553L44.631 33.8648C44.3319 31.8646 42.7617 30.3131 40.7615 30.0327L29.3588 28.3877C28.1251 28.2195 26.8913 28.5186 25.8819 29.2663L20.9843 32.9488C20.5357 31.9581 19.9375 31.0421 19.2085 30.257C17.3579 28.2569 14.7783 27.0792 12.0491 26.9857C6.45987 26.7801 1.71184 31.0234 1.48753 36.4631C1.39406 38.9306 2.23525 41.3233 3.86154 43.1926L2.02962 43.7534C1.16974 43.9029 0.440718 44.5011 0.14163 45.3236C-0.157458 46.1648 0.0481652 47.0994 0.665034 47.7537L1.824 48.9874C2.29133 49.4734 2.92689 49.7538 3.61853 49.7538C3.78677 49.7538 3.93631 49.7351 4.10455 49.7164C4.83358 49.5856 5.45044 49.1182 5.78692 48.4827L5.89908 49.4921C5.95516 50.0529 6.44117 50.5015 7.02066 50.5015C7.05804 50.5015 7.09543 50.5015 7.13281 50.5015C7.74968 50.4268 8.19832 49.8847 8.12354 49.2678L7.78707 46.0713C7.78707 46.0526 7.78707 46.0339 7.76838 46.0152C8.87126 46.4638 10.0676 46.7069 11.264 46.7442C11.3948 46.7442 11.5257 46.7442 11.6565 46.7442C13.2828 46.7442 14.8717 46.3704 16.3298 45.6413C16.3111 46.3704 16.4232 47.1181 16.6662 47.8097C17.1897 49.436 18.4795 52.5204 21.0591 54.9692C23.6014 57.3619 26.7605 58.5769 30.4617 58.5769C31.3776 58.5769 32.2936 58.5021 33.2096 58.3713C34.0881 58.2404 34.8732 57.7357 35.3593 56.988C35.3779 56.9693 35.3779 56.9506 35.3966 56.9132L37.3594 57.1936H37.3781C37.9576 57.2684 38.5558 57.1749 39.0792 56.9319C40.0886 57.7544 41.341 58.2591 42.6308 58.3526L41.2102 80.5786C41.1541 81.4011 41.4532 82.2049 42.014 82.803C42.1635 82.9526 42.3131 83.1021 42.4813 83.2143L42.0887 84.6163C41.9392 85.1023 41.5653 85.4948 41.0793 85.6444C39.9951 86.0182 38.8548 86.1865 37.7146 86.1304C36.0322 86.093 34.6489 87.4202 34.6115 89.0839C34.6115 89.1587 34.6115 89.2521 34.6115 89.3269C34.705 90.841 35.9948 92 37.5276 91.9252C37.6024 91.9252 37.6585 91.9065 37.7333 91.9065L39.7147 91.8131C39.7521 91.8131 39.7895 91.8131 39.8269 91.7944C40.612 91.6822 41.3971 91.7009 42.1822 91.8318C42.2196 91.8318 42.2757 91.8504 42.3317 91.8504L45.0796 91.9813C45.2105 92 45.3413 92 45.4722 92C46.1638 92 46.8181 91.7383 47.3228 91.2897C47.9583 90.7476 48.2948 89.9438 48.2574 89.1213C48.2574 89.0839 48.2574 89.0278 48.2387 88.9717V88.2988C48.2387 87.8315 48.2014 87.3828 48.164 86.9529C48.0705 85.8126 48.0331 85.0836 48.4817 84.4854C48.6687 84.2237 48.8743 83.9807 49.1173 83.7751H49.7529C51.3605 83.7938 52.7064 82.56 52.8372 80.9524L54.7065 52.483L65.3055 13.2277C65.6232 12.0126 65.1559 10.7228 64.1278 10.0125C64.1652 9.02175 64.8381 8.16187 65.2681 7.69455C65.3802 7.58239 65.5298 7.50762 65.698 7.52631C65.9597 7.52631 66.6887 7.60108 68.6141 7.86279C70.0909 8.0871 71.5115 7.17114 71.9041 5.71309C72.1097 4.90929 71.9602 4.04941 71.4741 3.37646C70.9694 2.61005 70.1843 2.14273 69.3244 2.06795ZM44.9488 41.6784L44.4814 41.1737C45.0796 40.5382 45.36 39.6596 45.2665 38.781L44.9675 36.3883L46.8928 34.9116C48.1079 37.3603 50.4445 43.2299 48.4444 48.9687L41.8083 49.7538L41.7896 49.7351L41.8831 49.2678C41.9392 49.2678 42.014 49.2678 42.07 49.2678C42.4813 49.2678 42.8738 49.193 43.2477 49.0248C44.145 48.6696 44.7992 47.8845 45.0235 46.9499L45.6404 44.3141C45.8834 43.3795 45.6217 42.3888 44.9488 41.6784ZM43.472 43.8281L42.8551 46.4638C42.7991 46.6882 42.6308 46.8938 42.4065 46.9686C42.1448 47.0807 41.8644 47.0433 41.6401 46.9125C41.4158 46.7816 41.2849 46.5386 41.2849 46.2769L41.4532 42.314L42.3691 42.1831L43.3038 43.2113C43.4533 43.3608 43.5281 43.6038 43.472 43.8281ZM3.82415 47.3424C3.80546 47.3985 3.74938 47.4546 3.67461 47.4546C3.59984 47.4733 3.52506 47.4546 3.46899 47.3985L2.31002 46.1648C2.27263 46.1274 2.25394 46.0713 2.27263 46.0339C2.29133 45.9591 2.3661 45.9217 2.44087 45.9217L4.85227 45.1927L3.82415 47.3424ZM5.09528 41.0616C4.16063 39.7344 3.6933 38.1455 3.76807 36.5192C3.91762 32.9114 6.66549 29.9766 10.1985 29.3224C9.65637 31.3786 8.96473 33.3787 8.12354 35.3228C7.26367 37.3043 6.25424 39.2296 5.09528 41.0616ZM7.74968 43.4356C7.37582 43.2299 7.02066 42.9869 6.68418 42.7252C8.04877 40.6503 9.20774 38.4632 10.1798 36.2014C11.1518 33.9395 11.9369 31.6029 12.5351 29.2289C12.965 29.2663 13.4137 29.3597 13.8436 29.4719C13.2267 31.7524 12.4603 33.9956 11.5257 36.164C10.4602 38.6875 9.18904 41.1176 7.74968 43.4356ZM11.3574 44.4263C10.8527 44.4076 10.3667 44.3515 9.88068 44.2394C11.2827 41.9401 12.5351 39.5287 13.5819 37.0426C14.4979 34.8742 15.283 32.631 15.8998 30.3692C16.5167 30.743 17.0775 31.2104 17.5822 31.7338C18.9468 33.1918 19.6571 35.1172 19.5824 37.0986C19.4141 41.3046 15.7129 44.5945 11.3574 44.4263ZM18.7038 43.9216C20.2366 42.5009 21.2834 40.6316 21.676 38.5754C22.8162 39.1923 24.4986 40.1643 26.3118 41.3607C26.9287 41.7719 27.5082 42.1831 28.069 42.5944C24.8351 42.8748 20.8722 43.7907 18.6851 44.3515L18.7038 43.9216ZM33.4713 55.7169C33.3404 55.9225 33.1348 56.0534 32.8918 56.0907C32.1067 56.2029 31.3216 56.259 30.5365 56.259C24.5173 56.259 21.3769 52.5391 19.8254 49.5108L32.3497 52.483C32.6301 52.5391 32.8731 52.7634 32.9479 53.0251L33.5647 55.1187C33.6208 55.3056 33.5834 55.5299 33.4713 55.7169ZM33.1909 50.3894L18.7599 46.9312C18.7412 46.8377 18.7038 46.7442 18.6851 46.6508C21.8629 45.8283 28.1251 44.4263 30.8169 44.8002C32.3123 46.1274 33.4339 47.4172 34.1442 48.6135C33.8077 49.2865 33.4713 49.8847 33.1909 50.3894ZM21.8068 36.1079C21.7881 35.8088 21.7507 35.491 21.6947 35.192L27.2465 31.0047C27.7699 30.6309 28.4241 30.4626 29.0597 30.5561L40.4624 32.2011C41.4906 32.3319 42.2944 33.117 42.4439 34.1451L43.0608 39.0614C43.0982 39.4914 42.7804 39.8839 42.3504 39.9213L40.5746 40.1643C40.3316 40.2017 40.0886 40.1456 39.9016 39.9961C39.7334 39.8652 39.64 39.6783 39.6026 39.4727L39.2848 36.4631C39.1726 35.4163 38.2941 34.5938 37.2286 34.5564H37.1164C35.3032 34.4816 31.901 34.3508 30.5738 32.7993C30.1626 32.3319 29.4523 32.2758 28.9849 32.6871C28.5176 33.0983 28.4615 33.8087 28.8728 34.276C30.8355 36.5565 34.705 36.7061 37.0229 36.7996H37.0603L37.3594 39.6783C37.4529 41.2111 36.4621 43.8468 35.3032 46.333C31.6393 41.4541 24.0126 37.2669 21.8068 36.1079ZM35.0602 51.6605C35.5649 50.7819 36.35 49.3239 37.1351 47.6789C38.1258 45.6227 38.7988 43.8468 39.21 42.3888L39.0605 46.2021C39.0231 46.9686 39.3035 47.735 39.8269 48.2957L39.6773 49.0248C39.0418 49.0435 38.4436 49.2491 37.9202 49.623L35.0602 51.6605ZM40.4064 52.5764L38.4249 54.6514C38.2193 54.857 37.9389 54.9505 37.6585 54.9131L35.7331 54.6327L35.5649 54.0345L39.1913 51.4175C39.453 51.2306 39.7895 51.1932 40.0886 51.3053C40.3503 51.3988 40.5372 51.6231 40.5933 51.8848C40.6681 52.1465 40.5933 52.4082 40.4064 52.5764ZM40.8176 55.3804L42.014 54.128C42.5934 53.5298 42.8925 52.726 42.8551 51.8848L45.603 51.567L43.1542 56.072C42.3317 56.072 41.5279 55.829 40.8176 55.3804ZM45.9582 87.1024C45.9956 87.5137 46.0143 87.8875 46.0143 88.2614V89.0091C46.0143 89.0652 46.0143 89.1026 46.0143 89.1587C46.0143 89.1774 46.0143 89.1961 46.0143 89.1961C46.0143 89.3456 45.9395 89.4764 45.8273 89.5699C45.6965 89.6821 45.5469 89.7381 45.3787 89.7195C45.3413 89.7195 45.2852 89.7008 45.2292 89.7008L42.4813 89.5699C41.5093 89.4204 40.5372 89.4017 39.5652 89.5325L37.6024 89.626C37.565 89.626 37.5276 89.626 37.4903 89.6447C37.3407 89.6634 37.1912 89.626 37.0603 89.5325C36.9482 89.4391 36.8734 89.2895 36.8734 89.1587C36.8547 88.953 36.9482 88.7287 37.0977 88.5792C37.2472 88.4296 37.4342 88.3362 37.6585 88.3362C39.0792 88.3923 40.4811 88.1866 41.827 87.7193C43.0234 87.3267 43.9393 86.3734 44.2758 85.1584L44.6684 83.719H46.3134C45.7713 84.8593 45.8647 86.0369 45.9582 87.1024ZM63.1558 12.5921L52.5194 51.9596C52.5007 52.0344 52.482 52.1091 52.482 52.1839L50.6128 80.7655C50.5567 81.1954 50.2015 81.5132 49.7716 81.4945H44.3132C44.0702 81.4945 43.8459 81.4011 43.6776 81.2328C43.5281 81.0833 43.472 80.8777 43.472 80.6907L44.9488 57.5301L48.3322 51.2679L48.893 51.1932C49.6594 51.081 50.3137 50.5389 50.538 49.7912C53.1363 42.4448 49.6407 35.2107 48.4817 33.117C48.4817 33.0983 48.4817 33.0983 48.5004 33.0797L58.2956 10.0125C58.389 9.78817 58.576 9.61993 58.819 9.56385C59.0807 9.48908 59.3424 9.52646 59.5667 9.65731L62.8193 11.7696C63.0997 11.9379 63.2305 12.2743 63.1558 12.5921ZM69.7357 5.09622C69.6235 5.43269 69.2871 5.65701 68.9319 5.58224C67.3804 5.35792 66.3149 5.24577 65.7728 5.20838C64.969 5.17099 64.1652 5.50747 63.6231 6.10564C62.9314 6.83467 62.4267 7.69455 62.1089 8.64789L60.7817 7.80671C60.6696 7.73194 60.5387 7.67586 60.4266 7.61978L61.2678 5.99349C61.6042 5.37662 61.7725 4.68497 61.7912 3.97464L61.8286 2.62874V2.61005C61.8659 2.4792 61.9594 2.36704 62.0716 2.31096C62.2585 2.2175 62.4828 2.2175 62.6697 2.31096L64.483 3.18953C65.4737 3.67555 66.5205 3.99333 67.586 4.16157C67.6047 4.16157 67.6234 4.16157 67.6608 4.16157L69.1001 4.29242C69.3058 4.31111 69.5114 4.42327 69.6235 4.59151C69.7357 4.74105 69.7731 4.92798 69.7357 5.09622Z" fill="#202403" fill-opacity="0.6"/>
<path d="M49.3977 17.957C49.9585 18.2 50.6315 17.9383 50.8745 17.3775L53.8093 10.5172C54.0523 9.9564 53.7906 9.28345 53.2111 9.04044C52.6503 8.79743 51.9773 9.05914 51.7343 9.63862L48.7995 16.499C48.5752 17.041 48.8369 17.714 49.3977 17.957Z" fill="#202403" fill-opacity="0.6"/>
<path d="M66.2027 21.0974C65.6046 20.9666 65.0064 21.3404 64.8568 21.9386L63.2492 28.9672C63.1184 29.5654 63.4922 30.1635 64.0904 30.3131C64.6886 30.4439 65.2868 30.0701 65.4363 29.4719L67.0439 22.4433C67.1748 21.8452 66.8009 21.247 66.2027 21.0974Z" fill="#202403" fill-opacity="0.6"/>
<path d="M67.3991 15.826C66.8009 15.6952 66.2027 16.069 66.0532 16.6672L65.5858 18.7234C65.455 19.3216 65.8289 19.9198 66.427 20.0693C67.0252 20.2002 67.6234 19.8263 67.7729 19.2281L68.2402 17.1719C68.3898 16.5737 68.0159 15.9755 67.3991 15.826Z" fill="#202403" fill-opacity="0.6"/>
<path d="M47.8462 19.0225L47.5097 19.8824C47.2667 20.4619 47.5471 21.1161 48.1079 21.3591C48.6873 21.6021 49.3416 21.3218 49.5846 20.761C49.5846 20.761 49.5846 20.7423 49.6033 20.7423L49.9398 19.8824C50.1828 19.3216 49.9211 18.6487 49.3603 18.4056C48.7995 18.1626 48.1266 18.4243 47.8835 18.9851C47.8462 18.9851 47.8462 19.0038 47.8462 19.0225Z" fill="#202403" fill-opacity="0.6"/>
</svg>
