<svg width="93" height="92" viewBox="0 0 93 92" fill="none" xmlns="http://www.w3.org/2000/svg">
<path d="M31.6217 60.8995C33.5824 58.9387 50.7725 53.5338 61.0845 52.0606M31.6217 60.8995C33.5824 58.9387 38.9874 41.7487 40.4605 31.4367M31.6217 60.8995L27.1992 65.3158M56.702 6.35531L86.1648 35.8181M44.9169 18.1404L74.3797 47.6032M86.9002 15.9297L54.4911 48.3388M76.5882 5.61771L44.1791 38.0268M81.7075 43.222C71.1308 53.7987 55.3017 55.1178 46.3521 46.1683C37.4026 37.2187 38.7217 21.3896 49.2984 10.8129C59.8751 0.236225 75.7042 -1.08287 84.6538 7.86665C93.6033 16.8162 92.2842 32.6453 81.7075 43.222ZM21.737 66.0648L19.6746 66.3594C17.8896 66.6144 16.2355 67.4415 14.9606 68.7165L3.66649 80.0105C2.03931 81.6377 2.03931 84.2759 3.66649 85.9031L6.61277 88.8494C8.23996 90.4765 10.8781 90.4765 12.5053 88.8494L23.7994 77.5553C25.0744 76.2803 25.9014 74.6262 26.1564 72.8412L26.451 70.7789C26.8439 68.029 24.4869 65.672 21.737 66.0648Z" stroke="#202403" stroke-opacity="0.6" stroke-width="3" stroke-linecap="round" stroke-linejoin="round"/>
</svg>
