<svg width="84" height="78" viewBox="0 0 84 78" fill="none" xmlns="http://www.w3.org/2000/svg">
<path d="M76.6352 61.9972L74.9032 60.9972L76.6352 61.9972ZM7.36477 22.0039L5.63272 21.0039L7.36477 22.0039ZM61.9967 7.36529L62.9967 5.63324L61.9967 7.36529ZM44.1432 6.29368L45.8753 7.29368L44.1432 6.29368ZM66.7805 47.0715L65.7805 48.8035L66.7805 47.0715ZM76.7788 29.7539L77.7788 28.0218L76.7788 29.7539ZM55.0138 58.4616L56.6037 59.675L55.0138 58.4616ZM62.7626 45.0402L63.5639 43.2078H63.5639L62.7626 45.0402ZM80.7957 32.2865L82.7358 31.8006L80.7957 32.2865ZM78.7859 57.7035L80.6243 58.491L78.7859 57.7035ZM0.805858 74.3995C-0.0777977 75.0622 -0.256883 76.3158 0.405858 77.1995C1.0686 78.0831 2.3222 78.2622 3.20586 77.5995L0.805858 74.3995ZM8.67141 71.0003L7.47141 69.4003L8.67141 71.0003ZM75.327 71.0003L74.1269 72.6003L75.327 71.0003ZM80.7925 77.5995C81.6762 78.2622 82.9298 78.0831 83.5925 77.1995C84.2552 76.3158 84.0762 75.0622 83.1925 74.3995L80.7925 77.5995ZM48.6647 71.0003L47.4647 72.6003L48.6647 71.0003ZM61.9958 71.0003L60.7958 69.4003L61.9958 71.0003ZM35.3336 71.0003L34.1336 69.4003L35.3336 71.0003ZM22.0025 71.0003L23.2025 69.4003L22.0025 71.0003ZM66.5003 68.9902L66.8887 70.9521L66.5003 68.9902ZM17.498 68.9902L17.8864 67.0283L17.498 68.9902ZM71.4041 69.1217L70.911 71.0599L71.4041 69.1217ZM44.574 69.0803L44.1111 71.026L44.574 69.0803ZM57.5856 50.9989C56.3156 53.1986 54.9238 55.2829 53.4239 57.2483L56.6037 59.675C58.2071 57.5739 59.6939 55.3471 61.0497 52.9989L57.5856 50.9989ZM60.9169 44.27C59.9647 46.5517 58.8556 48.7992 57.5856 50.9989L61.0497 52.9989C62.4054 50.6506 63.5905 48.2497 64.6084 45.8105L60.9169 44.27ZM61.9614 46.8727C63.2539 47.4379 64.5289 48.0809 65.7805 48.8035L67.7805 45.3394C66.3999 44.5424 64.9923 43.8323 63.5639 43.2078L61.9614 46.8727ZM40.9723 22.4253C41.4983 17.2495 43.102 12.0972 45.8753 7.29368L42.4112 5.29368C39.3498 10.5962 37.5748 16.2938 36.9928 22.0209L40.9723 22.4253ZM39.2441 24.2059C51.4604 22.5947 64.281 24.8476 75.7788 31.4859L77.7788 28.0218C65.4918 20.9279 51.78 18.5179 38.7211 20.2402L39.2441 24.2059ZM42.2472 43.9852C48.8336 43.1647 55.5526 44.0704 61.9614 46.8727L63.5639 43.2078C56.4881 40.1138 49.044 39.1076 41.7528 40.0159L42.2472 43.9852ZM43.8348 41.2046C41.2613 35.2723 40.309 28.9524 40.9723 22.4253L36.9928 22.0209C36.2621 29.2114 37.3123 36.2202 40.1652 42.7965L43.8348 41.2046ZM40.268 41.0005C36.7555 47.0843 31.819 51.8252 26.1231 55.0508L28.0943 58.5314C34.3939 54.9639 39.8532 49.7188 43.7321 43.0005L40.268 41.0005ZM45.8753 7.29368C46.6467 5.95753 47.4865 4.68665 48.3876 3.48269L45.1852 1.08592C44.1893 2.41655 43.2621 3.81991 42.4112 5.29368L45.8753 7.29368ZM46.548 4.27005C51.4933 4.86368 56.4043 6.44594 60.9967 9.09734L62.9967 5.63324C57.9275 2.70658 52.497 0.955453 47.0247 0.298561L46.548 4.27005ZM9.09682 23.0039C12.5207 17.0736 17.2975 12.4195 22.8116 9.20086L20.7951 5.74631C14.6961 9.30634 9.41352 14.4553 5.63272 21.0039L9.09682 23.0039ZM22.8116 9.20086C29.9373 5.0415 38.2948 3.27934 46.548 4.27005L47.0247 0.298561C37.9 -0.796779 28.6678 1.15095 20.7951 5.74631L22.8116 9.20086ZM28.832 55.776C20.4804 41.5983 18.3686 24.1954 23.7018 8.10274L19.9049 6.84442C14.2 24.0584 16.4622 42.658 25.3855 57.8062L28.832 55.776ZM75.7788 31.4859C77.1167 32.2584 78.4119 33.0759 79.6636 33.9353L81.9278 30.6378C80.5903 29.7195 79.207 28.8464 77.7788 28.0218L75.7788 31.4859ZM60.9967 9.09734C70.2777 14.4557 76.4414 23.1348 78.8557 32.7725L82.7358 31.8006C80.0692 21.1553 73.2542 11.5554 62.9967 5.63324L60.9967 9.09734ZM78.8557 32.7725C80.8214 40.6201 80.2982 49.0935 76.9474 56.916L80.6243 58.491C84.331 49.8377 84.9069 40.4677 82.7358 31.8006L78.8557 32.7725ZM76.9474 56.916C76.3553 58.2983 75.6746 59.6611 74.9032 60.9972L78.3673 62.9972C79.2182 61.5234 79.9699 60.0187 80.6243 58.491L76.9474 56.916ZM65.7805 48.8035C70.3728 51.4549 74.1986 54.9168 77.1854 58.9028L80.3864 56.5042C77.0814 52.0935 72.8496 48.2661 67.7805 45.3394L65.7805 48.8035ZM26.1231 55.0508C20.4087 58.287 13.9289 59.9984 7.35924 60.0039L7.3626 64.0039C14.6222 63.9978 21.7799 62.1074 28.0943 58.5314L26.1231 55.0508ZM9.09381 61.0053C2.54063 49.6329 2.06663 35.1805 9.09682 23.0039L5.63272 21.0039C-2.14027 34.4671 -1.60874 50.4436 5.62803 63.0024L9.09381 61.0053ZM3.20586 77.5995L9.87141 72.6003L7.47141 69.4003L0.805858 74.3995L3.20586 77.5995ZM74.1269 72.6003L80.7925 77.5995L83.1925 74.3995L76.5269 69.4003L74.1269 72.6003ZM47.4647 72.6003C52.1258 76.0961 58.5348 76.0961 63.1958 72.6003L60.7958 69.4003C57.557 71.8294 53.1036 71.8294 49.8647 69.4003L47.4647 72.6003ZM20.8025 72.6003C25.4636 76.0961 31.8726 76.0961 36.5336 72.6003L34.1336 69.4003C30.8948 71.8294 26.4414 71.8294 23.2025 69.4003L20.8025 72.6003ZM63.1958 72.6003C64.3163 71.76 65.58 71.2112 66.8887 70.9521L66.112 67.0283C64.2268 67.4014 62.406 68.1927 60.7958 69.4003L63.1958 72.6003ZM17.1097 70.9521C18.4184 71.2112 19.6821 71.76 20.8025 72.6003L23.2025 69.4003C21.5924 68.1927 19.7715 67.4014 17.8864 67.0283L17.1097 70.9521ZM9.87141 72.6003C10.8552 71.8625 11.9491 71.3496 13.0866 71.0601L12.1 67.1837C10.4606 67.6009 8.88465 68.3404 7.47141 69.4003L9.87141 72.6003ZM13.0866 71.0601C14.4034 70.7249 15.7798 70.6889 17.1097 70.9521L17.8864 67.0283C15.9738 66.6497 13.995 66.7014 12.1 67.1837L13.0866 71.0601ZM14.0631 67.7655C12.1433 65.6852 10.4823 63.4149 9.09381 61.0053L5.62803 63.0024C7.1629 65.666 8.99975 68.1769 11.1235 70.4782L14.0631 67.7655ZM66.8887 70.9521C68.2183 70.6889 69.5944 70.7249 70.911 71.0599L71.8973 67.1834C70.0027 66.7014 68.0242 66.6497 66.112 67.0283L66.8887 70.9521ZM70.911 71.0599C72.0488 71.3494 73.143 71.8623 74.1269 72.6003L76.5269 69.4003C75.1134 68.3401 73.5371 67.6006 71.8973 67.1834L70.911 71.0599ZM74.9032 60.9972C73.4681 63.4828 71.7961 65.7431 69.9327 67.767L72.8755 70.4763C74.9369 68.2373 76.7841 65.7394 78.3673 62.9972L74.9032 60.9972ZM36.5336 72.6003C38.7492 70.9386 41.5337 70.4128 44.1111 71.026L45.0369 67.1346C41.3325 66.2534 37.3239 67.0076 34.1336 69.4003L36.5336 72.6003ZM44.1111 71.026C45.2984 71.3085 46.4412 71.8326 47.4647 72.6003L49.8647 69.4003C48.3942 68.2974 46.7477 67.5416 45.0369 67.1346L44.1111 71.026ZM53.4239 57.2483C50.4517 61.1429 47.0535 64.573 43.3343 67.5109L45.8137 70.6497C49.7918 67.5074 53.4261 63.8388 56.6037 59.675L53.4239 57.2483Z" fill="#202403" fill-opacity="0.6"/>
</svg>
