<svg width="16" height="16" viewBox="0 0 16 16" fill="none" xmlns="http://www.w3.org/2000/svg">
<path d="M11.6001 13.4001C11.6001 12.127 11.0943 10.9059 10.194 10.0056C9.29375 9.10538 8.07272 8.59961 6.79954 8.59961C5.52637 8.59961 4.30534 9.10538 3.40506 10.0056C2.50479 10.9059 1.99902 12.127 1.99902 13.4001" stroke="#202020" stroke-opacity="0.85" stroke-linecap="round" stroke-linejoin="round"/>
<path d="M6.79915 8.60026C8.45619 8.60026 9.79948 7.25697 9.79948 5.59994C9.79948 3.9429 8.45619 2.59961 6.79915 2.59961C5.14212 2.59961 3.79883 3.9429 3.79883 5.59994C3.79883 7.25697 5.14212 8.60026 6.79915 8.60026Z" stroke="#202020" stroke-opacity="0.85" stroke-linecap="round" stroke-linejoin="round"/>
<path d="M14.0004 12.8006C14.0004 10.7784 12.8002 8.90017 11.6001 8.00007C11.9946 7.7041 12.3101 7.31545 12.5185 6.86851C12.727 6.42157 12.8221 5.93013 12.7954 5.43767C12.7687 4.94522 12.6211 4.46694 12.3655 4.04516C12.1099 3.62338 11.7543 3.27112 11.3301 3.01953" stroke="#202020" stroke-opacity="0.85" stroke-linecap="round" stroke-linejoin="round"/>
</svg>
