<svg width="16" height="16" viewBox="0 0 16 16" fill="none" xmlns="http://www.w3.org/2000/svg">
<path d="M12.726 13.1009C12.726 11.8277 12.2202 10.6067 11.32 9.70644C10.4197 8.80617 9.19866 8.3004 7.92549 8.3004C6.65231 8.3004 6.02521 8.30003 5.12494 9.2003" stroke="#202403" stroke-opacity="0.85" stroke-linecap="round" stroke-linejoin="round"/>
<path d="M7.67373 8.30033C9.33076 8.30033 10.6741 6.95704 10.6741 5.30001C10.6741 3.64297 9.33076 2.29968 7.67373 2.29968C6.01669 2.29968 4.6734 3.64297 4.6734 5.30001C4.6734 6.95704 6.01669 8.30033 7.67373 8.30033Z" stroke="#202403" stroke-opacity="0.85" stroke-linecap="round" stroke-linejoin="round"/>
<path d="M14.875 12.5007C14.875 10.4785 13.6749 8.60026 12.4747 7.70016C12.8692 7.40419 13.1847 7.01554 13.3932 6.5686C13.6017 6.12166 13.6968 5.63022 13.6701 5.13776C13.6434 4.64531 13.4957 4.16703 13.2401 3.74525C12.9845 3.32347 12.6289 2.9712 12.2047 2.71962" stroke="#202403" stroke-opacity="0.85" stroke-linecap="round" stroke-linejoin="round"/>
<path d="M5.16918 13.7003L3.62494 12.851L2.08011 13.7003L2.37583 11.9001L1.12494 10.6255L2.85193 10.363L3.62494 8.7003L4.39795 10.363L6.12494 10.6255L4.87405 11.9007L5.16918 13.7003Z" fill="#202403" fill-opacity="0.85"/>
</svg>
