<svg width="16" height="16" viewBox="0 0 16 16" fill="none" xmlns="http://www.w3.org/2000/svg">
<path d="M13.5862 2.30732L10.6662 1.33398C10.6662 2.04123 10.3853 2.71951 9.88516 3.2196C9.38506 3.7197 8.70678 4.00065 7.99954 4.00065C7.29229 4.00065 6.61402 3.7197 6.11392 3.2196C5.61382 2.71951 5.33287 2.04123 5.33287 1.33398L2.41287 2.30732C2.11113 2.40785 1.85526 2.61293 1.69144 2.88555C1.52763 3.15816 1.46666 3.48036 1.51954 3.79398L1.90621 6.10732C1.93159 6.26393 2.01199 6.40635 2.13297 6.50899C2.25394 6.61164 2.40755 6.66778 2.56621 6.66732H3.99954V13.334C3.99954 14.0673 4.59954 14.6673 5.33287 14.6673H10.6662C11.0198 14.6673 11.359 14.5268 11.609 14.2768C11.8591 14.0267 11.9995 13.6876 11.9995 13.334V6.66732H13.4329C13.5915 6.66778 13.7451 6.61164 13.8661 6.50899C13.9871 6.40635 14.0675 6.26393 14.0929 6.10732L14.4795 3.79398C14.5324 3.48036 14.4715 3.15816 14.3076 2.88555C14.1438 2.61293 13.8879 2.40785 13.5862 2.30732Z" stroke="#202020" stroke-opacity="0.85" stroke-linecap="round" stroke-linejoin="round"/>
</svg>
