<svg width="16" height="16" viewBox="0 0 16 16" fill="none" xmlns="http://www.w3.org/2000/svg">
<path d="M6.66667 6.66602H4" stroke="#202020" stroke-opacity="0.85" stroke-linecap="round" stroke-linejoin="round"/>
<path d="M9.33301 11.9993V3.99935C9.33301 3.64573 9.19253 3.30659 8.94248 3.05654C8.69243 2.80649 8.3533 2.66602 7.99967 2.66602H2.66634C2.31272 2.66602 1.97358 2.80649 1.72353 3.05654C1.47348 3.30659 1.33301 3.64573 1.33301 3.99935V11.3327C1.33301 11.5095 1.40325 11.6791 1.52827 11.8041C1.65329 11.9291 1.82286 11.9993 1.99967 11.9993L2.49976 11.999" stroke="#202020" stroke-opacity="0.85" stroke-linecap="round" stroke-linejoin="round"/>
<path d="M13.5002 11.998L14.0001 11.9987C14.1769 11.9987 14.3465 11.9285 14.4715 11.8034C14.5966 11.6784 14.6668 11.5088 14.6668 11.332V9.14536C14.6667 9.0055 14.6226 8.86922 14.5408 8.75579C14.4589 8.64237 14.3435 8.55756 14.2108 8.51336L12.9288 8.08603C12.8457 8.05829 12.769 8.01446 12.7028 7.95703C12.6367 7.89961 12.5826 7.82972 12.5435 7.75136L11.5175 5.7007C11.4621 5.58998 11.3771 5.49685 11.2718 5.43173C11.1666 5.36662 11.0452 5.3321 10.9215 5.33203H9.8457" stroke="#202020" stroke-opacity="0.85" stroke-linecap="round" stroke-linejoin="round"/>
<path d="M5.33301 5.33203V7.9987" stroke="#202020" stroke-opacity="0.85" stroke-linecap="round" stroke-linejoin="round"/>
<path d="M7 12H9" stroke="#202020" stroke-opacity="0.85" stroke-linecap="round" stroke-linejoin="round"/>
<path d="M11.3333 13.3327C12.0697 13.3327 12.6667 12.7357 12.6667 11.9993C12.6667 11.263 12.0697 10.666 11.3333 10.666C10.597 10.666 10 11.263 10 11.9993C10 12.7357 10.597 13.3327 11.3333 13.3327Z" stroke="#202020" stroke-opacity="0.85" stroke-linecap="round" stroke-linejoin="round"/>
<path d="M4.66634 13.3327C5.40272 13.3327 5.99967 12.7357 5.99967 11.9993C5.99967 11.263 5.40272 10.666 4.66634 10.666C3.92996 10.666 3.33301 11.263 3.33301 11.9993C3.33301 12.7357 3.92996 13.3327 4.66634 13.3327Z" stroke="#202020" stroke-opacity="0.85" stroke-linecap="round" stroke-linejoin="round"/>
</svg>
