<svg width="24" height="24" viewBox="0 0 24 24" fill="none" xmlns="http://www.w3.org/2000/svg">
<g clip-path="url(#clip0_8007_1176)">
<path d="M9.2999 3.90002H4.7999C4.30285 3.90002 3.8999 4.30297 3.8999 4.80002V11.1C3.8999 11.5971 4.30285 12 4.7999 12H9.2999C9.79696 12 10.1999 11.5971 10.1999 11.1V4.80002C10.1999 4.30297 9.79696 3.90002 9.2999 3.90002Z" stroke="#141400" stroke-width="1.5" stroke-linecap="round" stroke-linejoin="round"/>
<path d="M19.2 3.90002H14.7C14.203 3.90002 13.8 4.30297 13.8 4.80002V7.50002C13.8 7.99708 14.203 8.40002 14.7 8.40002H19.2C19.6971 8.40002 20.1 7.99708 20.1 7.50002V4.80002C20.1 4.30297 19.6971 3.90002 19.2 3.90002Z" stroke="#141400" stroke-width="1.5" stroke-linecap="round" stroke-linejoin="round"/>
<path d="M19.2 12H14.7C14.203 12 13.8 12.4029 13.8 12.9V19.2C13.8 19.6971 14.203 20.1 14.7 20.1H19.2C19.6971 20.1 20.1 19.6971 20.1 19.2V12.9C20.1 12.4029 19.6971 12 19.2 12Z" stroke="#141400" stroke-width="1.5" stroke-linecap="round" stroke-linejoin="round"/>
<path d="M9.2999 15.6H4.7999C4.30285 15.6 3.8999 16.0029 3.8999 16.5V19.2C3.8999 19.697 4.30285 20.1 4.7999 20.1H9.2999C9.79696 20.1 10.1999 19.697 10.1999 19.2V16.5C10.1999 16.0029 9.79696 15.6 9.2999 15.6Z" stroke="#141400" stroke-width="1.5" stroke-linecap="round" stroke-linejoin="round"/>
</g>
<defs>
<clipPath id="clip0_8007_1176">
<rect width="18" height="18" fill="white" transform="translate(3 3)"/>
</clipPath>
</defs>
</svg>
