<svg width="16" height="16" viewBox="0 0 16 16" fill="none" xmlns="http://www.w3.org/2000/svg">
<g clip-path="url(#clip0_6115_31363)">
<path d="M4.75 12.3914C4.75 10.3423 7.1875 10.7523 7.1875 9.93278C7.21474 9.64175 7.13587 9.35069 6.96542 9.11323C6.77103 8.92893 6.6179 8.70551 6.51613 8.45772C6.41437 8.20993 6.36626 7.94338 6.375 7.67565C6.34855 7.21649 6.50441 6.76545 6.80871 6.42059C7.113 6.07572 7.54112 5.86491 8 5.83398C8.45888 5.86491 8.887 6.07572 9.19129 6.42059C9.49559 6.76545 9.65145 7.21649 9.625 7.67565C9.63475 7.94417 9.5863 8.21163 9.48299 8.45967C9.37968 8.70772 9.22394 8.93048 9.02646 9.11269C8.86286 9.35327 8.78729 9.64294 8.8125 9.93278C8.8125 10.7523 11.25 10.3428 11.25 12.3919C11.25 12.3919 10.6027 12.8762 8 12.8762C5.39729 12.8762 4.75 12.3914 4.75 12.3914Z" stroke="#202020" stroke-opacity="0.85" stroke-miterlimit="10"/>
<path d="M4.47191 10.1488C4.1637 10.1347 3.89178 10.1136 3.65291 10.087C3.09222 10.0759 2.54139 9.93756 2.04199 9.68242C2.04199 7.63329 4.47949 8.04333 4.47949 7.22379C4.50674 6.93277 4.42786 6.6417 4.25741 6.40425C4.06302 6.21994 3.90989 5.99653 3.80813 5.74874C3.70636 5.50095 3.65826 5.2344 3.66699 4.96667C3.64054 4.50751 3.79641 4.05647 4.1007 3.7116C4.40499 3.36674 4.83311 3.15593 5.29199 3.125C5.75087 3.15593 6.17899 3.36674 6.48328 3.7116C6.78758 4.05647 6.94344 4.50751 6.91699 4.96667" stroke="#202020" stroke-opacity="0.85" stroke-miterlimit="10"/>
<path d="M11.529 10.1488C11.8372 10.1347 12.1092 10.1136 12.348 10.087C12.9087 10.0759 13.4595 9.93756 13.9589 9.68242C13.9589 7.63329 11.5214 8.04333 11.5214 7.22379C11.4942 6.93277 11.5731 6.6417 11.7435 6.40425C11.9379 6.21994 12.091 5.99653 12.1928 5.74874C12.2946 5.50095 12.3427 5.2344 12.3339 4.96667C12.3604 4.50751 12.2045 4.05647 11.9002 3.7116C11.5959 3.36674 11.1678 3.15593 10.7089 3.125C10.2501 3.15593 9.82195 3.36674 9.51765 3.7116C9.21336 4.05647 9.0575 4.50751 9.08395 4.96667" stroke="#202020" stroke-opacity="0.85" stroke-miterlimit="10"/>
</g>
<defs>
<clipPath id="clip0_6115_31363">
<rect width="13" height="13" fill="white" transform="translate(1.5 1.5)"/>
</clipPath>
</defs>
</svg>
