<svg width="24" height="24" viewBox="0 0 24 24" fill="none" xmlns="http://www.w3.org/2000/svg">
<path d="M11.5263 3.47363V19.5789C11.5263 19.8302 11.4265 20.0711 11.2488 20.2488C11.0712 20.4265 10.8302 20.5263 10.5789 20.5263H4.89474C4.39222 20.5263 3.91029 20.3266 3.55496 19.9713C3.19962 19.616 3 19.134 3 18.6315V5.36837C3 4.86585 3.19962 4.38392 3.55496 4.02859C3.91029 3.67326 4.39222 3.47363 4.89474 3.47363H18.1579C18.6604 3.47363 19.1423 3.67326 19.4977 4.02859C19.853 4.38392 20.0526 4.86585 20.0526 5.36837V11.0526C20.0526 11.3038 19.9528 11.5448 19.7752 11.7225C19.5975 11.9001 19.3565 11.9999 19.1053 11.9999H3" stroke="#202403" stroke-opacity="0.6" stroke-width="1.5" stroke-linecap="round" stroke-linejoin="round"/>
<path d="M15.3158 18.6316L17.2105 20.5263L21 16.7368" stroke="#202403" stroke-opacity="0.6" stroke-width="1.5" stroke-linecap="round" stroke-linejoin="round"/>
</svg>
