<svg width="16" height="16" viewBox="0 0 16 16" fill="none" xmlns="http://www.w3.org/2000/svg">
<path d="M12.7996 8.59916C12.7996 11.5987 10.6999 13.0984 8.20433 13.9683C8.07365 14.0125 7.9317 14.0104 7.8024 13.9623C5.30082 13.0984 3.20117 11.5987 3.20117 8.59916V4.39987C3.20117 4.24076 3.26438 4.08818 3.37688 3.97567C3.48938 3.86317 3.64197 3.79997 3.80107 3.79997C5.00087 3.79997 6.50062 3.08009 7.54444 2.16824C7.67154 2.05966 7.83321 2 8.00037 2C8.16753 2 8.3292 2.05966 8.45629 2.16824C9.50612 3.08609 10.9999 3.79997 12.1997 3.79997C12.3588 3.79997 12.5114 3.86317 12.6239 3.97567C12.7364 4.08818 12.7996 4.24076 12.7996 4.39987V8.59916Z" stroke="#202020" stroke-opacity="0.85" stroke-linecap="round" stroke-linejoin="round"/>
<path d="M8 13.998V2" stroke="#202020" stroke-opacity="0.85" stroke-linecap="round" stroke-linejoin="round"/>
</svg>
