<svg width="24" height="24" viewBox="0 0 24 24" fill="none" xmlns="http://www.w3.org/2000/svg">
<path d="M17.9994 20.9997C17.9994 18.8781 17.1566 16.8433 15.6563 15.3431C14.1561 13.8429 12.1213 13.0001 9.99969 13.0001C7.87804 13.0001 5.84329 13.8429 4.34305 15.3431C2.84282 16.8433 2 18.8781 2 20.9997" stroke="#C0D330" stroke-width="1.5" stroke-linecap="round" stroke-linejoin="round"/>
<path d="M9.99968 12.9999C12.761 12.9999 14.9995 10.7614 14.9995 8.00011C14.9995 5.23879 12.761 3.00031 9.99968 3.00031C7.23837 3.00031 4.99988 5.23879 4.99988 8.00011C4.99988 10.7614 7.23837 12.9999 9.99968 12.9999Z" stroke="#C0D330" stroke-width="1.5" stroke-linecap="round" stroke-linejoin="round"/>
<path d="M22 19.9994C22 16.6296 20.0001 13.4997 18.0002 11.9997C18.6575 11.5065 19.1832 10.8589 19.5307 10.1141C19.8781 9.3693 20.0366 8.55035 19.9921 7.72972C19.9476 6.90908 19.7015 6.11206 19.2756 5.40921C18.8497 4.70635 18.257 4.11932 17.5502 3.70007" stroke="#C0D330" stroke-width="1.5" stroke-linecap="round" stroke-linejoin="round"/>
</svg>
