<svg width="24" height="24" viewBox="0 0 24 24" fill="none" xmlns="http://www.w3.org/2000/svg">
<path d="M19.542 4.314L15.6 3C15.6 3.95478 15.2207 4.87045 14.5456 5.54558C13.8704 6.22072 12.9548 6.6 12 6.6C11.0452 6.6 10.1295 6.22072 9.4544 5.54558C8.77927 4.87045 8.39999 3.95478 8.39999 3L4.45799 4.314C4.05063 4.44971 3.70521 4.72657 3.48406 5.09461C3.26291 5.46264 3.1806 5.89761 3.25199 6.321L3.77399 9.444C3.80826 9.65542 3.9168 9.84769 4.08011 9.98626C4.24343 10.1248 4.45081 10.2006 4.66499 10.2H6.59999V19.2C6.59999 20.19 7.40999 21 8.39999 21H15.6C16.0774 21 16.5352 20.8104 16.8728 20.4728C17.2103 20.1352 17.4 19.6774 17.4 19.2V10.2H19.335C19.5492 10.2006 19.7565 10.1248 19.9199 9.98626C20.0832 9.84769 20.1917 9.65542 20.226 9.444L20.748 6.321C20.8194 5.89761 20.7371 5.46264 20.5159 5.09461C20.2948 4.72657 19.9493 4.44971 19.542 4.314Z" stroke="#C0D330" stroke-width="1.5" stroke-linecap="round" stroke-linejoin="round"/>
</svg>
