<svg width="20" height="18" viewBox="0 0 20 18" fill="none" xmlns="http://www.w3.org/2000/svg">
<path d="M11.8 8.14402C11.8 8.62141 11.6104 9.07925 11.2728 9.41681C10.9352 9.75438 10.4774 9.94402 10 9.94402C9.52262 9.94402 9.06478 9.75438 8.72721 9.41681C8.38965 9.07925 8.20001 8.62141 8.20001 8.14402C8.20001 7.18924 8.57929 6.27357 9.25442 5.59844C9.92955 4.92331 10.8452 4.54402 11.8 4.54402C12.7548 4.54402 13.6705 4.92331 14.3456 5.59844C15.0207 6.27357 15.4 7.18924 15.4 8.14402C15.4 9.57619 14.8311 10.9497 13.8184 11.9624C12.8057 12.9751 11.4322 13.544 10 13.544C8.56784 13.544 7.19433 12.9751 6.18163 11.9624C5.16894 10.9497 4.60001 9.57619 4.60001 8.14402C4.60001 6.23447 5.35858 4.40312 6.70884 3.05286C8.0591 1.7026 9.89045 0.944026 11.8 0.944026C13.7096 0.944026 15.5409 1.7026 16.8912 3.05286C18.2414 4.40312 19 6.23447 19 8.14402C19 10.531 18.0518 12.8202 16.364 14.508C14.6761 16.1958 12.387 17.144 10 17.144C7.61306 17.144 5.32387 16.1958 3.63605 14.508C1.94822 12.8202 1.00001 10.531 1.00001 8.14402C0.996693 5.79826 1.76168 3.51595 3.17801 1.64603C3.31591 1.44265 3.494 1.26965 3.70129 1.13771C3.90859 1.00576 4.1407 0.91766 4.38334 0.878824C4.62598 0.839988 4.874 0.851243 5.11212 0.911896C5.35024 0.972548 5.57342 1.08131 5.76791 1.23149C5.96241 1.38167 6.12409 1.57008 6.24301 1.78511C6.36192 2.00015 6.43555 2.23725 6.45936 2.48182C6.48316 2.72639 6.45664 2.97325 6.38142 3.20718C6.30621 3.44111 6.18389 3.65716 6.02201 3.84202" stroke="#C0D330" stroke-width="1.5" stroke-linecap="round" stroke-linejoin="round"/>
</svg>
