<svg width="24" height="23" viewBox="0 0 24 23" fill="none" xmlns="http://www.w3.org/2000/svg">
<path d="M10.4078 0.0441284C10.3547 0.0662651 10.2838 0.128244 10.244 0.185797C10.2086 0.243351 9.39397 2.09833 8.43328 4.31633L6.68455 8.34503L4.90927 11.4175C3.9353 13.1086 3.09414 14.6006 3.04544 14.7334C2.84179 15.2779 2.89492 15.9774 3.19153 16.5308C3.47045 17.0577 3.6431 17.1816 5.79027 18.4212C6.87492 19.0454 7.80462 19.5678 7.85775 19.5856C8.00384 19.6298 8.25176 19.5059 8.33588 19.3421C8.39786 19.2225 8.40229 19.1694 8.36244 19.0277C8.30489 18.8374 8.42885 18.9171 5.83454 17.4207C5.04208 16.9647 4.32046 16.5175 4.22749 16.429C4.13452 16.3405 4.0017 16.1678 3.93972 16.0483C3.77592 15.7428 3.77149 15.2204 3.92201 14.9061C3.97957 14.791 4.04155 14.7068 4.05483 14.7157C4.07254 14.7245 6.23298 15.9686 8.85828 17.4871C11.488 19.0012 13.737 20.285 13.861 20.3426C14.4188 20.5861 14.4188 20.5861 18.4253 20.5861C20.9577 20.5861 22.1264 20.5994 22.1264 20.6304C22.1264 20.7012 21.9494 21.0332 21.8298 21.1926C21.6793 21.3874 21.303 21.6309 21.0241 21.7106C20.6743 21.8124 14.038 21.8168 13.5643 21.715C13.1925 21.6353 12.9047 21.5025 12.1299 21.0598C11.4482 20.6658 11.3109 20.6392 11.0984 20.8473C10.9479 21.0022 10.9258 21.259 11.0497 21.4095C11.1206 21.4981 12.0148 22.0382 12.5063 22.2817C12.6302 22.3481 12.9091 22.4543 13.1261 22.5208L13.5156 22.6447L17.1238 22.658C19.6959 22.6668 20.8204 22.658 21.0329 22.6182C21.9139 22.4721 22.7374 21.7283 22.9853 20.8517C23.1093 20.4179 23.2022 19.497 23.1757 19.0145C23.065 17.1683 21.8564 15.5746 20.1209 14.9813C19.9439 14.9193 19.1248 14.7334 18.2925 14.5652C16.7784 14.2597 16.5305 14.1933 16.2295 14.0029C16.0391 13.8834 16.0347 13.8745 16.1365 13.755C16.1808 13.7063 16.2162 13.6001 16.2162 13.5027C16.2162 13.1795 15.8709 12.9714 15.5831 13.1219C15.4193 13.206 15.4592 13.2636 15.1094 12.48L14.8703 11.9443L15.0209 11.7982C15.2245 11.6078 15.2334 11.3998 15.0474 11.1917C14.9323 11.0589 14.8925 11.0456 14.6977 11.05L14.4763 11.0589L14.2904 10.6339L14.1045 10.2133L14.193 10.0318C14.2417 9.92995 15.3706 7.77835 16.7032 5.24603C18.0313 2.7137 19.1337 0.588669 19.147 0.522261C19.2001 0.261059 18.9743 -0.000143051 18.6998 -0.000143051C18.6378 -0.000143051 18.5272 0.0529823 18.4563 0.11939C18.3766 0.194653 17.8675 1.11993 17.1415 2.5012C16.4907 3.7408 15.9506 4.76789 15.9417 4.77675C15.9107 4.81659 9.86325 3.34235 9.86325 3.29366C9.86325 3.27152 10.1156 2.67385 10.4211 1.96551C10.7265 1.26159 10.9966 0.628511 11.0187 0.557678C11.0409 0.473562 11.0364 0.385019 10.9966 0.287622C10.8903 0.0397015 10.6601 -0.0576954 10.4078 0.0441284ZM12.5594 4.89628C14.1664 5.28587 15.4857 5.61348 15.4857 5.63119C15.4857 5.6666 13.3651 9.69974 13.312 9.76614C13.1703 9.9388 11.4083 10.0008 10.6911 9.85469C9.64631 9.65104 8.53953 9.13749 7.78691 8.50883L7.63639 8.38045L8.49083 6.41479C8.96011 5.33457 9.37183 4.38273 9.40725 4.29862C9.45152 4.19237 9.49136 4.15695 9.55334 4.17466C9.59762 4.18351 10.9523 4.51112 12.5594 4.89628ZM7.78691 9.59791C8.56166 10.1292 9.51793 10.5232 10.4742 10.718C11.063 10.8375 12.0635 10.8729 12.6523 10.8021C13.4138 10.7047 13.3386 10.6781 13.5378 11.1253L13.7104 11.5104L13.1393 11.7982C12.7763 11.9797 12.5372 12.1258 12.493 12.2011C12.3247 12.4534 12.4576 12.781 12.7586 12.8563C12.9135 12.8961 12.9622 12.8784 13.4714 12.6217C13.7724 12.4667 14.0336 12.3427 14.0513 12.3427C14.0646 12.3472 14.2063 12.6261 14.3568 12.967L14.6357 13.5912L14.1089 13.8613C13.5599 14.1402 13.4492 14.2464 13.4492 14.4943C13.4492 14.6449 13.6573 14.8706 13.8255 14.9016C13.9318 14.9193 14.0867 14.8618 14.5782 14.6183L15.198 14.3128L15.4193 14.5032C15.5388 14.6094 15.7735 14.7688 15.9373 14.8529C16.1011 14.9415 16.2383 15.03 16.2383 15.0477C16.2383 15.0699 16.1011 15.3709 15.9329 15.7207C15.592 16.4246 15.3308 17.1506 15.1581 17.8457C15.0342 18.3548 14.9102 19.1915 14.9102 19.5059V19.7095L14.7464 19.683C14.2683 19.5988 14.5472 19.7494 9.92965 17.0754C9.63746 16.9071 9.20803 16.6592 8.97339 16.5264L8.54838 16.2829L8.65021 15.9996C8.86714 15.4063 8.9424 14.8706 8.92026 14.1003C8.90698 13.5779 8.87599 13.3034 8.80958 13.0599C8.51297 11.9487 7.92858 11.0057 7.11841 10.3284C6.9369 10.1734 6.78195 10.0318 6.7731 10.0096C6.76424 9.9875 6.86164 9.79713 6.9856 9.58463C7.19368 9.23489 7.22024 9.20832 7.2955 9.26145C7.33977 9.29244 7.56113 9.44739 7.78691 9.59791ZM6.78195 11.2182C7.28222 11.7052 7.68066 12.3782 7.90202 13.0909C8.0127 13.4495 8.02155 13.5425 8.02155 14.2553C8.02598 14.9415 8.0127 15.0699 7.91973 15.3975C7.86217 15.5967 7.80019 15.7738 7.77806 15.7871C7.74264 15.8092 4.8163 14.1534 4.57723 13.9764C4.49312 13.9144 4.53296 13.8391 5.3874 12.356L6.28611 10.8021L6.41892 10.8951C6.48976 10.9482 6.65356 11.0943 6.78195 11.2182ZM18.4962 15.5126C20.1431 15.8446 20.5371 16.0173 21.2189 16.7079C21.9494 17.4472 22.2681 18.1999 22.277 19.1915L22.2814 19.6785L19.0407 19.6918L15.7956 19.7007V19.5191C15.7956 19.2402 15.9196 18.4434 16.0435 17.9696C16.2029 17.3277 16.3844 16.8363 16.7784 15.9951C17.0972 15.3134 17.1459 15.2337 17.23 15.2514C17.2787 15.2647 17.8498 15.3798 18.4962 15.5126Z" fill="black"/>
<path d="M0.845126 17.6514C0.792001 17.6603 0.694603 17.7311 0.628196 17.8108C0.530799 17.9259 0.517517 17.979 0.535226 18.1251C0.552935 18.2447 0.601633 18.3421 0.676895 18.404C0.787573 18.5014 0.818563 18.5059 1.82353 18.5059H2.85062L2.97458 18.3775C3.11183 18.2358 3.13839 18.0189 3.04542 17.8418C2.94359 17.6514 2.76208 17.6204 1.8191 17.6249C1.33654 17.6293 0.898252 17.6426 0.845126 17.6514Z" fill="black"/>
<path d="M2.82843 19.7625C2.57608 19.9042 2.52738 20.2539 2.73103 20.4576L2.85942 20.5859H4.39564H5.93186L6.06025 20.4576C6.27275 20.2406 6.22848 19.9042 5.96728 19.7669C5.79019 19.6739 2.99666 19.6695 2.82843 19.7625Z" fill="black"/>
<path d="M9.45582 19.7669C9.07951 19.9794 9.23004 20.5859 9.65947 20.5859C9.89854 20.5859 10.1066 20.3867 10.1066 20.1476C10.1066 19.82 9.74359 19.6075 9.45582 19.7669Z" fill="black"/>
<path d="M0.747558 21.8435C0.450939 22.0073 0.459793 22.4766 0.765266 22.6139C0.849382 22.6537 1.95174 22.667 5.23668 22.667H9.59742L9.73909 22.5386C9.85863 22.4324 9.88519 22.3792 9.88519 22.2243C9.88519 22.0693 9.85863 22.0162 9.73909 21.91L9.59742 21.7816H5.2234C1.68169 21.786 0.831673 21.7948 0.747558 21.8435Z" fill="black"/>
</svg>
