<svg width="19" height="23" viewBox="0 0 19 23" fill="none" xmlns="http://www.w3.org/2000/svg">
<path d="M7.92923 0.0712452C7.0545 0.298853 6.36721 1.03077 6.21993 1.88766C6.19316 2.05278 6.14853 2.18667 6.12175 2.18667C6.09943 2.18667 5.97894 2.15543 5.85397 2.11526C5.54603 2.01708 4.97924 2.01708 4.64898 2.11526C4.22501 2.24023 3.95723 2.40089 3.64036 2.71776C3.14944 3.20868 2.97539 3.65497 2.97539 4.43152C2.97539 4.87782 2.97092 4.91798 2.89952 4.88674C2.74331 4.8198 2.12743 4.80641 1.91321 4.86443C1.17683 5.0608 0.614499 5.65883 0.476148 6.38182C0.44937 6.5291 0.431519 8.43923 0.431519 11.599C0.431519 15.6781 0.444907 16.6778 0.494 17.0928C0.690368 18.6459 1.06972 19.7081 1.76593 20.6409C2.49339 21.6227 3.64929 22.3234 5.0328 22.6179C5.76918 22.7741 6.27349 22.8188 7.32674 22.8232C8.13899 22.8232 8.44693 22.8099 8.79951 22.7429C10.3972 22.4484 11.7183 21.7789 12.7581 20.7301C13.2669 20.2169 13.374 20.0652 14.9182 17.6284C16.7346 14.7677 17.2032 14.0759 18.4573 12.4291C18.9661 11.7641 19.0642 11.0902 18.7563 10.4163C18.5912 10.0593 18.185 9.671 17.7834 9.48802C17.0604 9.1533 16.3061 9.189 15.6903 9.57728C15.485 9.7067 14.28 10.8849 13.8515 11.3803L13.6016 11.6704L13.5972 8.16253C13.5972 4.36012 13.6016 4.46723 13.3517 3.97184C13.1152 3.5077 12.593 3.07926 12.0842 2.92752C11.7852 2.83826 11.2273 2.8338 10.9506 2.91859L10.7409 2.98107V2.50354C10.7409 2.22684 10.7141 1.9189 10.6739 1.77162C10.3526 0.539852 9.09852 -0.236698 7.92923 0.0712452ZM8.92893 1.49046C9.05836 1.56632 9.17439 1.68682 9.25472 1.82071L9.37969 2.03047L9.402 6.3238C9.42431 10.5725 9.42431 10.6171 9.51804 10.7376C9.81705 11.1393 10.3392 11.1527 10.6293 10.7644C10.7141 10.6484 10.7186 10.5547 10.7409 7.67607C10.7677 4.38243 10.7498 4.5431 11.0622 4.31995C11.1782 4.23962 11.2675 4.2173 11.4996 4.2173C11.7316 4.2173 11.8209 4.23962 11.9369 4.31995C12.2538 4.54756 12.2315 4.23962 12.2583 8.92569L12.2806 13.1432L12.3788 13.3261C12.5751 13.6921 12.8875 13.8572 13.3338 13.826C13.6686 13.8037 13.8426 13.6653 14.1818 13.1699C14.8869 12.1256 16.2303 10.7287 16.6319 10.6216C17.0068 10.519 17.5335 10.7912 17.5781 11.1081C17.6049 11.2955 17.5201 11.4785 17.2389 11.8221C16.449 12.7995 15.5742 14.0848 13.7132 17.0259C13.1062 17.981 12.5171 18.9048 12.4011 19.0744C11.6245 20.2347 10.2633 21.0827 8.66562 21.4085C8.34875 21.471 8.05866 21.4888 7.30442 21.4844C5.8272 21.4799 5.00155 21.3237 4.09112 20.8774C3.68053 20.6721 3.57342 20.5918 3.19853 20.2214C2.48893 19.5073 2.14528 18.7709 1.87304 17.3829C1.80164 17.017 1.79271 16.5305 1.78379 11.8132C1.76593 6.07834 1.74808 6.43984 2.06049 6.24793C2.3238 6.08727 2.64959 6.15868 2.83704 6.42199C2.92629 6.54695 2.93076 6.60051 2.93076 8.51064C2.93076 10.3404 2.93968 10.4788 3.02002 10.6528C3.10927 10.8581 3.30564 11.0054 3.53772 11.05C3.74301 11.0857 4.05541 10.9385 4.17145 10.7466C4.26517 10.5948 4.26517 10.5547 4.29641 7.33689C4.32765 3.6996 4.31426 3.84242 4.64452 3.59249C5.01494 3.31133 5.49248 3.31133 5.82273 3.59696C6.14406 3.87366 6.13514 3.7487 6.16192 7.33243C6.19316 10.8537 6.17977 10.693 6.46539 10.8983C6.5725 10.9742 6.67515 11.001 6.84474 11.001C7.10806 11.001 7.27318 10.9028 7.416 10.6618C7.50526 10.5145 7.50526 10.4074 7.52757 6.24793C7.55435 1.54401 7.53203 1.87873 7.83105 1.5931C8.12114 1.3164 8.56297 1.27623 8.92893 1.49046Z" fill="black"/>
</svg>
