<svg width="24" height="24" viewBox="0 0 24 24" fill="none" xmlns="http://www.w3.org/2000/svg">
<path d="M9.62813 3.089C8.36719 3.29057 7.28438 3.47338 7.22813 3.48744C7.06407 3.539 6.84844 3.74525 6.75 3.94213C6.6375 4.15307 6.62813 4.52807 6.72188 4.74838C6.80157 4.93119 7.05469 5.17963 7.23282 5.24525C7.45313 5.32963 7.64532 5.31088 9.84844 4.96869C11.0156 4.78588 12 4.64994 12.0328 4.65932C12.0656 4.67338 12.9 5.21713 13.8844 5.86869L15.6797 7.04994L15.9938 7.06869C16.2703 7.08744 16.3359 7.07338 16.5188 6.96557C17.0156 6.67494 17.1281 5.95775 16.7484 5.52182C16.7063 5.47494 15.7547 4.83275 14.6297 4.09213L12.5859 2.74213L12.2578 2.73275C12.0375 2.72807 11.1844 2.84525 9.62813 3.089Z" fill="#151515"/>
<path d="M20.7469 3.30469C20.3297 3.42188 19.9125 3.66563 19.5937 3.98438C18.5859 4.99219 18.5859 6.63281 19.5937 7.64063C20.1094 8.16094 20.6766 8.39062 21.4453 8.39062C22.1859 8.39062 22.7484 8.15625 23.2734 7.62188C23.6156 7.275 23.8594 6.85781 23.9531 6.45938C24.0234 6.14063 24.0094 5.39531 23.925 5.10469C23.6625 4.21875 22.9641 3.52969 22.0922 3.30469C21.7641 3.22031 21.0609 3.22031 20.7469 3.30469Z" fill="#151515"/>
<path d="M15.5625 4.43906C15.5625 4.4625 15.8531 4.66406 16.2094 4.89844C16.9265 5.36719 17.1234 5.59219 17.1844 5.99062C17.3015 6.77812 16.5281 7.47656 15.7687 7.27031C15.6562 7.24219 14.9812 6.82969 14.1844 6.30469C13.4203 5.80312 12.7687 5.39062 12.7406 5.39062C12.6469 5.39062 11.789 5.87812 11.25 6.23906C10.6125 6.66562 9.79217 7.31719 9.45467 7.66406C8.97654 8.15625 8.72342 8.70937 8.72342 9.25781C8.71873 9.99844 8.91092 10.3734 10.1437 12.0703C10.6687 12.7922 11.0859 13.3875 11.0672 13.3922C11.0531 13.3969 9.98904 13.5422 8.70467 13.7109C7.42498 13.875 6.29529 14.0484 6.20154 14.0859C5.92967 14.1984 5.65779 14.4516 5.50779 14.7234C5.39998 14.9297 5.36717 15.0469 5.35311 15.3656C5.33436 15.7266 5.34373 15.7734 5.47967 16.0547C5.56873 16.2281 5.70936 16.425 5.82186 16.5234C6.06092 16.725 6.44529 16.875 6.72654 16.875C6.84373 16.875 8.54529 16.6641 10.514 16.4062C13.9219 15.9562 14.1 15.9281 14.3765 15.7922C14.6906 15.6422 14.8922 15.4312 15.0515 15.0937C15.1875 14.8125 15.1969 14.3156 15.0797 14.0016C15.0281 13.8797 14.4562 13.0406 13.8 12.1359C13.1437 11.2312 12.6094 10.4719 12.6094 10.4484C12.6094 10.3219 14.2125 9.47812 15.6797 8.83125L16.664 8.4L16.6969 8.56875C16.7156 8.66719 16.7297 9.1125 16.7344 9.5625C16.7344 10.0125 16.7531 10.5891 16.7765 10.8375C16.8375 11.6109 16.6359 11.4609 19.6453 12.9609C21.3 13.7859 22.2937 14.2547 22.425 14.2734C22.9828 14.3578 23.4797 13.9219 23.4844 13.3453C23.4844 13.0641 23.4 12.8625 23.1984 12.675C23.1047 12.5859 22.1484 12.0844 20.8312 11.4375L18.6281 10.3547L18.5765 8.2125C18.5156 5.69062 18.525 5.74219 18.0187 5.20312C17.6765 4.84219 17.2453 4.58906 16.7765 4.47656C16.4672 4.40625 15.5625 4.37812 15.5625 4.43906Z" fill="#151515"/>
<path d="M3.89062 6.79688V6.9375H6.28125H8.67188V6.79688V6.65625H6.28125H3.89062V6.79688Z" fill="#151515"/>
<path d="M0 7.5V7.64062H3.39844H6.79688V7.5V7.35938H3.39844H0V7.5Z" fill="#151515"/>
<path d="M2.90625 8.20312V8.34375H5.29688H7.6875V8.20312V8.0625H5.29688H2.90625V8.20312Z" fill="#151515"/>
<path d="M8.63439 10.4158C8.47033 10.9267 7.77658 13.5611 7.80002 13.5799C7.83283 13.6127 10.575 13.2611 10.65 13.2142C10.6828 13.1955 10.4063 12.7736 9.91408 12.0986C9.48283 11.4986 9.02814 10.8424 8.90627 10.6361L8.68127 10.2564L8.63439 10.4158Z" fill="#151515"/>
<path d="M3.79694 17.5312C2.93444 18.1734 2.12819 18.8062 2.00631 18.9375C1.47662 19.5047 1.53287 20.4141 2.13287 20.9437C2.40006 21.1781 2.69069 21.2812 3.08912 21.2812C3.31412 21.2812 3.46412 21.2484 3.63287 21.1687C3.84381 21.0703 9.30944 17.0437 9.53912 16.8187C9.63287 16.725 9.63287 16.725 9.49225 16.7531C9.41725 16.7672 8.76569 16.8562 8.04381 16.95C6.76412 17.1187 6.736 17.1187 6.43131 17.0437C6.08912 16.9594 5.74225 16.7578 5.536 16.5187C5.45631 16.4297 5.386 16.3594 5.38131 16.3594C5.37194 16.3641 4.65944 16.8891 3.79694 17.5312Z" fill="#151515"/>
<path d="M14.8125 17.9531V18.0938H17.2031H19.5938V17.9531V17.8125H17.2031H14.8125V17.9531Z" fill="#151515"/>
<path d="M10.9219 18.6562V18.7969H14.3203H17.7188V18.6562V18.5156H14.3203H10.9219V18.6562Z" fill="#151515"/>
<path d="M13.8281 19.3594V19.5H16.2188H18.6094V19.3594V19.2188H16.2188H13.8281V19.3594Z" fill="#151515"/>
</svg>
