<svg width="19" height="20" viewBox="0 0 19 20" fill="none" xmlns="http://www.w3.org/2000/svg">
<g clip-path="url(#clip0_7794_7061)">
<path d="M4.75 16.4172C4.75 13.4223 8.3125 14.0216 8.3125 12.8238C8.35232 12.3984 8.23704 11.973 7.98792 11.626C7.70381 11.3566 7.48001 11.0301 7.33127 10.6679C7.18253 10.3058 7.11223 9.91622 7.125 9.52492C7.08634 8.85384 7.31414 8.19463 7.75888 7.6906C8.20362 7.18656 8.82933 6.87845 9.5 6.83325C10.1707 6.87845 10.7964 7.18656 11.2411 7.6906C11.6859 8.19463 11.9137 8.85384 11.875 9.52492C11.8892 9.91738 11.8184 10.3083 11.6674 10.6708C11.5164 11.0333 11.2888 11.3589 11.0002 11.6252C10.7611 11.9768 10.6507 12.4002 10.6875 12.8238C10.6875 14.0216 14.25 13.4231 14.25 16.418C14.25 16.418 13.304 17.1257 9.5 17.1257C5.69604 17.1257 4.75 16.4172 4.75 16.4172Z" stroke="#C0D330" stroke-width="1.5" stroke-miterlimit="10"/>
<path d="M4.3431 13.1405C3.89265 13.12 3.49523 13.0891 3.1461 13.0503C2.32664 13.034 1.52158 12.8318 0.791687 12.4589C0.791687 9.46404 4.35419 10.0633 4.35419 8.86554C4.394 8.4402 4.27873 8.0148 4.0296 7.66775C3.74549 7.39837 3.5217 7.07185 3.37296 6.70969C3.22422 6.34754 3.15392 5.95797 3.16669 5.56667C3.12803 4.89559 3.35583 4.23638 3.80057 3.73234C4.2453 3.22831 4.87102 2.9202 5.54169 2.875C6.21236 2.9202 6.83807 3.22831 7.28281 3.73234C7.72754 4.23638 7.95534 4.89559 7.91669 5.56667" stroke="#C0D330" stroke-width="1.5" stroke-miterlimit="10"/>
<path d="M14.6584 13.1408C15.1088 13.1202 15.5062 13.0893 15.8554 13.0505C16.6748 13.0343 17.4799 12.8321 18.2098 12.4592C18.2098 9.46429 14.6473 10.0636 14.6473 8.86579C14.6075 8.44044 14.7228 8.01504 14.9719 7.66799C15.256 7.39862 15.4798 7.07209 15.6285 6.70994C15.7773 6.34778 15.8476 5.95821 15.8348 5.56691C15.8734 4.89583 15.6456 4.23662 15.2009 3.73259C14.7562 3.22856 14.1305 2.92045 13.4598 2.87524C12.7891 2.92045 12.1634 3.22856 11.7187 3.73259C11.2739 4.23662 11.0461 4.89583 11.0848 5.56691" stroke="#C0D330" stroke-width="1.5" stroke-miterlimit="10"/>
</g>
<defs>
<clipPath id="clip0_7794_7061">
<rect width="19" height="19" fill="white" transform="translate(0 0.5)"/>
</clipPath>
</defs>
</svg>
