<svg width="18" height="24" viewBox="0 0 18 24" fill="none" xmlns="http://www.w3.org/2000/svg">
<path d="M8.49535 0.266909C7.87054 0.445425 7.41533 0.905107 7.18325 1.5924C7.16094 1.66381 7.08061 1.67273 6.32637 1.67273C5.57214 1.67273 5.47842 1.68166 5.33114 1.76645C5.15708 1.86464 4.96964 2.10117 4.96964 2.22167C4.96964 2.29308 4.82683 2.29754 3.10414 2.29754C1.07797 2.29754 0.975323 2.30647 0.667381 2.543C0.582585 2.60995 0.457623 2.76615 0.395142 2.89557L0.283569 3.12318L0.292495 12.7229L0.305884 22.3227L0.439772 22.5414C0.524567 22.6753 0.658455 22.8091 0.792343 22.8939L1.01103 23.0278H8.98628H16.9615L17.1802 22.8939C17.3141 22.8091 17.448 22.6753 17.5328 22.5414L17.6667 22.3227L17.6801 12.7229L17.689 3.12318L17.5729 2.89111C17.448 2.6278 17.2025 2.42697 16.908 2.34663C16.8098 2.31985 16.4304 2.29754 16.0689 2.29754H15.404L15.2701 2.43143C15.163 2.543 15.1407 2.59209 15.1674 2.69028C15.2254 2.93128 15.2701 2.94466 16.06 2.96698C16.7562 2.98929 16.7964 2.99376 16.9035 3.0964L17.0195 3.20351V12.6694C17.0151 20.0421 17.0062 22.1531 16.9615 22.2067C16.9303 22.2468 16.8633 22.3004 16.8098 22.3272C16.6714 22.403 1.30112 22.403 1.16277 22.3272C1.10921 22.3004 1.04227 22.2468 1.01103 22.2067C0.966397 22.1531 0.957471 20.0377 0.953008 12.6649V3.19905L1.09136 3.08302L1.22971 2.96698H3.07736H4.92501V3.17674C4.92948 3.59179 5.08121 3.8551 5.39362 3.99792C5.56321 4.07825 5.76851 4.08271 8.98628 4.08271C12.204 4.08271 12.4093 4.07825 12.5789 3.99792C12.8913 3.8551 13.0431 3.59179 13.0475 3.17674V2.96698H13.5429C13.8152 2.96698 14.074 2.94466 14.1231 2.91789C14.3373 2.80631 14.3195 2.44928 14.0919 2.34663C14.0294 2.31985 13.7616 2.29754 13.4938 2.29754H13.0118L12.9806 2.17258C12.9494 2.0253 12.8467 1.89588 12.6682 1.77984C12.5566 1.70397 12.4272 1.69058 11.673 1.67273L10.8116 1.65042L10.7045 1.39157C10.4947 0.873867 10.1377 0.512369 9.64679 0.324926C9.33438 0.204428 8.81222 0.17765 8.49535 0.266909ZM9.50844 0.994366C9.7539 1.11933 10.0351 1.45405 10.1243 1.71736C10.2136 1.98067 10.3296 2.14134 10.5171 2.24398C10.6331 2.30647 10.8161 2.32432 11.5078 2.34217L12.3558 2.36448V2.87772V3.39096H8.98628H5.61677V2.87772V2.36448L6.46472 2.34217C7.54921 2.31539 7.62955 2.27522 7.84823 1.7129C8.00443 1.3157 8.29452 1.03453 8.67387 0.909571C8.86131 0.84709 9.30761 0.896181 9.50844 0.994366Z" fill="black"/>
<path d="M2.78289 4.64947C2.52404 4.74319 2.39908 4.83691 2.28751 5.01542L2.15808 5.21626V10.8752C2.15808 16.4762 2.15808 16.5342 2.24734 16.6235C2.35891 16.7351 2.56421 16.7395 2.6981 16.628L2.80521 16.5432L2.81859 14.9767L2.83198 13.4102H4.49665H6.16579L6.19257 13.5753C6.32645 14.3385 6.80845 15.0525 7.47789 15.481C8.27229 15.9853 9.37017 16.0478 10.2092 15.6372C11.0438 15.2221 11.6239 14.4634 11.7801 13.5753L11.8069 13.4102H13.4761H15.1452V17.11C15.1452 20.4438 15.1363 20.8097 15.0738 20.8365C15.0336 20.8499 14.4624 20.8633 13.8019 20.8633H12.6013V20.3277C12.6013 19.337 12.396 19.1272 11.4365 19.1227H10.9143L10.8876 18.9755C10.7938 18.489 10.3609 17.9624 9.84324 17.708C9.50852 17.5429 9.49513 17.5384 8.99082 17.5384C8.4999 17.5384 8.45527 17.5473 8.16964 17.6812C7.64302 17.9311 7.17887 18.4845 7.08515 18.971L7.05837 19.1227H6.53621C5.57668 19.1272 5.37139 19.337 5.37139 20.3277V20.8633H4.15747C3.48803 20.8633 2.91678 20.8454 2.88554 20.8276C2.84537 20.8008 2.82752 20.4036 2.81859 19.2834L2.80521 17.7749L2.6981 17.6901C2.56421 17.5786 2.35891 17.583 2.24734 17.6946C2.16254 17.7794 2.15808 17.8419 2.15808 19.3459C2.15808 20.7963 2.16254 20.9258 2.24288 21.0775C2.34552 21.2828 2.44817 21.3765 2.66239 21.4658C2.80521 21.5238 3.54159 21.5327 8.98636 21.5327C14.4311 21.5327 15.1675 21.5238 15.3103 21.4658C15.5245 21.3765 15.6272 21.2828 15.7298 21.0775C15.8102 20.9168 15.8146 20.6758 15.8146 13.0621V5.21626L15.6852 5.01542C15.6093 4.89493 15.4888 4.77889 15.3862 4.72533C15.2166 4.645 15.0381 4.64054 9.03099 4.63161C5.63024 4.62715 2.81859 4.63608 2.78289 4.64947ZM5.37139 5.80983C5.37139 6.4391 5.41155 6.60869 5.60346 6.79167C5.81768 6.99696 5.94264 7.0282 6.53621 7.0282C7.06284 7.0282 7.0673 7.0282 7.0673 7.13531C7.0673 7.34061 7.37078 7.85385 7.64748 8.11716C8.24998 8.69288 9.08901 8.8223 9.86109 8.45634C10.3208 8.23319 10.7983 7.64855 10.8831 7.19333L10.9143 7.0282H11.4588C12.0792 7.0282 12.2175 6.98358 12.4407 6.70241C12.579 6.52836 12.579 6.52389 12.5924 5.90801L12.6103 5.28766H13.8242C14.7078 5.28766 15.0515 5.30105 15.0916 5.34122C15.1318 5.38139 15.1452 6.26951 15.1452 9.06776V12.7408H13.485H11.8203L11.7444 12.415C11.6418 12.0044 11.4365 11.5804 11.2223 11.3572C11.0304 11.1564 10.9277 11.1386 10.7537 11.2724C10.5885 11.4019 10.6019 11.5715 10.8162 11.9285C10.9724 12.1829 11.1286 12.5756 11.1286 12.705C11.1286 12.7229 10.1646 12.7408 8.98189 12.7408H6.83523L6.86647 12.5935C6.87986 12.5176 6.96465 12.3078 7.04945 12.1338C7.31722 11.567 7.84831 11.143 8.47312 10.9779C8.78999 10.8976 9.08008 10.8931 9.45943 10.9645C9.70043 11.0091 9.75398 11.0047 9.8477 10.9422C10.0976 10.7815 10.0262 10.4379 9.72274 10.3397C9.45497 10.2504 8.86586 10.2237 8.52221 10.2817C7.39756 10.478 6.48712 11.3305 6.22827 12.4283L6.15686 12.7408H4.49219H2.82752V9.06776C2.82752 6.26951 2.84091 5.38139 2.88108 5.34122C2.92124 5.30105 3.26489 5.28766 4.15301 5.28766H5.37139V5.80983ZM11.923 5.80983L11.9096 6.33645H8.98636H6.06314L6.04975 5.80983L6.03636 5.28766H8.98636H11.9364L11.923 5.80983ZM10.2137 7.12639C10.1199 7.42541 9.82985 7.73335 9.49959 7.88062C8.83908 8.17518 7.96435 7.79583 7.75905 7.12639L7.73228 7.0282H8.98636H10.2404L10.2137 7.12639ZM11.1062 13.553C11.0081 14.0662 10.5127 14.7223 10.0307 14.9811C9.39695 15.3248 8.57577 15.3248 7.94203 14.9811C7.46004 14.7223 6.96465 14.0662 6.86647 13.553L6.83523 13.4102H8.98636H11.1375L11.1062 13.553ZM9.43711 18.2525C9.70935 18.3462 9.94589 18.547 10.1021 18.8282C10.178 18.9531 10.236 19.0692 10.236 19.087C10.236 19.1093 9.67365 19.1227 8.98636 19.1227C8.29907 19.1227 7.73674 19.1138 7.73674 19.1004C7.73674 19.087 7.78583 18.9755 7.84831 18.8594C7.97774 18.6006 8.2589 18.3462 8.51329 18.2569C8.75875 18.1721 9.19165 18.1677 9.43711 18.2525ZM11.923 20.3367L11.9364 20.8633H8.98636H6.04083V20.359C6.04083 20.0778 6.05422 19.8368 6.07207 19.8234C6.08546 19.8056 7.40648 19.7966 9.00421 19.8011L11.9096 19.8145L11.923 20.3367Z" fill="black"/>
</svg>
