<svg width="24" height="23" viewBox="0 0 24 23" fill="none" xmlns="http://www.w3.org/2000/svg">
<g clip-path="url(#clip0_970_13617)">
<path d="M11.178 0.0268669C10.7317 0.0848846 10.1336 0.191995 10.089 0.223235C10.0087 0.272327 10.1604 0.848044 10.2541 0.848044C10.2898 0.848044 10.4862 0.821267 10.6826 0.785563C10.8834 0.749861 11.1378 0.709694 11.2583 0.696305L11.468 0.669528V3.682V6.69448H10.3345H9.20534L9.1741 6.37315C9.0536 5.06105 8.51359 3.72217 7.67902 2.65999L7.47372 2.39668L7.69687 2.20031C8.1387 1.81204 8.95542 1.31219 9.46865 1.12028L9.58915 1.07565L9.47758 0.772175C9.4151 0.607047 9.35708 0.45977 9.34815 0.450845C9.31245 0.415141 8.2592 0.955155 7.90663 1.19169C6.37138 2.22263 5.29135 3.83821 4.93432 5.62784C4.80043 6.3062 4.75134 6.91762 4.79597 7.47549L4.82721 7.89501L4.94325 7.87715C5.01019 7.86823 5.15747 7.84591 5.27796 7.83252L5.48772 7.80575V7.5826V7.36392H7.00958H8.5359L8.50466 7.68525C8.46449 8.10923 8.33061 8.70726 8.19226 9.10446C8.09407 9.39455 8.08961 9.42579 8.15655 9.4481C8.19672 9.46596 8.33507 9.51951 8.46449 9.57753L8.69657 9.68018L8.79475 9.42579C8.95095 9.00627 9.09823 8.36808 9.15625 7.85038L9.2098 7.36392H10.3389H11.468L11.477 8.35469L11.4904 9.34992H11.8251H12.1598L12.1732 8.35469L12.1821 7.36392H13.3112H14.4404L14.4894 7.81467C14.5162 8.06013 14.5475 8.27435 14.5609 8.28328C14.5698 8.29667 14.726 8.27882 14.9045 8.25204C15.2214 8.19848 15.2258 8.19848 15.1991 8.07352C15.1857 8.00212 15.1633 7.81467 15.1455 7.65401L15.1143 7.36392H16.645H18.1758L18.149 7.73434C18.1357 7.93963 18.1178 8.13154 18.1089 8.16724C18.1 8.20741 18.1803 8.24311 18.3633 8.28328C18.7114 8.35915 18.7292 8.35915 18.7605 8.27882C18.7739 8.23865 18.8096 7.93963 18.8363 7.60938C18.8944 6.96225 18.8542 6.26604 18.7203 5.61445C18.6489 5.27973 18.4124 4.48533 18.3454 4.38268C18.3186 4.33805 18.2472 4.35144 18.0241 4.44516C17.8679 4.51211 17.734 4.57459 17.7251 4.57905C17.7161 4.58351 17.7697 4.75757 17.8411 4.9584C18.0018 5.40916 18.1044 5.88223 18.1535 6.34637L18.1892 6.69448H16.654H15.1143L15.1455 6.391C15.2169 5.69032 15.4356 4.92716 15.7525 4.26218C15.9488 3.85159 16.3951 3.15984 16.5692 2.99918L16.6807 2.89653L16.9351 3.24464C17.0735 3.43654 17.2386 3.67754 17.3011 3.78019C17.3636 3.8873 17.435 3.97209 17.4618 3.97209C17.493 3.97209 17.6313 3.90515 17.7697 3.82482L18.0285 3.67754L17.7563 3.25803C17.3011 2.55288 16.8503 2.04857 16.2434 1.56658C14.9848 0.562418 13.5924 0.0581074 12.0036 0.0224037C11.6242 0.0134773 11.2538 0.0134773 11.178 0.0268669ZM13.0792 0.807878C14.1279 1.01317 15.2481 1.55319 15.9533 2.19585L16.1764 2.40114L15.9711 2.65999C15.1321 3.72663 14.5966 5.05658 14.4761 6.37315L14.4448 6.69448H13.3157H12.1821V3.682V0.673991L12.4186 0.696305C12.5436 0.714157 12.8426 0.763249 13.0792 0.807878ZM7.44695 3.48117C8.02713 4.35144 8.40201 5.37791 8.50466 6.391L8.5359 6.69448H7.00958H5.48772V6.49365C5.48772 6.21695 5.635 5.48503 5.77781 5.06551C6.00542 4.37822 6.29998 3.81589 6.75519 3.20001L6.97834 2.90099L7.08545 2.99918C7.14347 3.05719 7.30413 3.27141 7.44695 3.48117Z" fill="black"/>
<path d="M12.9452 1.78544C12.914 1.95949 12.8961 2.10677 12.9006 2.1157C12.9898 2.16925 13.5834 2.32099 13.6057 2.28975C13.6459 2.24512 13.8333 1.7899 13.8333 1.73635C13.8333 1.70064 13.3826 1.54444 13.1371 1.49535L12.9988 1.46857L12.9452 1.78544Z" fill="black"/>
<path d="M14.4448 2.11094C14.351 2.25375 14.1815 2.5974 14.1993 2.60633C14.302 2.6822 14.6902 2.90088 14.717 2.90088C14.7349 2.89642 14.8286 2.78484 14.9223 2.64649L15.0964 2.39657L14.9803 2.30285C14.9134 2.24929 14.7839 2.1645 14.6858 2.11094L14.5117 2.01276L14.4448 2.11094Z" fill="black"/>
<path d="M2.27447 7.92634C1.73445 8.07362 1.32386 8.45743 1.00253 9.1224C0.890959 9.35001 0.8017 9.55531 0.8017 9.58208C0.8017 9.63564 1.37295 9.8454 1.40866 9.80523C1.41758 9.7963 1.50684 9.62671 1.60056 9.43034C1.8014 9.01529 1.9933 8.77876 2.24769 8.64487C2.40835 8.56007 2.49761 8.54669 2.96622 8.55115C3.52855 8.55561 3.93021 8.63148 4.52824 8.85909C4.90759 9.0019 5.62166 9.33216 5.62166 9.36786C5.62166 9.38125 5.38513 9.47051 5.09504 9.56423C3.77847 9.99267 2.49761 10.7424 1.38634 11.7288L1.05609 12.0233L1.08733 11.6261C1.11857 11.2334 1.18551 10.738 1.23014 10.5505C1.25246 10.4657 1.22568 10.4479 0.931125 10.3809C0.752608 10.3408 0.600869 10.314 0.596406 10.3229C0.58748 10.3319 0.547313 10.5372 0.507147 10.7781C0.408963 11.3405 0.395574 12.9471 0.48037 13.5675C0.819552 15.9775 1.77908 18.017 3.40359 19.7933L3.64905 20.061L3.87666 19.8379C4.00162 19.7174 4.10427 19.6014 4.10427 19.579C4.10427 19.5612 3.9793 19.4094 3.8231 19.2443C2.76539 18.1152 1.98438 16.7362 1.51131 15.1741C1.3551 14.6654 1.17659 13.7638 1.13196 13.2952L1.10518 12.9561L1.50238 12.5589C2.80109 11.2601 4.43006 10.3542 6.23754 9.93019L6.47408 9.87217L6.95161 10.2381C7.50055 10.6576 8.29049 11.4253 8.70108 11.9385C8.85282 12.1349 8.99117 12.2911 9.0001 12.2911C9.09382 12.2598 9.49994 11.9251 9.49102 11.885C9.4687 11.7734 8.70554 10.9076 8.25925 10.4791C6.87574 9.16703 5.14859 8.2075 3.66244 7.92634C3.20722 7.83708 2.60026 7.83708 2.27447 7.92634Z" fill="black"/>
<path d="M15.5695 8.79223C13.1328 9.02431 11.0039 10.4881 9.90159 12.6839C9.68291 13.1213 9.68291 13.1213 9.7811 13.1614C9.83911 13.1838 9.97746 13.2418 10.0935 13.2909L10.2988 13.3846L10.5086 12.9606L10.7183 12.5366L11.0843 12.55L11.4458 12.5634L11.7448 13.4783C11.9144 13.9826 12.0438 14.4155 12.0393 14.4468C12.0304 14.4869 10.7496 15.4375 10.4952 15.5937C10.4595 15.616 10.33 15.5491 10.1471 15.4197L9.85697 15.2099L9.88821 15.0046C9.90159 14.8886 9.95515 14.6164 9.99978 14.3932C10.0444 14.1745 10.0846 13.9915 10.0846 13.9871C10.0846 13.9782 9.973 13.9424 9.83911 13.9067C9.70523 13.8666 9.56688 13.8219 9.53117 13.8086C9.48208 13.7907 9.44638 13.8443 9.39728 14.0228C9.08488 15.1073 9.10273 16.58 9.44638 17.7627C10.1024 20.0477 11.9545 21.9043 14.2262 22.5648C14.6278 22.6809 15.2259 22.7924 15.574 22.8147L15.7748 22.8281L15.7882 22.5068C15.8016 22.1364 15.8596 22.181 15.2393 22.0962C15.0429 22.065 14.784 22.0203 14.6635 21.9891L14.4449 21.9311L14.7394 21.7213C14.9045 21.6008 15.0384 21.4937 15.0384 21.4759C15.0384 21.458 14.8688 20.9135 14.6591 20.262C14.4493 19.6148 14.2842 19.0614 14.2976 19.0302C14.3065 19.0034 14.4627 18.7758 14.6457 18.5259L14.9715 18.0751H16.2077H17.4395L17.7787 18.5393C17.9661 18.7936 18.1178 19.0391 18.1178 19.0793C18.1178 19.1194 17.9527 19.6595 17.7519 20.2753C17.5555 20.8957 17.3904 21.4223 17.3859 21.4491C17.3815 21.4759 17.5109 21.5964 17.6715 21.7124C17.9438 21.9177 17.9527 21.9266 17.8501 21.9668C17.734 22.0114 17.1181 22.1141 16.7254 22.1587L16.4666 22.1855V22.5247V22.8594L16.77 22.8281C19.6308 22.5559 21.9827 20.7172 22.8753 18.0439C23.5582 16.0043 23.2725 13.7461 22.1032 11.9609C21.8221 11.5325 21.2464 10.8496 21.0143 10.6622L20.8358 10.5194L20.6215 10.7604L20.4029 11.0014L20.8135 11.4254L21.2196 11.8493L20.8536 11.8627L20.4832 11.8761L20.0905 13.09L19.6933 14.3039L18.9613 14.5583C18.5597 14.6967 18.1848 14.8083 18.1268 14.8038C18.0732 14.7993 17.6983 14.5539 17.2922 14.2593L16.5558 13.7238V12.8758V12.0279L17.5421 11.3138C18.0821 10.921 18.5463 10.5774 18.5686 10.5506C18.5909 10.5194 18.5686 10.381 18.4972 10.1757C18.4347 9.99276 18.3856 9.84102 18.3856 9.8321C18.3856 9.76961 19.3318 10.2293 19.6665 10.4569L19.903 10.6176L20.0815 10.3632C20.1797 10.2248 20.2556 10.0909 20.2467 10.0686C20.2377 10.0419 20.028 9.89458 19.7736 9.74284C19.2961 9.45275 18.6489 9.17604 18.0732 9.01538C17.3502 8.81455 16.3059 8.72083 15.5695 8.79223ZM17.1583 9.51076C17.3324 9.53754 17.502 9.56432 17.5421 9.57771C17.6269 9.60002 17.8411 10.2471 17.7787 10.3052C17.7563 10.3275 17.3993 10.5908 16.9887 10.8898C16.5335 11.2201 16.2166 11.4254 16.1765 11.4075C16.1274 11.3897 14.726 10.39 14.5966 10.2829C14.5654 10.2561 14.784 9.65804 14.8465 9.60895C14.909 9.55986 15.4445 9.47506 15.8641 9.44828C16.1765 9.42597 16.7879 9.45721 17.1583 9.51076ZM13.9048 10.207L13.7977 10.5283L14.8287 11.2825L15.8641 12.0368V12.8758V13.7193L15.1143 14.2682C14.7037 14.5717 14.3422 14.8172 14.311 14.8172C14.2797 14.8172 13.9138 14.7056 13.4943 14.5717L12.7356 14.3263L12.3339 13.1123L11.9322 11.894L11.5618 11.8717L11.1914 11.8493L11.535 11.4834C11.9456 11.0371 12.4455 10.631 12.9364 10.3409C13.347 10.0954 13.9852 9.80532 14.003 9.85441C14.0075 9.87226 13.9629 10.0329 13.9048 10.207ZM21.8846 12.9294C22.1389 13.4426 22.3353 14.0049 22.4469 14.5494C22.5808 15.2099 22.5808 15.2099 22.246 15.4375L21.9604 15.6294L21.166 15.0582C20.7287 14.7458 20.3627 14.4825 20.3538 14.478C20.3493 14.4691 20.4832 14.0317 20.6617 13.5051L20.983 12.5411H21.3356H21.6882L21.8846 12.9294ZM16.9932 14.8707C17.4038 15.1698 17.7563 15.4286 17.7787 15.4465C17.8054 15.4688 17.6983 15.8749 17.5153 16.4462L17.2074 17.4057L16.2032 17.3968L15.2036 17.3834L14.8956 16.4283C14.6501 15.6741 14.5966 15.4643 14.6457 15.4375C14.6769 15.4197 15.034 15.1608 15.4401 14.8663C15.8417 14.5673 16.1899 14.3263 16.2122 14.3263C16.23 14.3263 16.5826 14.5717 16.9932 14.8707ZM13.2979 15.2144L13.8602 15.3974L14.1905 16.4328C14.3734 17.004 14.5252 17.4949 14.5207 17.5173C14.5163 17.544 14.3377 17.8118 14.1191 18.1108L13.7263 18.6553H12.4455H11.1646L11.0664 18.9543C11.0084 19.1239 10.9504 19.2756 10.9325 19.2935C10.8834 19.3471 10.5621 18.7936 10.3524 18.3072C10.0712 17.6556 9.83465 16.6336 9.87035 16.2275L9.88374 16.0579L10.1649 16.2632L10.4461 16.4729L11.4815 15.7187C12.3874 15.0582 12.5303 14.9689 12.6284 15.0002C12.6909 15.0225 12.9899 15.1162 13.2979 15.2144ZM21.2151 15.9195C21.6837 16.2587 21.9872 16.4551 22.0184 16.4283C22.0452 16.4104 22.1836 16.3078 22.3264 16.2052L22.5852 16.0132L22.5585 16.3435C22.4692 17.3387 22.1657 18.2715 21.6525 19.1194L21.4918 19.3872L21.3758 19.0302L21.2553 18.6776L19.9655 18.6642L18.6757 18.6508L18.2964 18.1197C18.0866 17.8297 17.9125 17.5619 17.9036 17.5262C17.8902 17.4548 18.5061 15.4911 18.5641 15.4286C18.582 15.4063 18.8855 15.2947 19.238 15.1787L19.8807 14.9645L20.1708 15.1698C20.3315 15.2813 20.8001 15.6205 21.2151 15.9195ZM13.9272 20.1816C14.0789 20.6547 14.2172 21.0876 14.2351 21.1367C14.2663 21.217 14.2306 21.2616 13.9762 21.4446L13.6772 21.6588L13.2309 21.4268C12.6998 21.1501 12.1375 20.7395 11.7225 20.32L11.4235 20.012L11.5395 19.6684L11.6555 19.3247H12.6508H13.6505L13.9272 20.1816ZM20.8804 19.6996L20.9964 20.0522L20.5948 20.4271C20.1663 20.8332 19.5326 21.2795 19.0461 21.516L18.7516 21.6633L18.4972 21.4893C18.3633 21.3955 18.2294 21.2929 18.2026 21.2616C18.1714 21.2215 18.2473 20.9269 18.4615 20.2664L18.765 19.3247L19.7647 19.3337L20.7688 19.3471L20.8804 19.6996Z" fill="black"/>
<path d="M4.72908 13.0095C4.59519 13.0943 4.46577 13.1701 4.44792 13.1746C4.4256 13.1835 4.50147 13.3442 4.61304 13.5316L4.81388 13.8753L4.52379 14.036C4.36758 14.1252 4.23816 14.2055 4.23816 14.2145C4.23816 14.2457 4.55503 14.7723 4.57288 14.7723C4.5818 14.7723 4.71569 14.7009 4.86297 14.6117C5.01471 14.5224 5.14413 14.4599 5.1486 14.4689C5.20215 14.5269 5.58596 15.2276 5.57257 15.2365C5.56365 15.2409 5.43869 15.3124 5.30034 15.3927C5.15752 15.473 5.04149 15.5578 5.04149 15.5846C5.04149 15.6515 5.32711 16.1112 5.36728 16.1112C5.38959 16.1112 5.52348 16.0443 5.6663 15.9595L5.92961 15.8033L6.14829 16.1915L6.36697 16.5798L6.09474 16.7405C5.94746 16.8297 5.82696 16.9235 5.83589 16.9547C5.84035 16.9815 5.90729 17.1154 5.98316 17.2537L6.12151 17.4947L6.4116 17.3341C6.64814 17.2046 6.71062 17.1823 6.74186 17.2314C6.76418 17.2671 6.84897 17.4099 6.92484 17.5483C7.00517 17.6911 7.08997 17.8071 7.11228 17.8071C7.14352 17.8071 7.59874 17.5661 7.66569 17.5126C7.67461 17.5081 7.59874 17.3608 7.50056 17.1912C7.39791 17.0172 7.31758 16.861 7.31758 16.8387C7.31758 16.8208 7.43808 16.736 7.58535 16.6557C7.73263 16.5754 7.85313 16.4995 7.85313 16.4861C7.85313 16.4459 7.57643 15.9773 7.53626 15.9506C7.51395 15.9372 7.3756 15.9996 7.23278 16.0844C7.03641 16.196 6.95608 16.2228 6.92484 16.1871C6.84451 16.0844 6.50533 15.4775 6.52318 15.4641C6.52764 15.4596 6.6526 15.3882 6.79542 15.3079C6.93377 15.232 7.0498 15.1428 7.0498 15.1204C7.0498 15.0401 6.77756 14.5938 6.72847 14.5938C6.70169 14.5938 6.57227 14.6563 6.44284 14.7322C6.30896 14.808 6.18399 14.8571 6.16168 14.8437C6.13937 14.8304 6.03226 14.6608 5.92515 14.4644L5.72431 14.1163L6.00548 13.9512C6.16168 13.8619 6.29111 13.7816 6.29111 13.7682C6.29111 13.7369 5.97424 13.2103 5.95639 13.2103C5.94746 13.2103 5.81803 13.2817 5.6663 13.371C5.51902 13.4602 5.38959 13.5272 5.38067 13.5183C5.37174 13.5093 5.28248 13.3531 5.17984 13.1746C5.07719 13.0006 4.98793 12.8533 4.98347 12.8577C4.979 12.8577 4.86297 12.9292 4.72908 13.0095Z" fill="black"/>
<path d="M3.31429 16.9234C3.18487 16.9948 3.07776 17.0751 3.07776 17.1019C3.07776 17.2179 3.90786 18.3872 3.9882 18.3872C4.01497 18.3827 4.13547 18.2935 4.26043 18.1864L4.48358 17.99L4.3363 17.7981C4.25597 17.691 4.06853 17.4188 3.91679 17.1911C3.76505 16.968 3.61777 16.7806 3.59546 16.785C3.56868 16.785 3.43926 16.8475 3.31429 16.9234Z" fill="black"/>
<path d="M4.68443 18.6999L4.43896 18.9186L4.68443 19.1685L4.92989 19.4185L5.14411 19.1908C5.26014 19.0659 5.35386 18.9454 5.35386 18.9275C5.35386 18.9097 5.26014 18.8026 5.14411 18.691L4.92989 18.4857L4.68443 18.6999Z" fill="black"/>
<path d="M8.61173 19.664C7.86196 20.1237 6.65251 20.6057 5.89827 20.753C5.5814 20.8155 5.59479 20.8244 4.95213 20.3067C4.76915 20.1594 4.60849 20.0434 4.5951 20.0523C4.58171 20.0568 4.4746 20.1639 4.35856 20.2888L4.1488 20.5164L4.48799 20.7976C5.02354 21.2439 5.9072 21.8107 6.53647 22.1186C8.06725 22.8639 9.482 23.0514 10.2452 22.6051C10.4638 22.4757 10.8253 22.0919 10.9682 21.833L11.0708 21.6456L10.7718 21.5028C10.4862 21.3599 10.4728 21.3599 10.4237 21.4403C10.2541 21.7214 10.0131 21.9758 9.83011 22.0562C9.22315 22.3239 7.99585 22.1008 6.80871 21.5028L6.45167 21.3242L6.98723 21.1457C7.56294 20.9583 8.7724 20.3826 9.22761 20.088L9.51324 19.9006L9.43291 19.7801C9.39274 19.7131 9.31241 19.5926 9.26332 19.5168C9.20976 19.4364 9.15174 19.3739 9.12497 19.3739C9.10265 19.3784 8.87058 19.5078 8.61173 19.664Z" fill="black"/>
</g>
<defs>
<clipPath id="clip0_970_13617">
<rect width="22.8502" height="22.8502" fill="white" transform="translate(0.400024)"/>
</clipPath>
</defs>
</svg>
