<svg width="25" height="24" viewBox="0 0 25 24" fill="none" xmlns="http://www.w3.org/2000/svg">
<path d="M8.79998 10.18C8.67107 10.187 8.54272 10.1583 8.42913 10.0969C8.31554 10.0355 8.22114 9.94397 8.15635 9.8323C8.09156 9.72063 8.05892 9.59322 8.06203 9.46416C8.06514 9.33509 8.10389 9.2094 8.17398 9.10098L11.9 3.17998C11.9585 3.07455 12.0433 2.98603 12.1461 2.92301C12.249 2.85999 12.3663 2.8246 12.4868 2.82027C12.6074 2.81595 12.727 2.84283 12.834 2.89832C12.9411 2.95381 13.032 3.03602 13.098 3.13698L16.8 9.07998C16.8729 9.18477 16.9159 9.30753 16.9241 9.43496C16.9323 9.56239 16.9055 9.68964 16.8466 9.80293C16.7877 9.91623 16.6989 10.0112 16.5898 10.0777C16.4808 10.1442 16.3557 10.1795 16.228 10.18H8.79998Z" stroke="#C0D330" stroke-width="1.5" stroke-linecap="round" stroke-linejoin="round"/>
<path d="M9.5 14.1799H4.5C3.94772 14.1799 3.5 14.6276 3.5 15.1799V20.1799C3.5 20.7322 3.94772 21.1799 4.5 21.1799H9.5C10.0523 21.1799 10.5 20.7322 10.5 20.1799V15.1799C10.5 14.6276 10.0523 14.1799 9.5 14.1799Z" stroke="#C0D330" stroke-width="1.5" stroke-linecap="round" stroke-linejoin="round"/>
<path d="M18 21.1799C19.933 21.1799 21.5 19.6129 21.5 17.6799C21.5 15.7469 19.933 14.1799 18 14.1799C16.067 14.1799 14.5 15.7469 14.5 17.6799C14.5 19.6129 16.067 21.1799 18 21.1799Z" stroke="#C0D330" stroke-width="1.5" stroke-linecap="round" stroke-linejoin="round"/>
</svg>
