<svg width="23" height="24" viewBox="0 0 23 24" fill="none" xmlns="http://www.w3.org/2000/svg">
<g clip-path="url(#clip0_1536_12028)">
<path d="M9.22408 3.089C8.04813 3.29057 7.0383 3.47338 6.98584 3.48744C6.83284 3.539 6.63175 3.74525 6.53994 3.94213C6.43503 4.15307 6.42628 4.52807 6.51371 4.74838C6.58803 4.93119 6.82409 5.17963 6.99021 5.24525C7.19568 5.32963 7.37491 5.31088 9.42954 4.96869C10.5181 4.78588 11.4361 4.64994 11.4667 4.65932C11.4973 4.67338 12.2754 5.21713 13.1935 5.86869L14.8678 7.04994L15.1607 7.06869C15.4186 7.08744 15.4798 7.07338 15.6503 6.96557C16.1137 6.67494 16.2186 5.95775 15.8645 5.52182C15.8251 5.47494 14.9377 4.83275 13.8885 4.09213L11.9825 2.74213L11.6765 2.73275C11.4711 2.72807 10.6754 2.84525 9.22408 3.089Z" fill="#151515"/>
<path d="M19.5934 3.30469C19.2044 3.42188 18.8153 3.66563 18.518 3.98438C17.5781 4.99219 17.5781 6.63281 18.518 7.64063C18.9989 8.16094 19.5279 8.39062 20.2448 8.39062C20.9355 8.39062 21.4601 8.15625 21.9497 7.62188C22.2688 7.275 22.4961 6.85781 22.5836 6.45938C22.6491 6.14063 22.636 5.39531 22.5573 5.10469C22.3125 4.21875 21.6612 3.52969 20.8481 3.30469C20.5421 3.22031 19.8863 3.22031 19.5934 3.30469Z" fill="#151515"/>
<path d="M14.7584 4.43906C14.7584 4.4625 15.0294 4.66406 15.3617 4.89844C16.0305 5.36719 16.2141 5.59219 16.271 5.99062C16.3802 6.77812 15.6589 7.47656 14.9507 7.27031C14.8458 7.24219 14.2163 6.82969 13.4732 6.30469C12.7606 5.80312 12.1529 5.39062 12.1267 5.39062C12.0393 5.39062 11.2393 5.87812 10.7366 6.23906C10.142 6.66562 9.37701 7.31719 9.06225 7.66406C8.61635 8.15625 8.38029 8.70937 8.38029 9.25781C8.37592 9.99844 8.55515 10.3734 9.70487 12.0703C10.1945 12.7922 10.5836 13.3875 10.5661 13.3922C10.553 13.3969 9.56061 13.5422 8.3628 13.7109C7.16937 13.875 6.11582 14.0484 6.02839 14.0859C5.77484 14.1984 5.52129 14.4516 5.3814 14.7234C5.28085 14.9297 5.25025 15.0469 5.23714 15.3656C5.21965 15.7266 5.22839 15.7734 5.35517 16.0547C5.43823 16.2281 5.56938 16.425 5.67429 16.5234C5.89724 16.725 6.25571 16.875 6.518 16.875C6.62729 16.875 8.21417 16.6641 10.0502 16.4062C13.2284 15.9562 13.3945 15.9281 13.6524 15.7922C13.9453 15.6422 14.1333 15.4312 14.2819 15.0937C14.4087 14.8125 14.4174 14.3156 14.3081 14.0016C14.26 13.8797 13.7267 13.0406 13.1147 12.1359C12.5027 11.2312 12.0043 10.4719 12.0043 10.4484C12.0043 10.3219 13.4994 9.47812 14.8677 8.83125L15.7857 8.4L15.8163 8.56875C15.8338 8.66719 15.8469 9.1125 15.8513 9.5625C15.8513 10.0125 15.8688 10.5891 15.8906 10.8375C15.9475 11.6109 15.7595 11.4609 18.566 12.9609C20.1092 13.7859 21.036 14.2547 21.1584 14.2734C21.6786 14.3578 22.142 13.9219 22.1463 13.3453C22.1463 13.0641 22.0676 12.8625 21.8797 12.675C21.7922 12.5859 20.9004 12.0844 19.672 11.4375L17.6174 10.3547L17.5693 8.2125C17.5125 5.69062 17.5212 5.74219 17.0491 5.20312C16.73 4.84219 16.3278 4.58906 15.8906 4.47656C15.6021 4.40625 14.7584 4.37812 14.7584 4.43906Z" fill="#151515"/>
<path d="M3.87329 6.79688V6.9375H6.10279H8.33228V6.79688V6.65625H6.10279H3.87329V6.79688Z" fill="#151515"/>
<path d="M0.244873 7.5V7.64062H3.41425H6.58364V7.5V7.35938H3.41425H0.244873V7.5Z" fill="#151515"/>
<path d="M2.9552 8.20312V8.34375H5.1847H7.41419V8.20312V8.0625H5.1847H2.9552V8.20312Z" fill="#151515"/>
<path d="M8.29723 10.4158C8.14423 10.9267 7.49724 13.5611 7.5191 13.5799C7.5497 13.6127 10.1071 13.2611 10.177 13.2142C10.2076 13.1955 9.94968 12.7736 9.49067 12.0986C9.08849 11.4986 8.66444 10.8424 8.55078 10.6361L8.34095 10.2564L8.29723 10.4158Z" fill="#151515"/>
<path d="M3.78581 17.5312C2.98144 18.1734 2.22953 18.8062 2.11587 18.9375C1.62188 19.5047 1.67434 20.4141 2.2339 20.9437C2.48308 21.1781 2.75412 21.2812 3.1257 21.2812C3.33553 21.2812 3.47542 21.2484 3.6328 21.1687C3.82952 21.0703 8.92676 17.0437 9.14097 16.8187C9.2284 16.725 9.2284 16.725 9.09725 16.7531C9.02731 16.7672 8.41966 16.8562 7.74644 16.95C6.553 17.1187 6.52677 17.1187 6.24262 17.0437C5.9235 16.9594 5.6 16.7578 5.40765 16.5187C5.33334 16.4297 5.26776 16.3594 5.26339 16.3594C5.25465 16.3641 4.59017 16.8891 3.78581 17.5312Z" fill="#151515"/>
<path d="M14.059 17.9531V18.0938H16.2885H18.518V17.9531V17.8125H16.2885H14.059V17.9531Z" fill="#151515"/>
<path d="M10.4307 18.6562V18.7969H13.6H16.7694V18.6562V18.5156H13.6H10.4307V18.6562Z" fill="#151515"/>
<path d="M13.141 19.3594V19.5H15.3705H17.6V19.3594V19.2188H15.3705H13.141V19.3594Z" fill="#151515"/>
</g>
<defs>
<clipPath id="clip0_1536_12028">
<rect width="22.3824" height="24" fill="white" transform="translate(0.244873)"/>
</clipPath>
</defs>
</svg>
