<svg width="24" height="23" viewBox="0 0 24 23" fill="none" xmlns="http://www.w3.org/2000/svg">
<path d="M1.56833 0.0805874C1.09526 0.245716 0.671287 0.70986 0.573102 1.17401C0.537399 1.3436 0.528473 4.2088 0.537399 11.5592L0.550788 21.7124L0.671287 21.9623C0.827489 22.2747 1.10419 22.5514 1.42106 22.7076L1.66652 22.8281H9.54358H17.4206L17.675 22.7032C17.9964 22.547 18.2552 22.2881 18.4114 21.9668L18.5364 21.7124L18.5498 17.2272L18.5587 12.7419L20.808 10.4881C22.0398 9.24744 23.093 8.16295 23.1466 8.07815C23.5304 7.42657 23.4099 6.58754 22.861 6.06984C22.5039 5.73065 22.2852 5.64586 21.772 5.64586C21.0669 5.64586 21.0802 5.63693 19.7324 6.97581L18.5587 8.14063L18.5498 4.63724L18.5364 1.1383L18.4114 0.883915C18.2552 0.562584 17.9964 0.303734 17.675 0.147532L17.4206 0.0225697L9.61053 0.0136433C2.20653 0.00471878 1.78702 0.00471878 1.56833 0.0805874ZM5.7501 1.33913V1.78543H4.21039C2.53679 1.78543 2.47431 1.79435 2.3672 2.03089C2.29133 2.20048 2.29133 20.6502 2.3672 20.8198C2.47877 21.0697 2.44753 21.0653 5.25917 21.0653C8.07082 21.0653 8.03958 21.0697 8.15115 20.8198C8.21809 20.6725 8.21809 20.5654 8.15115 20.4181C8.03958 20.1727 8.0485 20.1727 5.52695 20.1727H3.20623V11.4253V2.67801H4.4737H5.73671L5.76348 2.89669C5.81704 3.36084 6.183 3.82945 6.62483 3.99904C6.83012 4.07937 6.99525 4.08383 9.54358 4.08383C12.0919 4.08383 12.257 4.07937 12.4623 3.99904C12.9042 3.82945 13.2701 3.36084 13.3237 2.89669L13.3505 2.67801H14.6135H15.8809V6.7482V10.8184L15.5908 11.1129C15.3052 11.3986 15.2963 11.4164 14.609 12.9561C14.1538 13.9826 13.9173 14.5583 13.9173 14.661C13.9173 14.8618 14.069 15.0359 14.2743 15.0671C14.4037 15.0894 14.5599 15.0314 15.1401 14.777C15.5284 14.603 15.8542 14.4601 15.8631 14.4601C15.872 14.4601 15.8809 15.7455 15.8809 17.3164V20.1727H13.5602C11.0387 20.1727 11.0476 20.1727 10.936 20.4181C10.8691 20.5654 10.8691 20.6725 10.936 20.8198C11.0476 21.0697 11.0163 21.0653 13.828 21.0653C16.6396 21.0653 16.6084 21.0697 16.72 20.8198C16.7601 20.735 16.7735 19.8603 16.7735 17.3789V14.054L17.202 13.8576C17.4385 13.7461 17.6393 13.6568 17.6483 13.6568C17.6616 13.6568 17.6616 15.4331 17.6572 17.602C17.6438 21.516 17.6438 21.5517 17.5501 21.6767C17.501 21.7436 17.3894 21.8374 17.3046 21.8775C17.1618 21.9534 16.6977 21.9579 9.54358 21.9579C2.38951 21.9579 1.92537 21.9534 1.77809 21.8775C1.6933 21.8374 1.57726 21.7347 1.52371 21.6499L1.42106 21.4982V11.4298C1.42106 1.4641 1.42106 1.36145 1.51032 1.21417C1.55941 1.13384 1.66206 1.03119 1.74239 0.9821C1.8852 0.897303 1.97446 0.892841 3.82211 0.892841H5.7501V1.33913ZM12.4445 1.84791C12.4445 2.37453 12.4266 2.85653 12.3999 2.91901C12.3775 2.98149 12.2927 3.07521 12.2124 3.1243C12.0696 3.2091 11.9848 3.21356 9.54358 3.21356C7.10236 3.21356 7.01757 3.2091 6.87475 3.1243C6.79442 3.07521 6.70963 2.98149 6.68731 2.91901C6.66053 2.85653 6.64268 2.37453 6.64268 1.84791V0.892841H9.54358H12.4445V1.84791ZM17.3582 0.995487C17.684 1.20971 17.6661 0.964247 17.6661 5.22188V9.03768L17.2198 9.48397L16.7735 9.93027V6.0386C16.7735 3.11538 16.7601 2.11568 16.72 2.03089C16.6129 1.79435 16.5504 1.78543 14.8768 1.78543H13.3371V1.33913V0.892841H15.274H17.2064L17.3582 0.995487ZM22.0799 6.58307C22.2629 6.67233 22.4325 6.89548 22.4682 7.07399C22.5173 7.3507 22.4504 7.53814 22.2183 7.7836L21.9996 8.01121L21.4864 7.49797L20.9687 6.9892L21.1159 6.83746C21.1918 6.75266 21.3212 6.64555 21.3927 6.60092C21.5533 6.49828 21.9014 6.48935 22.0799 6.58307ZM20.8705 8.13617L21.3703 8.63602L19.362 10.6443L17.3537 12.6527L16.8405 12.1394L16.3272 11.6262L18.3222 9.63125C19.4245 8.52891 20.3305 7.63186 20.3439 7.63186C20.3573 7.63186 20.5938 7.85947 20.8705 8.13617ZM16.2157 12.8089L16.5682 13.1614L16.3674 13.2507C16.2603 13.2998 15.9702 13.4292 15.7247 13.5363C15.4793 13.6479 15.274 13.7327 15.2651 13.7238C15.2472 13.7059 15.8051 12.4518 15.8363 12.4518C15.8497 12.4518 16.0193 12.6125 16.2157 12.8089Z" fill="black"/>
<path d="M4.68342 5.41822C4.46474 5.53872 4.46027 5.58335 4.45581 7.22124C4.45581 8.88145 4.46474 8.94393 4.70127 9.05104C4.88425 9.13584 7.81193 9.12691 7.97706 9.04212C8.19574 8.92608 8.20467 8.85914 8.20467 7.23017C8.20467 5.6012 8.19574 5.53426 7.97706 5.41822C7.803 5.32896 4.84409 5.32896 4.68342 5.41822ZM7.31208 7.23017V8.21201H6.33024H5.3484V7.23017V6.24832H6.33024H7.31208V7.23017Z" fill="black"/>
<path d="M13.1808 5.78831C13.1317 5.8017 12.6854 6.21229 12.19 6.70767L11.2885 7.60472L10.8958 7.22537C10.6816 7.01562 10.4495 6.82817 10.3826 6.81032C10.1951 6.76569 9.95411 6.88619 9.88271 7.06025C9.76667 7.33248 9.82469 7.43067 10.454 8.05994C11.052 8.65797 11.1413 8.71599 11.3956 8.64905C11.5742 8.60442 13.6762 6.50238 13.7164 6.32386C13.7922 6.02485 13.4843 5.72137 13.1808 5.78831Z" fill="black"/>
<path d="M4.68342 10.3274C4.46474 10.4479 4.46027 10.4925 4.45581 12.1304C4.45581 13.7906 4.46474 13.8531 4.70127 13.9602C4.88425 14.045 7.81193 14.0361 7.97706 13.9513C8.19574 13.8353 8.20467 13.7683 8.20467 12.1393C8.20467 10.5104 8.19574 10.4434 7.97706 10.3274C7.803 10.2381 4.84409 10.2381 4.68342 10.3274ZM7.31208 12.1393V13.1212H6.33024H5.3484V12.1393V11.1575H6.33024H7.31208V12.1393Z" fill="black"/>
<path d="M13.1808 10.6975C13.1317 10.7109 12.6854 11.1215 12.19 11.6169L11.2885 12.5139L10.8958 12.1346C10.6816 11.9248 10.4495 11.7374 10.3826 11.7195C10.1951 11.6749 9.95411 11.7954 9.88271 11.9694C9.76667 12.2417 9.82469 12.3398 10.454 12.9691C11.052 13.5672 11.1413 13.6252 11.3956 13.5582C11.5742 13.5136 13.6762 11.4116 13.7164 11.233C13.7922 10.934 13.4843 10.6305 13.1808 10.6975Z" fill="black"/>
<path d="M4.68342 15.2366C4.46474 15.3571 4.46027 15.4017 4.45581 17.0396C4.45581 18.6998 4.46474 18.7623 4.70127 18.8694C4.88425 18.9542 7.81193 18.9453 7.97706 18.8605C8.19574 18.7444 8.20467 18.6775 8.20467 17.0485C8.20467 15.4196 8.19574 15.3526 7.97706 15.2366C7.803 15.1473 4.84409 15.1473 4.68342 15.2366ZM7.31208 17.0485V18.0304H6.33024H5.3484V17.0485V16.0667H6.33024H7.31208V17.0485Z" fill="black"/>
<path d="M10.6369 15.6251C10.4494 15.6787 10.3468 15.8304 10.3468 16.058C10.3468 16.2365 10.3691 16.2723 10.7306 16.6471L11.1189 17.0488L10.7306 17.4505C10.3691 17.8298 10.3468 17.8611 10.3468 18.044C10.3468 18.1958 10.3736 18.2672 10.4628 18.3564C10.7083 18.6064 10.9314 18.535 11.4045 18.0663L11.7705 17.7004L12.1677 18.0842C12.5827 18.4814 12.6943 18.5394 12.9398 18.4591C13.1272 18.3966 13.2656 18.1467 13.2209 17.9548C13.2031 17.8834 13.0246 17.6602 12.8103 17.4371L12.4265 17.0488L12.8103 16.6561C13.0246 16.4374 13.2031 16.2142 13.2209 16.1428C13.2656 15.9509 13.1272 15.701 12.9398 15.6385C12.6943 15.5582 12.5827 15.6162 12.1677 16.0134L11.7705 16.3972L11.4045 16.0313C11.0207 15.6474 10.86 15.5671 10.6369 15.6251Z" fill="black"/>
<path d="M9.32487 20.2348C8.93659 20.4491 9.10172 21.0649 9.54355 21.0649C9.77116 21.0649 9.98985 20.8463 9.98985 20.6231C9.98985 20.2884 9.61942 20.0697 9.32487 20.2348Z" fill="black"/>
</svg>
