<svg width="24" height="24" viewBox="0 0 24 24" fill="none" xmlns="http://www.w3.org/2000/svg">
<path d="M9.7125 0.289777C9.65448 0.338869 9.592 0.428127 9.57415 0.486146C9.54737 0.593256 9.54291 0.593256 8.86901 0.611107C8.10139 0.628959 7.97196 0.669126 7.66402 0.990456C7.16863 1.50369 7.16863 2.36504 7.66402 2.84703C7.86931 3.0434 8.15048 3.19068 8.38701 3.22192C8.4852 3.23531 8.56553 3.25762 8.56553 3.26655C8.56553 3.27994 8.52983 3.34242 8.48073 3.4049C8.26651 3.71284 8.11031 4.12343 8.05229 4.53848L8.02552 4.7527H8.4004H8.77529L8.82884 4.49385C8.85562 4.3555 8.93595 4.13682 9.00736 4.01632C9.13232 3.79764 9.45812 3.45845 9.54291 3.45845C9.56523 3.45845 9.59647 3.53432 9.61432 3.62358C9.72589 4.23947 10.2525 4.84642 10.8505 5.04726L11.0648 5.11866V5.51586V5.91306H10.6586C9.96243 5.91306 9.9535 5.92645 9.94904 6.99309V7.83212H9.56969H9.19034V8.21147V8.59082H12.2251H15.2599V8.21147V7.83212H14.8806H14.5012V6.99309C14.4968 5.92645 14.4878 5.91306 13.7916 5.91306H13.3855V5.51586V5.11866L13.5997 5.04726C14.1977 4.84642 14.7244 4.23947 14.8359 3.62358C14.8538 3.53432 14.885 3.45845 14.9073 3.45845C14.9921 3.45845 15.3179 3.79764 15.4429 4.01632C15.5143 4.13682 15.5946 4.3555 15.6214 4.49385L15.675 4.7527H16.0499H16.4247L16.398 4.53848C16.3399 4.12343 16.1837 3.71284 15.9695 3.4049C15.858 3.25316 15.8624 3.23531 16.0097 3.23531C16.1837 3.23531 16.6434 3.00324 16.8086 2.82918C17.4334 2.16867 17.179 1.00385 16.3399 0.69144C16.148 0.620033 15.9963 0.602181 15.5054 0.602181H14.9029L14.8761 0.490608C14.8627 0.428127 14.7958 0.338869 14.7378 0.289777C14.6262 0.204981 14.5503 0.200519 12.2251 0.200519C9.89995 0.200519 9.82408 0.204981 9.7125 0.289777ZM14.1353 2.24008L14.1219 3.5254L14.0014 3.75301C13.8496 4.03864 13.6086 4.24393 13.323 4.32873C13.0106 4.42245 11.4397 4.42245 11.1273 4.32873C10.8416 4.24393 10.6006 4.03864 10.4489 3.75301L10.3284 3.5254L10.315 2.24008L10.2971 0.959216H12.2251H14.1531L14.1353 2.24008ZM9.54737 1.91875V2.47661H9.0029C8.37362 2.47661 8.23527 2.42306 8.10139 2.14189C7.98981 1.91428 8.0389 1.6956 8.23974 1.50816L8.39148 1.36088H8.97166H9.54737V1.91875ZM16.2105 1.50816C16.4114 1.6956 16.4604 1.91428 16.3489 2.14189C16.215 2.42306 16.0766 2.47661 15.4518 2.47661H14.9029V1.91875V1.36088H15.4786H16.0588L16.2105 1.50816ZM12.6268 5.53372V5.91306H12.2251H11.8235V5.53372V5.15437H12.2251H12.6268V5.53372ZM13.7425 7.25194V7.83212H12.2251H10.7077V7.25194V6.67176H12.2251H13.7425V7.25194Z" fill="black"/>
<path d="M7.60601 9.43446C7.33377 9.55942 7.1374 9.74687 7.02137 9.99679C6.91426 10.2199 6.91426 10.2333 6.91426 11.8712V13.5225L6.03952 14.848L5.16479 16.1779H3.59384C2.66109 16.1779 1.91578 16.1958 1.75958 16.227C1.32221 16.3074 1.01427 16.5662 0.866993 16.9768C0.808975 17.1419 0.800049 17.5793 0.800049 19.9804V22.792L0.929474 22.9214L1.0589 23.0509H3.85715H6.65095L6.75806 22.9393C6.82054 22.8813 6.87409 22.7965 6.87409 22.7518C6.87855 22.7072 6.87409 21.5602 6.86963 20.2035L6.8607 17.7355L7.43196 16.8652C7.74883 16.3922 8.02106 15.9994 8.03445 15.9994C8.04784 15.9994 8.31562 16.3788 8.62356 16.8474L9.19035 17.6953V20.2481C9.19481 22.9482 9.19035 22.8857 9.40011 22.9973C9.53846 23.0732 14.9118 23.0732 15.0502 22.9973C15.2599 22.8857 15.2555 22.9482 15.2599 20.2481V17.6953L15.8267 16.8474C16.1347 16.3788 16.4024 15.9994 16.4158 15.9994C16.4292 15.9994 16.6881 16.3743 16.9915 16.8251L17.536 17.6507V20.1499C17.536 22.8188 17.5405 22.8902 17.7502 23.0018C17.8127 23.0375 18.7142 23.0509 20.6154 23.0509H23.3914L23.5208 22.917L23.6547 22.7875L23.6413 20.0741L23.6279 17.3606L23.503 17.0928C23.3423 16.7537 23.012 16.4368 22.6773 16.3029C22.4363 16.2092 22.3471 16.2047 20.8475 16.1779L19.2721 16.1556L18.4063 14.8391L17.536 13.5225V11.8712C17.536 10.2289 17.536 10.2199 17.4289 9.99679C17.304 9.72902 17.1344 9.56389 16.8666 9.44339C16.3176 9.19347 15.617 9.47463 15.3626 10.0414C15.2912 10.2021 15.2778 10.4074 15.2599 11.9203L15.2376 13.6207L14.3897 14.8971L13.5417 16.1735H12.2251H10.9086L10.0606 14.8971L9.21267 13.6207L9.19035 11.9203C9.1725 10.4074 9.15911 10.2021 9.0877 10.0414C8.83778 9.48355 8.13264 9.19347 7.60601 9.43446ZM8.28438 10.2155L8.40934 10.3226L8.42273 12.0676L8.43612 13.8171L9.45366 15.3478C10.016 16.1913 10.5069 16.892 10.5515 16.9099C10.6497 16.9456 13.8006 16.9456 13.8987 16.9099C13.9434 16.892 14.4343 16.1913 14.9966 15.3478L16.0142 13.8171L16.0276 12.0676L16.0409 10.3226L16.1659 10.2155C16.331 10.0771 16.5274 10.0771 16.6658 10.2199L16.7773 10.327V12.1926V14.0581L15.6393 15.7674L14.5012 17.4767V19.8822V22.2922H12.2251H9.94905V19.8822V17.4767L8.811 15.7674L7.67296 14.0581V12.1926V10.327L7.78453 10.2199C7.92288 10.0771 8.11925 10.0771 8.28438 10.2155ZM7.36055 14.9462L7.5837 15.2809L6.84731 16.3743L6.11093 17.4677V19.8822V22.2922H3.83484H1.55875V19.7929C1.55875 16.9902 1.54982 17.0705 1.86223 16.9857C1.96487 16.9545 2.70126 16.9366 3.77236 16.9366H5.51736L5.60662 16.834C5.65571 16.7804 6.01721 16.2583 6.40102 15.6736C6.7893 15.0935 7.11509 14.6159 7.11955 14.6159C7.12848 14.6159 7.23559 14.7632 7.36055 14.9462ZM18.0716 15.7093C18.4465 16.2717 18.7946 16.7804 18.8437 16.834C18.9329 16.9366 18.9329 16.9366 20.4994 16.9366C21.3608 16.9411 22.1552 16.959 22.2623 16.9768C22.5166 17.0259 22.6684 17.1419 22.7934 17.3829C22.8915 17.5793 22.8915 17.5793 22.8915 19.9357V22.2922H20.6154H18.3438L18.3304 19.8643L18.317 17.432L17.5896 16.3609L16.8621 15.2854L17.0942 14.9462C17.2192 14.7587 17.3352 14.6248 17.3575 14.6427C17.3754 14.665 17.6967 15.1425 18.0716 15.7093Z" fill="black"/>
<path d="M17.5897 9.90319C17.6388 10.3406 18.0003 10.7244 18.4555 10.827C18.5894 10.8583 18.6965 10.8895 18.6965 10.8984C18.6965 10.9118 18.6162 11.01 18.5224 11.126C18.1342 11.5857 17.9066 12.3087 17.9512 12.938C18.0315 14.0983 18.8438 15.0623 19.9684 15.3524C20.3032 15.4372 20.8655 15.4372 21.2314 15.3524C22.1553 15.1337 22.9407 14.3616 23.1817 13.4244C23.271 13.0897 23.2665 12.4471 23.1773 12.0989C23.0077 11.4384 22.4632 10.7378 21.8786 10.4298C21.3564 10.1531 21.0529 10.1085 19.781 10.1085C18.5269 10.1085 18.4332 10.0906 18.3484 9.8407L18.2993 9.70682H17.9333H17.5674L17.5897 9.90319ZM21.2314 10.9743C21.7179 11.1483 22.1687 11.5812 22.365 12.0632C22.4498 12.273 22.4677 12.4024 22.4677 12.7862C22.4677 13.2191 22.4587 13.2772 22.3293 13.5449C22.0749 14.076 21.6956 14.4063 21.16 14.5714C20.0532 14.9151 18.9375 14.2144 18.7322 13.054C18.5715 12.1302 19.183 11.2019 20.1291 10.9341C20.4147 10.8538 20.9458 10.8761 21.2314 10.9743Z" fill="black"/>
<path d="M3.17427 10.1976C2.7012 10.3226 2.33971 10.5324 1.98267 10.8894C1.45158 11.416 1.20166 12.023 1.20166 12.7727C1.20166 13.5181 1.43373 14.0848 1.96036 14.6204C2.53608 15.205 3.16088 15.446 3.99099 15.4059C4.54886 15.3791 4.8925 15.2631 5.34772 14.9551C7.03024 13.8081 6.83834 11.2687 5.00407 10.3762C4.45067 10.1039 3.77677 10.0414 3.17427 10.1976ZM4.23645 10.9117C4.78093 11.0144 5.31202 11.4249 5.53516 11.9114C5.75385 12.3979 5.75831 12.3845 5.43251 12.3845C4.96837 12.3845 4.5801 12.255 4.20521 11.9694C3.83925 11.6972 3.42866 10.9965 3.57594 10.9028C3.65627 10.8537 3.95529 10.8582 4.23645 10.9117ZM2.97344 11.6124C3.39742 12.5362 4.35695 13.1387 5.4102 13.1432H5.70922L5.68244 13.2637C5.59318 13.6252 5.28524 14.0715 4.96391 14.3035C4.39265 14.7097 3.63842 14.7721 3.01361 14.4642C2.61641 14.2678 2.32185 13.9688 2.12549 13.5538C1.9916 13.2726 1.98267 13.2235 1.98267 12.7638C1.98267 12.2952 1.9916 12.255 2.13441 11.9605C2.2326 11.7641 2.37987 11.5588 2.53608 11.4071C2.77707 11.1706 2.78154 11.1661 2.82617 11.2732C2.84848 11.3312 2.91542 11.4874 2.97344 11.6124Z" fill="black"/>
<path d="M11.7118 10.1534C10.9888 10.3096 10.2837 10.8094 9.93113 11.4164C9.68121 11.8448 9.57856 12.2242 9.58302 12.7642C9.58302 13.3399 9.66782 13.6746 9.94006 14.1165C10.9888 15.857 13.4613 15.857 14.5146 14.1165C14.7556 13.7148 14.8716 13.2998 14.8761 12.8088C14.8805 12.3224 14.8091 12.0234 14.6038 11.5905C14.3093 10.988 13.7603 10.5015 13.082 10.256C12.7517 10.1311 12.0421 10.0775 11.7118 10.1534ZM12.8945 10.9969C13.0284 11.0504 13.1757 11.1218 13.2248 11.1575C13.3051 11.2156 13.3051 11.2245 13.2114 11.3718C13.0641 11.6128 12.6624 11.9609 12.3679 12.1126C11.935 12.3313 11.6538 12.3849 10.9665 12.3849H10.3506L10.4354 12.1617C10.7568 11.3138 11.4485 10.8407 12.3143 10.8853C12.5152 10.8942 12.7472 10.9389 12.8945 10.9969ZM14.0995 12.492C14.1665 12.907 14.0593 13.4113 13.8317 13.7684C13.4435 14.3709 12.8142 14.6922 12.0912 14.652C11.7966 14.6342 11.6806 14.6029 11.4039 14.469C10.9174 14.228 10.5336 13.7817 10.4042 13.3176L10.3596 13.1525L11.1272 13.1346C11.8145 13.1168 11.9261 13.1034 12.2474 12.9918C12.8365 12.791 13.3988 12.4072 13.6978 12.0055L13.854 11.7957L13.9567 12.0234C14.0147 12.1439 14.0772 12.3581 14.0995 12.492Z" fill="black"/>
</svg>
