<svg width="24" height="24" viewBox="0 0 24 24" fill="none" xmlns="http://www.w3.org/2000/svg">
<path d="M19.1986 12.8987C19.1986 17.398 16.0491 19.6476 12.3058 20.9524C12.1097 21.0188 11.8968 21.0156 11.7029 20.9434C7.9505 19.6476 4.80103 17.398 4.80103 12.8987V6.5998C4.80103 6.36115 4.89583 6.13227 5.06459 5.96351C5.23334 5.79476 5.46222 5.69995 5.70087 5.69995C7.50057 5.69995 9.7502 4.62013 11.3159 3.25236C11.5066 3.08949 11.7491 3 11.9998 3C12.2506 3 12.4931 3.08949 12.6837 3.25236C14.2584 4.62913 16.4991 5.69995 18.2988 5.69995C18.5374 5.69995 18.7663 5.79476 18.9351 5.96351C19.1038 6.13227 19.1986 6.36115 19.1986 6.5998V12.8987Z" stroke="#C0D330" stroke-width="1.5" stroke-linecap="round" stroke-linejoin="round"/>
<path d="M11.9993 20.997V3" stroke="#C0D330" stroke-width="1.5" stroke-linecap="round" stroke-linejoin="round"/>
</svg>
